<svg viewBox="0 0 16 8" fill="none" xmlns="http://www.w3.org/2000/svg">
<path d="M14.7354 4.66681C15.0115 4.66681 15.2354 4.44295 15.2354 4.16681C15.2354 3.89066 15.0115 3.66681 14.7354 3.66681L14.7354 4.66681ZM0.381798 3.81325C0.186536 4.00852 0.186536 4.3251 0.381798 4.52036L3.56378 7.70234C3.75904 7.8976 4.07562 7.8976 4.27089 7.70234C4.46615 7.50708 4.46615 7.1905 4.27089 6.99523L1.44246 4.16681L4.27089 1.33838C4.46615 1.14312 4.46615 0.826536 4.27088 0.631274C4.07562 0.436012 3.75904 0.436012 3.56378 0.631274L0.381798 3.81325ZM14.7354 3.66681L0.735352 3.66681L0.735352 4.66681L14.7354 4.66681L14.7354 3.66681Z" fill="currentColor"/>
</svg>
