<svg width="980" height="965" viewBox="0 0 980 965" fill="none" xmlns="http://www.w3.org/2000/svg">
<path d="M733.462 734.925L759.784 761.19C684.985 835.689 586.788 872.914 488.589 872.914C390.389 872.914 292.192 835.638 217.394 761.19L243.869 734.771L244.225 734.415L243.868 734.061C201.319 691.91 169.651 638.798 153.381 579.337L153.25 578.855L152.768 578.986L118.504 588.293C63.3284 384.94 183.901 174.666 387.495 119.085L396.667 152.66L396.798 153.141L397.28 153.011C426.434 145.123 456.767 140.821 488.743 140.821C520.719 140.821 551.668 145.226 581.079 153.267L581.561 153.399L581.693 152.916L590.903 119.133C794.556 174.708 915.135 384.987 859.958 588.344L824.821 578.781L824.339 578.65L824.207 579.132C807.937 638.747 776.167 691.961 733.464 734.215L733.106 734.569L733.462 734.925ZM164.684 486.89C164.684 665.452 310.266 810.724 489.205 810.724C668.145 810.724 813.727 665.452 813.727 486.89C813.727 308.325 668.168 164.267 489.231 164.267C310.294 164.267 164.684 308.325 164.684 486.89Z" stroke="url(#paint0_linear_1655_1332)"/>
<path d="M917.403 378.598L963.303 366.375C997.609 496.482 975.83 628.527 913.001 736.741C850.172 844.955 746.239 929.3 616.295 964.044L604.083 917.854L603.954 917.368L603.469 917.5C529.802 937.403 451.017 938.307 375.082 918.185L374.6 918.057L374.471 918.539L362.78 962.358C103.272 893.075 -51.4031 625.589 17.6648 365.661L60.6503 377.071L61.1325 377.199L61.2616 376.717C71.2164 339.554 85.8769 303.385 106.329 268.159C126.781 232.933 151.431 201.656 179.104 174.402L179.46 174.051L179.109 173.694L147.683 141.845C339.208 -47.0719 648.199 -45.3617 837.03 145.663L803.93 178.339L803.575 178.69L803.926 179.046C859.217 235.114 897.539 304.161 916.79 378.241L916.917 378.728L917.403 378.598ZM280.565 846.354C477.218 960.532 730.266 893.146 844.645 696.145C959.024 499.144 892.09 245.977 695.437 131.8C498.782 17.6213 247.086 85.7566 132.708 282.755C18.3301 479.754 83.91 732.176 280.565 846.354Z" stroke="url(#paint1_linear_1655_1332)"/>
<defs>
<linearGradient id="paint0_linear_1655_1332" x1="489.231" y1="118.471" x2="489.231" y2="873.414" gradientUnits="userSpaceOnUse">
<stop stop-color="#9795FF" stop-opacity="0.15"/>
<stop offset="0.5" stop-color="#9795FF" stop-opacity="0.6"/>
<stop offset="1" stop-color="#9795FF" stop-opacity="0.15"/>
</linearGradient>
<linearGradient id="paint1_linear_1655_1332" x1="82.1373" y1="253.394" x2="913.844" y2="736.284" gradientUnits="userSpaceOnUse">
<stop stop-color="#9795FF" stop-opacity="0.15"/>
<stop offset="0.5" stop-color="#9795FF" stop-opacity="0.6"/>
<stop offset="1" stop-color="#9795FF" stop-opacity="0.15"/>
</linearGradient>
</defs>
</svg>
