<svg width="34" height="33" viewBox="0 0 34 33" fill="none" xmlns="http://www.w3.org/2000/svg">
<g clip-path="url(#clip0_1655_1560)">
<path d="M32.769 11.7813C32.0471 7.95443 29.8672 4.64613 26.6324 2.4648C23.4572 0.328407 19.6371 -0.45632 15.8766 0.259268C8.9829 1.56254 3.92917 7.8922 4.11842 14.9686C4.11842 15.6461 4.66515 16.417 8.70603 16.9978C11.317 17.3746 14.8182 17.5855 18.5611 17.5855C22.3041 17.5855 25.8053 17.3781 28.4162 16.9978C32.2574 16.4481 32.9408 15.7256 33.0003 15.0792L33.0249 14.9617C33.0459 13.9349 32.9478 12.7146 32.7655 11.7813H32.769ZM31.6966 14.8718C31.4408 15.0343 30.5856 15.4214 27.9361 15.7775L27.4104 15.8466L27.4209 15.8535C24.9852 16.1543 21.8695 16.3202 18.5717 16.3202C15.0319 16.3202 11.7025 16.1301 9.19668 15.7879C6.54015 15.4283 5.68851 15.0343 5.43618 14.8752C5.40113 14.8545 5.38361 14.8165 5.38361 14.7784C5.28548 8.36235 9.87308 2.65839 16.1114 1.47611C19.5354 0.829664 23.0121 1.54525 25.9034 3.49151C28.8578 5.47926 30.8485 8.50408 31.5074 12.0094C31.6616 12.8149 31.7492 13.8589 31.7422 14.7784C31.7422 14.8165 31.7211 14.8545 31.6896 14.8752L31.6966 14.8718Z" fill="currentColor"/>
<path d="M19.7282 8.25519C19.942 8.04431 20.2679 7.72627 20.2679 7.13514C20.2679 6.81018 19.9981 6.54745 19.6616 6.54745C19.6616 6.63042 19.0483 7.24576 18.845 7.43589C18.6348 7.64331 18.3193 7.95443 18.3193 8.54211C18.3193 9.12979 18.6383 9.44437 18.8661 9.66908C19.0483 9.84884 19.0553 9.86612 19.0553 9.94909C19.0553 10.0321 19.0483 10.0597 18.845 10.2498C18.6348 10.4573 18.3193 10.7684 18.3193 11.3561C18.3193 11.9437 18.6383 12.2583 18.8661 12.483C19.0483 12.6628 19.0553 12.6801 19.0553 12.763C19.0553 12.846 19.0483 12.8737 18.8555 13.0534C18.6418 13.2643 18.3193 13.5823 18.3193 14.17C18.3193 14.495 18.5927 14.7577 18.9256 14.7577C18.9256 14.6713 19.5355 14.0594 19.7352 13.8727C19.9455 13.6653 20.2644 13.3507 20.2644 12.763C20.2644 12.1754 19.9455 11.8608 19.7177 11.6361C19.5355 11.4563 19.5284 11.4425 19.5284 11.3561C19.5284 11.2696 19.5355 11.2454 19.7352 11.0588C19.9455 10.8514 20.2644 10.5368 20.2644 9.94563C20.2644 9.35449 19.9455 9.04337 19.7177 8.81867C19.5355 8.63891 19.5284 8.62162 19.5284 8.53866C19.5284 8.45569 19.5355 8.42803 19.7247 8.25173L19.7282 8.25519Z" fill="currentColor"/>
<path d="M27.5155 8.26556C27.7222 8.07197 28.0657 7.74701 28.0657 7.13514C28.0657 6.81018 27.7923 6.54745 27.4594 6.54745C27.4594 6.63042 26.8496 7.24576 26.6708 7.41169C26.45 7.61911 26.1206 7.93369 26.1206 8.54557C26.1206 9.15745 26.4395 9.44783 26.6673 9.67253C26.8496 9.85229 26.8566 9.86958 26.8566 9.95255C26.8566 10.0355 26.8496 10.0632 26.6708 10.2291C26.45 10.4365 26.1206 10.7511 26.1206 11.363C26.1206 11.9749 26.4395 12.2652 26.6673 12.4899C26.8496 12.6697 26.8566 12.687 26.8566 12.77C26.8566 12.8529 26.8496 12.8806 26.6708 13.0465C26.4641 13.2401 26.1206 13.5685 26.1206 14.1804C26.1206 14.5053 26.3905 14.7681 26.7269 14.7681C26.7269 14.7681 27.3367 14.0698 27.5155 13.9038C27.7222 13.7102 28.0657 13.3853 28.0657 12.7734C28.0657 12.1615 27.7503 11.8746 27.519 11.6464C27.3367 11.4667 27.3297 11.4529 27.3297 11.3664C27.3297 11.28 27.3367 11.2558 27.5155 11.0899C27.7222 10.8963 28.0657 10.5713 28.0657 9.95946C28.0657 9.34758 27.7503 9.06065 27.519 8.8325C27.3367 8.65273 27.3297 8.63545 27.3297 8.55248C27.3297 8.46952 27.3367 8.44186 27.5155 8.27593V8.26556Z" fill="currentColor"/>
<path d="M18.5435 18.7539C10.7001 18.7539 4.34265 19.9777 4.34265 21.4849C4.34265 21.4849 4.34265 21.4884 4.34265 21.4918C4.34265 21.5057 4.34265 21.5229 4.34615 21.5506C4.34615 21.5644 4.35316 21.5783 4.35666 21.5921C4.36017 21.6128 4.36367 21.6301 4.37068 21.6509C4.77022 23.5867 5.50269 25.0767 6.4875 26.5493C6.51203 26.5874 6.52255 26.6358 6.51554 26.6807C6.35783 27.5138 5.97582 28.1568 5.38003 28.5924C4.33213 29.3633 3.45597 29.5327 2.26088 29.4601C1.91742 29.4394 1.48635 29.3114 1.21298 29.2181C1.08331 29.1732 0.950133 29.2907 0.98518 29.4221C1.05177 29.6883 1.21649 30.0996 1.61602 30.5317C4.28307 33.3976 9.05992 33.2282 11.6464 31.3441C11.6989 31.3061 11.769 31.2992 11.8286 31.3303C13.9139 32.4227 16.2515 33.0277 18.6031 32.9965C19.998 32.9793 21.0564 32.7891 21.2807 32.7477C27.1054 31.6622 31.6054 27.2926 32.7339 21.6578C32.7549 21.5368 32.7549 21.4988 32.7514 21.4884C32.7514 21.4884 32.7514 21.4884 32.7514 21.4849C32.7514 19.9742 26.394 18.7539 18.5505 18.7539H18.5435ZM21.0038 31.4962L20.5447 31.5827C17.5868 32.0355 14.5552 31.4686 11.9618 29.9786C11.2223 29.6122 10.0763 28.8171 9.58212 28.468C9.45595 28.3781 9.28422 28.4783 9.30174 28.627C9.34029 28.9416 9.55758 29.5016 10.3602 30.3935C10.4373 30.4764 10.4197 30.6113 10.3216 30.6666C8.53422 31.6829 5.69895 31.9007 3.49101 30.715C3.34382 30.6355 3.38237 30.4108 3.55059 30.39C4.50386 30.2552 5.46063 29.951 6.07745 29.505C7.03423 28.8171 7.63352 27.8734 7.80175 26.5148C7.81577 26.3523 7.77722 26.2071 7.6896 26.0896C6.97114 25.0629 6.44544 24.0154 6.00736 22.8539C5.99334 22.8193 5.98283 22.7916 5.97231 22.7571C8.35198 23.6248 13.0833 24.2159 18.5365 24.2159C23.9898 24.2159 28.7036 23.6248 31.0902 22.7605C31.0902 22.7674 31.0832 22.7813 31.0832 22.7882C29.6884 27.3099 25.7947 30.6009 21.0003 31.4893L21.0038 31.4962Z" fill="currentColor"/>
</g>
<defs>
<clipPath id="clip0_1655_1560">
<rect width="32.0571" height="33" fill="white" transform="translate(0.971191)"/>
</clipPath>
</defs>
</svg>
