<svg width="34" height="33" viewBox="0 0 34 33" fill="none" xmlns="http://www.w3.org/2000/svg">
<g clip-path="url(#clip0_2245_736)">
<path d="M32.7693 11.7813C32.0473 7.95443 29.8674 4.64613 26.6326 2.4648C23.4574 0.328407 19.6373 -0.45632 15.8768 0.259268C8.98314 1.56254 3.92942 7.8922 4.11867 14.9686C4.11867 15.6461 4.6654 16.417 8.70627 16.9978C11.3172 17.3746 14.8184 17.5855 18.5614 17.5855C22.3044 17.5855 25.8055 17.3781 28.4165 16.9978C32.2576 16.4481 32.941 15.7256 33.0006 15.0792L33.0251 14.9617C33.0462 13.9349 32.948 12.7146 32.7658 11.7813H32.7693ZM31.6969 14.8718C31.441 15.0343 30.5859 15.4214 27.9364 15.7775L27.4107 15.8466L27.4212 15.8535C24.9854 16.1543 21.8698 16.3202 18.5719 16.3202C15.0322 16.3202 11.7028 16.1301 9.19692 15.7879C6.54039 15.4283 5.68876 15.0343 5.43642 14.8752C5.40138 14.8545 5.38385 14.8165 5.38385 14.7784C5.28572 8.36235 9.87332 2.65839 16.1116 1.47611C19.5357 0.829664 23.0123 1.54525 25.9036 3.49151C28.8581 5.47926 30.8487 8.50408 31.5076 12.0094C31.6618 12.8149 31.7494 13.8589 31.7424 14.7784C31.7424 14.8165 31.7214 14.8545 31.6898 14.8752L31.6969 14.8718Z" fill="white"/>
<path d="M19.7285 8.25519C19.9422 8.04431 20.2682 7.72627 20.2682 7.13514C20.2682 6.81018 19.9983 6.54745 19.6619 6.54745C19.6619 6.63042 19.0485 7.24576 18.8453 7.43589C18.635 7.64331 18.3196 7.95443 18.3196 8.54211C18.3196 9.12979 18.6385 9.44437 18.8663 9.66908C19.0486 9.84884 19.0556 9.86612 19.0556 9.94909C19.0556 10.0321 19.0485 10.0597 18.8453 10.2498C18.635 10.4573 18.3196 10.7684 18.3196 11.3561C18.3196 11.9437 18.6385 12.2583 18.8663 12.483C19.0486 12.6628 19.0556 12.6801 19.0556 12.763C19.0556 12.846 19.0485 12.8737 18.8558 13.0534C18.642 13.2643 18.3196 13.5823 18.3196 14.17C18.3196 14.495 18.5929 14.7577 18.9259 14.7577C18.9259 14.6713 19.5357 14.0594 19.7355 13.8727C19.9457 13.6653 20.2647 13.3507 20.2647 12.763C20.2647 12.1754 19.9457 11.8608 19.7179 11.6361C19.5357 11.4563 19.5287 11.4425 19.5287 11.3561C19.5287 11.2696 19.5357 11.2454 19.7355 11.0588C19.9457 10.8514 20.2647 10.5368 20.2647 9.94563C20.2647 9.35449 19.9457 9.04337 19.7179 8.81867C19.5357 8.63891 19.5287 8.62162 19.5287 8.53866C19.5287 8.45569 19.5357 8.42803 19.7249 8.25173L19.7285 8.25519Z" fill="white"/>
<path d="M27.5157 8.26556C27.7225 8.07197 28.0659 7.74701 28.0659 7.13514C28.0659 6.81018 27.7926 6.54745 27.4596 6.54745C27.4596 6.63042 26.8498 7.24576 26.6711 7.41169C26.4503 7.61911 26.1208 7.93369 26.1208 8.54557C26.1208 9.15745 26.4398 9.44783 26.6676 9.67253C26.8498 9.85229 26.8568 9.86958 26.8568 9.95255C26.8568 10.0355 26.8498 10.0632 26.6711 10.2291C26.4503 10.4365 26.1208 10.7511 26.1208 11.363C26.1208 11.9749 26.4398 12.2652 26.6676 12.4899C26.8498 12.6697 26.8568 12.687 26.8568 12.77C26.8568 12.8529 26.8498 12.8806 26.6711 13.0465C26.4643 13.2401 26.1208 13.5685 26.1208 14.1804C26.1208 14.5053 26.3907 14.7681 26.7272 14.7681C26.7272 14.7681 27.337 14.0698 27.5157 13.9038C27.7225 13.7102 28.0659 13.3853 28.0659 12.7734C28.0659 12.1615 27.7505 11.8746 27.5192 11.6464C27.337 11.4667 27.33 11.4529 27.33 11.3664C27.33 11.28 27.337 11.2558 27.5157 11.0899C27.7225 10.8963 28.0659 10.5713 28.0659 9.95946C28.0659 9.34758 27.7505 9.06065 27.5192 8.8325C27.337 8.65273 27.33 8.63545 27.33 8.55248C27.33 8.46952 27.337 8.44186 27.5157 8.27593V8.26556Z" fill="white"/>
<path d="M18.5438 18.7539C10.7003 18.7539 4.34289 19.9777 4.34289 21.4849C4.34289 21.4849 4.34289 21.4884 4.34289 21.4918C4.34289 21.5057 4.34289 21.5229 4.3464 21.5506C4.3464 21.5644 4.3534 21.5783 4.35691 21.5921C4.36041 21.6128 4.36392 21.6301 4.37093 21.6509C4.77046 23.5867 5.50293 25.0767 6.48774 26.5493C6.51228 26.5874 6.52279 26.6358 6.51578 26.6807C6.35807 27.5138 5.97606 28.1568 5.38027 28.5924C4.33238 29.3633 3.45621 29.5327 2.26112 29.4601C1.91766 29.4394 1.48659 29.3114 1.21323 29.2181C1.08355 29.1732 0.950377 29.2907 0.985424 29.4221C1.05201 29.6883 1.21673 30.0996 1.61626 30.5317C4.28331 33.3976 9.06017 33.2282 11.6466 31.3441C11.6992 31.3061 11.7693 31.2992 11.8288 31.3303C13.9141 32.4227 16.2517 33.0277 18.6034 32.9965C19.9982 32.9793 21.0566 32.7891 21.2809 32.7477C27.1057 31.6622 31.6057 27.2926 32.7342 21.6578C32.7552 21.5368 32.7552 21.4988 32.7517 21.4884C32.7517 21.4884 32.7517 21.4884 32.7517 21.4849C32.7517 19.9742 26.3942 18.7539 18.5508 18.7539H18.5438ZM21.0041 31.4962L20.5449 31.5827C17.587 32.0355 14.5555 31.4686 11.962 29.9786C11.2225 29.6122 10.0765 28.8171 9.58236 28.468C9.45619 28.3781 9.28446 28.4783 9.30199 28.627C9.34054 28.9416 9.55783 29.5016 10.3604 30.3935C10.4375 30.4764 10.42 30.6113 10.3218 30.6666C8.53447 31.6829 5.69919 31.9007 3.49126 30.715C3.34406 30.6355 3.38261 30.4108 3.55084 30.39C4.5041 30.2552 5.46088 29.951 6.0777 29.505C7.03447 28.8171 7.63377 27.8734 7.80199 26.5148C7.81601 26.3523 7.77746 26.2071 7.68984 26.0896C6.97139 25.0629 6.44569 24.0154 6.00761 22.8539C5.99359 22.8193 5.98307 22.7916 5.97256 22.7571C8.35222 23.6248 13.0835 24.2159 18.5368 24.2159C23.99 24.2159 28.7038 23.6248 31.0905 22.7605C31.0905 22.7674 31.0835 22.7813 31.0835 22.7882C29.6886 27.3099 25.7949 30.6009 21.0005 31.4893L21.0041 31.4962Z" fill="white"/>
<ellipse cx="18.7214" cy="21.35" rx="12.75" ry="1.65" fill="#1C1C21"/>
</g>
<defs>
<clipPath id="clip0_2245_736">
<rect width="32.0571" height="33" fill="white" transform="translate(0.971436)"/>
</clipPath>
</defs>
</svg>
