<svg width="222" height="240" viewBox="0 0 222 240" fill="none" xmlns="http://www.w3.org/2000/svg">
<g clip-path="url(#clip0_2240_974)">
<path d="M35.714 116.226C33.7327 104.15 32.2689 101.217 33.8268 89.1207C35.6983 74.6088 45.3537 60.928 57.6125 52.9245C67.4614 46.4945 80.243 44.9419 91.4719 48.4392C102.701 51.9417 112.231 60.3216 117.521 70.824C124.239 84.1701 121.285 89.6016 124.082 104.27C127.318 121.218 134.678 137.361 145.343 150.927C147.758 153.99 150.361 156.965 152.097 160.462C153.832 163.965 158.135 169.992 156.697 173.625C153.226 182.376 145.29 178.576 139.185 185.743C134.72 190.981 129.095 201.159 122.205 205.258C116.345 208.745 105.409 206.826 105.409 206.826L86.4638 201.525C86.4638 201.525 87.5251 195.142 84.4146 193.375L77.1482 198.159C72.0826 194.667 66.5413 195.477 61.2405 196.941C55.9397 198.394 50.895 200.95 45.4269 201.525C34.2398 202.707 23.6538 195.174 17.5218 185.748C16.471 184.128 15.4726 182.408 13.9461 181.232C12.4092 180.055 10.1456 179.574 8.56162 180.677C7.14493 181.655 6.16736 183.793 4.47883 183.469C3.12488 183.213 2.67007 181.53 2.55506 180.155C1.50431 168.037 21.7457 161.33 27.8464 150.807C33.9522 140.289 36.7699 126.179 35.7244 116.236L35.714 116.226Z" fill="white"/>
<path d="M210.306 3.98129C210.609 3.24419 211.654 3.24419 211.958 3.98129L213.139 6.86694C213.5 7.75041 214.205 8.45615 215.089 8.81685L217.975 9.9983C218.712 10.3015 218.712 11.347 217.975 11.6502L215.089 12.8317C214.205 13.1924 213.5 13.8981 213.139 14.7816L211.958 17.6672C211.654 18.4043 210.609 18.4043 210.306 17.6672L209.124 14.7816C208.764 13.8981 208.058 13.1924 207.174 12.8317L204.289 11.6502C203.552 11.347 203.552 10.3015 204.289 9.9983L207.174 8.81685C208.058 8.45615 208.764 7.75041 209.124 6.86694L210.306 3.98129Z" fill="#D6D6D6"/>
<path d="M112.382 18.2759C112.633 17.659 113.506 17.659 113.757 18.2759L114.74 20.6754C115.043 21.4125 115.629 21.998 116.361 22.2959L118.76 23.2787C119.377 23.5297 119.377 24.4027 118.76 24.6536L116.361 25.6364C115.624 25.9396 115.038 26.5251 114.74 27.2622L113.757 29.6617C113.506 30.2785 112.633 30.2785 112.382 29.6617L111.4 27.2622C111.096 26.5251 110.511 25.9396 109.779 25.6364L107.38 24.6536C106.763 24.4027 106.763 23.5297 107.38 23.2787L109.779 22.2959C110.516 21.9927 111.102 21.4072 111.4 20.6754L112.382 18.2759Z" fill="#D6D6D6"/>
<path d="M196.156 119.561C196.328 119.138 196.93 119.138 197.102 119.561L197.782 121.218C197.991 121.725 198.393 122.133 198.9 122.337L200.558 123.017C200.981 123.189 200.981 123.79 200.558 123.963L198.9 124.642C198.393 124.852 197.991 125.254 197.782 125.761L197.102 127.418C196.93 127.842 196.328 127.842 196.156 127.418L195.476 125.761C195.267 125.254 194.865 124.852 194.358 124.642L192.7 123.963C192.277 123.79 192.277 123.189 192.7 123.017L194.358 122.337C194.865 122.128 195.267 121.725 195.476 121.218L196.156 119.561Z" fill="#D6D6D6"/>
<path d="M217.73 86.4599C217.871 86.1149 218.363 86.1149 218.504 86.4599L219.058 87.8139C219.23 88.2269 219.56 88.5614 219.973 88.7287L221.327 89.2829C221.672 89.424 221.672 89.9154 221.327 90.0566L219.973 90.6107C219.56 90.7832 219.225 91.1125 219.058 91.5255L218.504 92.8795C218.363 93.2245 217.871 93.2245 217.73 92.8795L217.176 91.5255C217.003 91.1125 216.674 90.778 216.261 90.6107L214.907 90.0566C214.562 89.9154 214.562 89.424 214.907 89.2829L216.261 88.7287C216.674 88.5562 217.009 88.2269 217.176 87.8139L217.73 86.4599Z" fill="#D6D6D6"/>
<path d="M2.40384 183.208L3.94076 172.716L12.0906 164.921C16.1055 164.618 18.1547 167.31 20.0105 170.886C21.8663 174.467 22.6505 178.513 24.5167 182.079C28.082 188.88 35.7405 193.323 43.4146 193.03C52.3696 192.691 60.6554 186.538 69.558 187.609C75.0105 188.263 105.116 204.432 119.492 193.03C127.297 186.841 121.139 182.512 129.843 176.103C133.288 173.563 145.39 177.776 149.834 171.059C155.114 163.081 144.799 151.199 141.59 147.994C145.636 152.009 149.787 156.181 151.857 161.492C153.927 166.798 159.301 172.475 154.899 176.103C151.104 179.235 147.1 179.951 142.897 182.518C134.496 187.646 134.417 191.201 128.432 199.011C124.056 204.719 116.445 207.485 109.283 206.816C102.116 206.141 92.1885 206.492 87.2379 201.269C83.3433 197.166 75.941 196.983 70.4206 195.717C64.7643 194.421 59.2544 197.876 53.7444 199.711C42.6723 203.397 29.5823 200.03 21.6677 191.446C17.7156 187.17 14.647 181.509 9.15272 179.606C8.36857 182.052 5.6502 183.71 2.40907 183.208H2.40384Z" fill="#E3E3FC"/>
<path d="M60.2734 161.466C59.8186 161.466 59.3586 161.44 58.8985 161.393C54.9778 160.985 50.8898 158.889 47.3925 155.496C44.4023 152.589 42.1753 149.16 40.0215 145.846C39.3942 144.879 39.6661 143.582 40.6332 142.955C41.6003 142.328 42.8967 142.599 43.5241 143.567C45.5524 146.687 47.6487 149.913 50.3043 152.495C53.1272 155.235 56.337 156.918 59.3324 157.232C62.4847 157.571 65.4958 156.165 66.4891 153.896C67.6914 151.131 66.2695 147.383 64.7117 143.781C64.2516 142.72 64.7378 141.491 65.799 141.031C66.8602 140.571 68.0887 141.062 68.5487 142.118C70.4725 146.562 72.1976 151.262 70.3209 155.569C68.7474 159.161 64.7326 161.461 60.2734 161.461V161.466Z" fill="black"/>
<path d="M93.5476 164.545C91.3938 164.545 89.355 164.148 87.4992 163.348C82.3605 161.137 78.8684 155.632 79.0043 149.955C79.1036 145.548 81.1738 141.894 82.8937 139.609C84.9795 136.839 87.5097 134.706 89.9614 132.646C90.8449 131.904 92.1623 132.013 92.9098 132.902C93.6522 133.786 93.5424 135.103 92.6537 135.851C90.2751 137.853 88.0324 139.74 86.2341 142.129C84.3261 144.664 83.2439 147.477 83.1864 150.054C83.0923 154.006 85.6016 157.984 89.1512 159.511C92.3087 160.87 96.3392 160.603 100.5 158.769C104.489 157.007 108.195 154.095 111.782 151.283C112.691 150.566 114.003 150.728 114.72 151.633C115.436 152.542 115.274 153.855 114.369 154.571C110.584 157.545 106.669 160.624 102.194 162.6C99.251 163.897 96.313 164.55 93.5581 164.55L93.5476 164.545Z" fill="black"/>
<path d="M19.6288 171.639C19.4981 171.639 19.3674 171.623 19.2367 171.587C18.4003 171.372 17.8932 170.515 18.1127 169.679C19.7176 163.473 22.2635 157.577 25.6876 152.145C26.1476 151.413 27.12 151.194 27.8518 151.654C28.5837 152.114 28.8033 153.086 28.3432 153.818C25.0969 158.972 22.6765 164.577 21.1552 170.463C20.9723 171.169 20.3345 171.639 19.6392 171.639H19.6288Z" fill="black"/>
<path d="M131.092 176.412C130.622 176.412 130.162 176.203 129.853 175.805C126.33 171.257 123.45 166.254 121.296 160.938C120.972 160.133 121.359 159.218 122.158 158.894C122.963 158.57 123.878 158.957 124.202 159.756C126.252 164.812 128.986 169.564 132.337 173.882C132.865 174.566 132.744 175.549 132.059 176.082C131.772 176.302 131.437 176.412 131.098 176.412H131.092Z" fill="black"/>
<path d="M52.9326 115.834C55.3217 115.452 56.987 113.444 56.6521 111.348C56.3173 109.253 54.109 107.864 51.7199 108.245C49.3308 108.627 47.6655 110.635 48.0004 112.731C48.3353 114.826 50.5435 116.216 52.9326 115.834Z" fill="#E3E3FC"/>
<path d="M100.917 112.729C101.252 110.633 99.5864 108.625 97.1973 108.243C94.8082 107.862 92.5999 109.251 92.2651 111.346C91.9302 113.442 93.5954 115.45 95.9846 115.832C98.3737 116.214 100.582 114.824 100.917 112.729Z" fill="#E3E3FC"/>
<path d="M60.18 102.828C60.8387 101.834 61.8528 101.082 63.0918 101.019C64.3307 100.956 65.3971 101.599 66.1238 102.524C66.8557 103.45 67.3052 104.72 67.3523 106.105C67.4046 107.491 67.0439 108.803 66.3852 109.801C65.7265 110.8 64.7123 111.547 63.4734 111.61C62.2344 111.673 61.168 111.03 60.4361 110.099C59.7043 109.169 59.2547 107.898 59.2076 106.513C59.1554 105.128 59.5161 103.821 60.1747 102.822L60.18 102.828Z" fill="black"/>
<path d="M83.1967 102.681C83.9025 101.719 84.948 101.019 86.1869 101.014C87.4259 101.014 88.461 101.698 89.1458 102.66C89.8358 103.622 90.2227 104.908 90.207 106.294C90.1913 107.679 89.7731 108.97 89.0674 109.937C88.3616 110.904 87.3161 111.6 86.0771 111.605C84.833 111.605 83.8031 110.915 83.1183 109.958C82.4335 108.996 82.0414 107.705 82.0571 106.32C82.0728 104.934 82.491 103.643 83.1967 102.676V102.681Z" fill="black"/>
<path d="M59.249 198.556C58.5799 198.556 57.963 198.122 57.7539 197.453C57.4978 196.627 57.9578 195.749 58.789 195.493C64.1891 193.815 70.7394 190.824 73.1911 187.923C73.7505 187.264 74.7385 187.175 75.4024 187.74C76.0663 188.299 76.1448 189.287 75.5854 189.951C71.6438 194.614 61.6747 197.882 59.7195 198.493C59.5627 198.54 59.4059 198.567 59.2543 198.567L59.249 198.556Z" fill="black"/>
<g opacity="0.3">
<path d="M23.2729 129.593C23.1004 129.593 22.9278 129.572 22.7501 129.525L10.3136 126.341C9.19484 126.054 8.52048 124.914 8.808 123.795C9.09552 122.677 10.2299 122.002 11.3539 122.29L23.7904 125.474C24.9091 125.761 25.5835 126.901 25.296 128.019C25.0555 128.966 24.2034 129.593 23.2729 129.593Z" fill="white"/>
</g>
<g opacity="0.3">
<path d="M25.1857 122.118C24.6577 122.118 24.1297 121.919 23.7219 121.522L17.5742 115.51C16.7483 114.705 16.7326 113.377 17.5429 112.551C18.3479 111.725 19.6757 111.709 20.5017 112.52L26.6494 118.531C27.4754 119.337 27.4911 120.664 26.6808 121.49C26.273 121.908 25.7293 122.118 25.1857 122.118Z" fill="white"/>
</g>
<g opacity="0.3">
<path d="M13.0737 139.385C12.1589 139.385 11.3172 138.778 11.0611 137.858C10.7474 136.745 11.4009 135.594 12.5091 135.281L20.7897 132.96C21.9032 132.646 23.0533 133.3 23.3669 134.408C23.6806 135.521 23.0271 136.671 21.9189 136.985L13.6383 139.306C13.4501 139.358 13.2619 139.385 13.0737 139.385Z" fill="white"/>
</g>
<g opacity="0.3">
<path d="M139.002 122.447C138.045 122.447 137.177 121.783 136.963 120.811C136.712 119.681 137.423 118.568 138.552 118.317L151.088 115.536C152.212 115.285 153.331 115.996 153.582 117.125C153.833 118.254 153.122 119.368 151.992 119.619L139.457 122.4C139.305 122.431 139.153 122.452 139.002 122.452V122.447Z" fill="white"/>
</g>
<g opacity="0.3">
<path d="M148.877 132.562C148.668 132.562 148.459 132.531 148.25 132.463L140.048 129.875C138.945 129.53 138.333 128.354 138.683 127.251C139.033 126.148 140.21 125.542 141.307 125.887L149.51 128.474C150.613 128.819 151.224 129.996 150.874 131.099C150.592 131.993 149.766 132.562 148.882 132.562H148.877Z" fill="white"/>
</g>
<g opacity="0.3">
<path d="M137.334 114.914C136.77 114.914 136.205 114.684 135.792 114.234C135.013 113.382 135.071 112.06 135.923 111.281L142.264 105.468C143.116 104.689 144.438 104.746 145.217 105.598C145.996 106.45 145.939 107.773 145.087 108.552L138.746 114.365C138.343 114.731 137.836 114.914 137.334 114.914Z" fill="white"/>
</g>
<path d="M111.636 209.644C102.461 209.644 92.126 205.64 83.5945 202.33C78.7381 200.449 74.1534 198.671 70.8234 198.044C69.689 197.829 68.9415 196.737 69.1558 195.603C69.3701 194.468 70.4679 193.721 71.5971 193.935C75.3035 194.63 79.8463 196.392 85.1053 198.431C94.4785 202.064 106.141 206.581 115.122 205.211C125.86 203.569 131.893 193.606 133.989 189.397C136.409 184.405 138.866 182.204 144.089 180.38C144.836 180.082 145.605 179.805 146.342 179.538C148.778 178.665 151.073 177.839 152.73 176.218C152.74 176.208 152.756 176.192 152.767 176.182C153.519 175.481 157.017 171.629 152.15 164.446C149.505 160.337 146.953 156.834 144.256 153.128C142.541 150.77 140.764 148.334 138.955 145.715C138.296 144.764 138.537 143.462 139.483 142.803C140.435 142.145 141.736 142.385 142.395 143.331C144.178 145.909 145.934 148.324 147.638 150.666C150.372 154.424 152.955 157.974 155.637 162.14C158.893 166.939 160.869 174.326 155.637 179.224C153.331 181.472 150.367 182.539 147.753 183.474C147.001 183.746 146.29 183.997 145.6 184.279C145.568 184.29 145.537 184.306 145.505 184.316C141.292 185.78 139.692 187.207 137.737 191.243C132.682 201.39 124.673 207.982 115.75 209.346C114.411 209.55 113.031 209.644 111.63 209.644H111.636Z" fill="black"/>
<path d="M86.2809 238.762C126.637 238.762 159.353 236.611 159.353 233.958C159.353 231.304 126.637 229.154 86.2809 229.154C45.9244 229.154 13.209 231.304 13.209 233.958C13.209 236.611 45.9244 238.762 86.2809 238.762Z" fill="#D6D6D6"/>
<path d="M112.054 209.445C108.3 209.445 105.284 208.928 105.043 208.886C104.975 208.875 104.907 208.86 104.839 208.839L85.8945 203.533C85.8161 203.512 85.7377 203.486 85.6645 203.454L76.0614 199.513C76.0352 199.502 76.0091 199.492 75.9777 199.476C70.9121 197.139 67.0803 197.49 61.7847 198.943C59.955 199.445 58.0887 200.109 56.2904 200.746C52.8977 201.949 49.39 203.198 45.6365 203.596C44.8262 203.679 44.0107 203.721 43.19 203.721C33.0954 203.721 22.5513 197.322 15.7554 186.878L15.3737 186.282C14.5216 184.949 13.7166 183.689 12.6606 182.878C11.8137 182.23 10.4859 181.864 9.73834 182.382C9.4456 182.58 9.09535 182.962 8.75555 183.323C7.78844 184.363 6.3247 185.937 4.06113 185.503C3.09925 185.32 0.799088 184.447 0.448836 180.312C-0.277805 171.932 7.29704 166.16 14.621 160.583C19.1167 157.158 23.7693 153.614 26.0172 149.735C31.5428 140.221 34.6689 126.561 33.6286 116.487C33.2418 114.14 32.8759 112.128 32.5517 110.345C31.1978 102.937 30.4502 98.8598 31.7415 88.8385C33.613 74.3265 43.0854 59.8878 56.4577 51.1577C66.73 44.4506 80.0448 42.6784 92.0841 46.4266C103.763 50.0703 113.711 58.6123 119.378 69.8674C123.868 78.7857 124.234 84.4734 124.652 91.0602C124.882 94.6464 125.144 98.703 126.126 103.863C129.305 120.487 136.514 136.305 146.979 149.615C147.377 150.122 147.785 150.629 148.192 151.131C150.273 153.719 152.416 156.395 153.964 159.511C154.298 160.19 154.763 161.011 155.25 161.879C157.43 165.753 160.143 170.567 158.632 174.373C156.363 180.087 152.259 181.389 148.637 182.539C145.808 183.438 143.142 184.285 140.764 187.071C139.493 188.561 138.077 190.537 136.576 192.628C132.781 197.918 128.479 203.92 123.267 207.025C120.078 208.922 115.713 209.414 112.048 209.414L112.054 209.445ZM105.869 204.787C108.792 205.279 116.941 205.964 121.139 203.465C125.604 200.809 129.634 195.184 133.189 190.223C134.742 188.059 136.205 186.015 137.591 184.389C140.743 180.693 144.266 179.569 147.377 178.581C150.764 177.504 153.216 176.725 154.748 172.857C155.521 170.907 153.164 166.725 151.606 163.954C151.088 163.034 150.602 162.167 150.215 161.393C148.872 158.685 146.959 156.301 144.93 153.771C144.517 153.253 144.104 152.741 143.697 152.224C132.818 138.386 125.321 121.945 122.023 104.668C120.988 99.2519 120.721 95.0541 120.481 91.3477C120.073 84.9648 119.749 79.9253 115.645 71.765C110.559 61.6652 101.29 53.6931 90.8399 50.4362C79.9821 47.054 67.9847 48.6379 58.7474 54.6759C46.3736 62.7578 37.6173 76.0569 35.8922 89.3874C34.6846 98.7605 35.3485 102.388 36.6711 109.608C37.0005 111.422 37.3769 113.476 37.7742 115.886C37.7794 115.928 37.7846 115.965 37.7898 116.006C38.9504 127.052 35.6726 141.455 29.64 151.847C26.9739 156.447 21.9867 160.248 17.1616 163.923C10.4441 169.041 4.09773 173.876 4.62572 179.967C4.68322 180.631 4.80868 181.049 4.90801 181.279C5.14325 181.08 5.46214 180.735 5.69738 180.484C6.16787 179.977 6.70109 179.402 7.365 178.947C9.53969 177.442 12.7651 177.693 15.2117 179.564C16.8532 180.824 17.9405 182.528 18.9076 184.034L19.2736 184.604C24.2084 192.189 33.958 200.621 45.2079 199.44C48.4647 199.095 51.5908 197.986 54.8999 196.81C56.7714 196.146 58.7108 195.456 60.6869 194.912C65.5538 193.574 70.8755 192.529 77.6976 195.66L87.1439 199.539L105.864 204.782L105.869 204.787Z" fill="black"/>
<path d="M216.484 67.9396C211.21 90.4446 190.445 106.054 167.867 103.477C146.837 101.078 136.094 85.2536 136.094 85.2536C140.621 62.5865 166.984 8.21912 187.366 17.6341C200.99 23.9282 222.486 42.366 216.49 67.9396H216.484Z" fill="#BC3939"/>
<path d="M172.75 105.328C171.072 105.328 169.388 105.234 167.689 105.04C146.188 102.583 135.252 86.8115 134.797 86.1371C134.562 85.7869 134.473 85.3634 134.557 84.9505C138.274 66.3244 156.392 26.3748 174.841 16.9912C179.535 14.6022 183.974 14.3408 188.025 16.2123C196.53 20.1382 204.952 27.023 210.551 34.6292C218.173 44.98 220.755 56.6271 218.016 68.3004C212.893 90.1624 193.932 105.328 172.755 105.328H172.75ZM137.766 84.8877C139.816 87.5695 150.13 99.8754 168.04 101.919C189.619 104.387 209.788 89.624 214.952 67.579C217.509 56.6742 215.177 46.2085 208.015 36.485C202.72 29.2866 194.748 22.773 186.702 19.0561C183.524 17.5871 180.105 17.8224 176.252 19.7828C168.73 23.6094 160.104 33.9862 151.965 49.0052C145.341 61.2274 139.816 75.2061 137.761 84.8825L137.766 84.8877Z" fill="black"/>
<path d="M208.324 59.7794C203.797 82.4464 182.013 99.039 159.67 96.8433C137.327 94.6477 122.878 74.49 127.405 51.8229C131.932 29.1559 153.716 12.5634 176.059 14.759C198.402 16.9546 212.851 37.1124 208.324 59.7794Z" fill="#F49A9A"/>
<path d="M163.638 98.605C162.268 98.605 160.894 98.5371 159.519 98.4012C148.488 97.3138 138.906 91.9869 132.539 83.4031C125.915 74.4691 123.547 63.1408 125.868 51.5145C130.542 28.1156 153.125 10.9324 176.216 13.2012C187.246 14.2885 196.828 19.6155 203.196 28.1993C209.819 37.1333 212.187 48.4616 209.866 60.0878C205.475 82.091 185.239 98.605 163.638 98.605ZM172.075 16.1339C151.928 16.1339 133.051 31.5659 128.947 52.1314C126.799 62.8794 128.974 73.3242 135.064 81.5421C140.893 89.4096 149.691 94.2923 159.832 95.2855C181.36 97.3975 202.427 81.3382 206.792 59.4762C208.941 48.7282 206.766 38.2834 200.676 30.0708C194.847 22.2032 186.049 17.3205 175.907 16.3221C174.627 16.1966 173.351 16.1339 172.075 16.1339Z" fill="black"/>
<path d="M201.173 59.0789C197.545 77.2606 180.069 90.5754 162.143 88.8137C144.217 87.052 132.628 70.8777 136.261 52.696C139.889 34.5143 157.365 21.1995 175.291 22.9612C193.216 24.7229 204.806 40.8972 201.173 59.0789Z" fill="#ED5656"/>
<path d="M164.464 90.9728C163.34 90.9728 162.217 90.9205 161.087 90.8055C152.002 89.9116 144.103 85.5204 138.854 78.4369C133.397 71.0764 131.447 61.7555 133.355 52.1942C137.181 33.014 155.703 18.9203 174.643 20.7918C183.728 21.6857 191.627 26.0769 196.876 33.1604C202.333 40.5209 204.283 49.8418 202.375 59.4031C198.773 77.4385 182.181 90.9728 164.464 90.9728ZM171.239 24.8066C155.462 24.8066 140.679 36.8981 137.464 53.0149C135.791 61.4053 137.479 69.5499 142.221 75.9486C146.758 82.0701 153.601 85.8654 161.5 86.6443C178.349 88.3015 194.853 75.7133 198.277 58.5824C199.95 50.192 198.261 42.0474 193.52 35.6487C188.982 29.5272 182.134 25.7319 174.24 24.953C173.236 24.8537 172.238 24.8066 171.239 24.8066Z" fill="black"/>
<path d="M172.101 56.1148L183.336 45.7066C184.956 44.2062 185.165 41.7754 183.806 40.2803C182.447 38.7852 180.037 38.7799 178.416 40.2803L167.182 50.6885L157.757 40.2803C156.398 38.7799 153.988 38.7799 152.367 40.2803C150.747 41.7806 150.537 44.2115 151.897 45.7066L161.322 56.1148L150.088 66.523C148.467 68.0233 148.258 70.4542 149.617 71.9493C150.977 73.4496 153.387 73.4496 155.007 71.9493L166.241 61.5411L175.667 71.9493C177.026 73.4496 179.436 73.4496 181.056 71.9493C182.677 70.449 182.886 68.0181 181.527 66.523L172.101 56.1148Z" fill="#ED5656"/>
<path d="M178.255 75.1644C178.171 75.1644 178.087 75.1644 177.999 75.1592C176.488 75.0912 175.102 74.4535 174.109 73.3504L166.106 64.5105L156.424 73.4811C155.196 74.6155 153.565 75.2219 151.954 75.1592C150.444 75.0912 149.058 74.4535 148.065 73.3504C145.943 71.0085 146.215 67.255 148.666 64.9862L158.384 55.9842L150.35 47.1077C148.227 44.7657 148.499 41.0123 150.951 38.7435C152.179 37.6091 153.805 36.9975 155.42 37.0654C156.931 37.1334 158.316 37.7711 159.31 38.8742L167.313 47.7141L176.995 38.7435C178.223 37.6091 179.839 36.9975 181.464 37.0654C182.975 37.1334 184.361 37.7711 185.354 38.8742C187.476 41.2162 187.204 44.9696 184.753 47.2384L175.034 56.2404L183.069 65.1169C185.192 67.4589 184.92 71.2123 182.468 73.4811C181.308 74.558 179.781 75.1644 178.249 75.1644H178.255ZM166.242 59.4502C166.273 59.4502 166.304 59.4502 166.336 59.4502C166.895 59.4763 167.418 59.722 167.794 60.135L177.22 70.5432C177.523 70.883 177.915 70.9666 178.192 70.9771C178.699 71.0032 179.227 70.7941 179.635 70.4125C180.398 69.7015 180.56 68.5619 179.98 67.9241L170.554 57.5159C169.786 56.6691 169.843 55.3569 170.685 54.578L181.919 44.1698C182.688 43.4588 182.845 42.3192 182.264 41.6814C181.961 41.3416 181.569 41.258 181.292 41.2475C180.801 41.2266 180.262 41.4305 179.849 41.8121L168.615 52.2203C168.207 52.602 167.658 52.8058 167.104 52.7745C166.545 52.7483 166.022 52.5026 165.646 52.0896L156.22 41.6814C155.917 41.3416 155.525 41.258 155.248 41.2475C154.751 41.2266 154.218 41.4305 153.805 41.8121C153.042 42.5231 152.885 43.6627 153.46 44.3005L162.885 54.7087C163.654 55.5556 163.596 56.8677 162.755 57.6466L151.521 68.0548C150.752 68.7658 150.595 69.9054 151.176 70.5432C151.479 70.883 151.871 70.9666 152.148 70.9771C152.65 71.0032 153.183 70.7941 153.591 70.4125L164.825 60.0043C165.212 59.6436 165.719 59.4449 166.247 59.4449L166.242 59.4502Z" fill="black"/>
</g>
<defs>
<clipPath id="clip0_2240_974">
<rect width="221.176" height="240" fill="white" transform="translate(0.412109)"/>
</clipPath>
</defs>
</svg>
