<svg viewBox="0 0 299 418" fill="none" xmlns="http://www.w3.org/2000/svg">
<path d="M73.5522 119.38C60.5262 93.2016 18.7506 93.2292 5.71777 119.38C5.71777 67.7536 51.2714 25.9033 107.466 25.9033C163.661 25.9033 209.214 67.7536 209.214 119.374C196.188 93.1947 154.413 93.2223 141.38 119.374C128.354 93.1947 86.5782 93.2223 73.5454 119.374L73.5522 119.38Z" fill="#FFF7AE"/>
<path d="M201.862 85.2936C183.318 89.9199 164.048 90.8024 145.029 90.5956C127.287 90.3956 109.511 89.6165 91.9258 87.0931C75.8285 84.7834 59.7447 80.95 45.054 73.7107C38.6055 70.5322 32.5512 66.6782 26.9997 62.2104C13.6611 78.0198 5.71777 97.8625 5.71777 119.415C18.7506 93.2638 60.5262 93.2362 73.5522 119.415C86.585 93.2638 128.361 93.2362 141.387 119.415C154.419 93.2638 196.195 93.2362 209.221 119.415C209.221 107.343 206.727 95.8079 202.195 85.2178C202.086 85.2453 201.977 85.2798 201.869 85.3074L201.862 85.2936Z" fill="#FFD400"/>
<path d="M182.014 417C234.47 417 276.994 414.163 276.994 410.664C276.994 407.164 234.47 404.328 182.014 404.328C129.558 404.328 87.0337 407.164 87.0337 410.664C87.0337 414.163 129.558 417 182.014 417Z" fill="#D6D6D6"/>
<path d="M223.796 375.17C223.919 375.191 224.055 375.219 224.177 375.246C224.143 375.26 224.102 375.267 224.075 375.281C223.987 375.239 223.885 375.205 223.79 375.177L223.796 375.17Z" fill="black"/>
<path d="M186.975 152.557C187.477 154.136 187.464 156.039 186.893 157.901C186.315 159.769 185.242 161.327 183.944 162.327C182.639 163.327 181.015 163.816 179.439 163.306C177.856 162.796 176.803 161.458 176.306 159.879C175.804 158.3 175.81 156.397 176.388 154.536C176.966 152.661 178.039 151.102 179.344 150.11C180.648 149.11 182.266 148.62 183.849 149.131C185.439 149.641 186.492 150.985 186.988 152.557H186.975Z" fill="black"/>
<path d="M159.468 149.862C159.577 151.316 159.21 152.957 158.422 154.481C157.627 156.018 156.519 157.218 155.317 157.887C154.121 158.569 152.755 158.763 151.6 158.073C150.444 157.384 149.874 156.039 149.772 154.591C149.67 153.143 150.03 151.496 150.818 149.972C151.613 148.441 152.721 147.242 153.924 146.573C155.119 145.89 156.485 145.697 157.64 146.387C158.796 147.076 159.366 148.421 159.468 149.862Z" fill="black"/>
<path d="M136.039 155.701C135.883 155.949 135.733 156.204 135.57 156.453C135.693 156.184 135.842 155.936 136.039 155.701Z" fill="black"/>
<path d="M108.662 245.731L108.343 246.151C107.962 249.564 106.862 253.067 105.258 256.624L104.212 256.148C96.9409 250.922 87.0746 242.704 84.3498 235.313C81.6318 227.929 82.2094 219.111 86.8164 212.761C91.4166 206.404 99.7812 203.398 106.991 206.356C105.013 207.914 103.301 209.865 101.901 211.961C98.9047 216.498 97.1856 222.013 97.7088 227.446C98.3407 233.906 102.085 239.739 106.814 244.117C107.412 244.669 108.03 245.207 108.662 245.724V245.731Z" fill="white"/>
<path d="M73.4506 315.898C73.1584 314.891 72.9953 313.843 72.9478 312.788C72.9817 312.533 73.0361 312.285 73.0904 312.037C73.0565 313.416 73.1856 314.705 73.4506 315.898Z" fill="black"/>
<path d="M70.8276 317.194C72.1119 298.034 96.37 276.405 105.251 256.631C106.855 253.074 107.955 249.571 108.336 246.159L108.655 245.738C108.023 245.221 107.405 244.683 106.807 244.132C102.085 239.753 98.3337 233.921 97.7018 227.46C97.1786 222.027 98.8977 216.512 101.894 211.975C103.294 209.872 105 207.928 106.984 206.37C109.246 204.563 111.842 203.246 114.676 202.743C115.647 202.571 116.619 202.495 117.598 202.495L118.916 201.757C122.096 190.023 125.31 177.281 130.379 166.25C131.799 163.154 133.382 160.107 135.135 157.184C135.135 158.004 135.366 158.831 135.842 159.493C136.943 161.01 139.056 161.589 140.83 161.065C142.617 160.541 144.03 159.038 144.723 157.294C145.267 155.894 145.389 154.288 144.859 152.874C144.336 151.468 143.126 150.296 141.679 149.993C140.381 149.724 140.021 151.158 137.466 153.488C141.523 147.448 146.381 142.009 152.177 137.699C165.38 127.868 182.891 124.648 198.913 128.04C208.983 130.177 218.673 134.9 225.774 142.443C235.905 153.205 239.907 168.725 239.697 183.597C239.622 188.568 239.228 193.594 238.589 198.627C236.17 217.553 239.289 237.161 248.897 253.57C257.69 268.587 265.626 282.831 280.528 295.807C285.189 299.868 290.122 304.101 292.263 309.947C293.391 313.036 293.547 316.421 292.868 319.634C291.855 324.481 288.974 328.949 284.761 331.479C284.55 331.603 284.34 331.728 284.122 331.845C281.234 333.389 277.042 332.969 273.114 331.941C270.424 331.231 267.318 335.044 268.501 337.602C268.806 338.27 269.065 338.905 269.255 339.491C269.656 340.718 269.982 341.966 270.227 343.235C270.988 346.978 271.09 350.853 270.492 354.631C268.956 364.167 262.908 372.847 254.557 377.501C240.906 385.112 223.477 381.41 213.522 372.771C211.96 371.42 210.519 369.972 209.167 368.483L208.922 368.469C197.119 378.094 179.636 377.37 168.173 366.6C162.478 361.257 157.131 355.024 151.586 351.818L151.572 351.839C143.792 347.654 135.298 349.95 127.817 353.294C120.329 356.638 111.482 359.278 104.307 353.259C99.9645 349.612 97.1922 343.51 93.917 338.229C90.6418 332.948 86.0076 327.977 81.156 328.59C78.7438 328.887 76.3044 330.542 73.9873 329.17C70.8208 327.281 70.5286 321.586 70.8276 317.214V317.194ZM224.177 375.239C224.055 375.212 223.919 375.184 223.796 375.164C223.885 375.198 223.987 375.233 224.082 375.267C224.109 375.253 224.15 375.246 224.184 375.232L224.177 375.239ZM186.893 157.894C187.464 156.032 187.477 154.129 186.974 152.55C186.472 150.978 185.425 149.627 183.835 149.124C182.259 148.62 180.635 149.103 179.337 150.103C178.025 151.096 176.959 152.654 176.381 154.522C175.81 156.391 175.797 158.294 176.299 159.872C176.802 161.451 177.849 162.796 179.432 163.299C181.008 163.809 182.632 163.32 183.937 162.32C185.242 161.32 186.308 159.762 186.886 157.894H186.893ZM158.422 154.481C159.21 152.957 159.57 151.316 159.468 149.862C159.373 148.421 158.796 147.076 157.64 146.387C156.485 145.697 155.119 145.89 153.917 146.573C152.721 147.248 151.606 148.448 150.811 149.972C150.023 151.496 149.663 153.143 149.765 154.591C149.867 156.039 150.438 157.384 151.593 158.073C152.748 158.762 154.114 158.563 155.31 157.887C156.506 157.211 157.62 156.012 158.415 154.481H158.422Z" fill="white"/>
<path d="M284.048 305.473C284.34 304.294 284.489 303.142 284.829 302.088C285.101 301.398 285.312 300.715 286.059 300.612C287.017 300.529 288.75 301.86 290.326 304.011C292.684 307.21 293.731 311.25 293.105 315.304C292.242 321.02 289.008 326.901 283.783 329.452C281.112 330.893 274.786 331.328 272.095 332.451C262.188 337.222 279.971 356.7 260.625 373.688C253.117 380.934 244.494 383.361 234.444 381.803C228.485 381.1 222.913 378.728 217.64 375.956C215.255 374.681 212.931 373.433 210.56 372.84C205.579 371.378 200.7 373.543 195.855 374.908C190.277 376.377 184.284 376.025 178.888 373.998C168.832 370.137 162.247 360.505 153.475 354.549C147.625 350.46 140.157 349.598 133.369 351.48C127.532 352.942 122.205 355.934 116.116 356.472C109.811 357.217 103.586 354.666 99.5976 349.729C95.6158 345.096 93.19 338.863 88.9499 334.561C87.3055 332.851 85.4097 331.431 83.2829 330.397C81.156 329.156 73.4233 328.487 73.4233 328.487C73.4233 328.487 77.2897 324.557 78.4992 324.005C80.9114 322.923 84.1187 322.716 86.8027 323.413C98.1299 326.198 101.521 337.216 109.634 343.248C118.739 349.584 129.339 342.897 138.112 339.098C144.254 336.34 151.396 335.485 157.613 338.477C166.318 342.276 172.786 350.474 181.871 353.232C186.275 354.376 190.059 351.922 193.613 349.467C196.915 347.151 200.782 345.42 204.852 345.944C215.989 346.923 224.102 362.498 236.157 363.484C244.44 364.111 249.094 357.01 249.848 349.371C250.868 342.573 248.68 335.168 250.168 328.935C251.914 321.144 259.409 316.339 266.856 315.36C274.073 314.25 282.526 314.119 284.041 305.604L284.068 305.487H284.054L284.048 305.473Z" fill="#E3E3FC"/>
<path d="M144.873 152.854C145.396 154.267 145.28 155.873 144.737 157.273C144.051 159.017 142.63 160.52 140.843 161.044C139.07 161.562 136.957 160.982 135.856 159.472C135.373 158.811 135.142 157.983 135.149 157.163C135.285 156.921 135.434 156.68 135.577 156.453C135.733 156.198 135.89 155.942 136.046 155.701C136.522 154.95 136.997 154.198 137.493 153.467C140.048 151.137 140.408 149.703 141.706 149.972C143.154 150.268 144.363 151.447 144.886 152.854H144.873Z" fill="#E3E3FC"/>
<path d="M165.679 220.594C153.658 215.092 141.618 209.583 129.196 205.101C125.86 203.902 122.381 202.757 118.875 202.53C118.447 202.502 118.025 202.488 117.597 202.488C116.619 202.488 115.647 202.564 114.675 202.736C111.842 203.24 109.246 204.557 106.984 206.363C105.006 207.921 103.294 209.872 101.894 211.968C98.8975 216.505 97.1783 222.021 97.7016 227.454C98.3335 233.914 102.078 239.74 106.807 244.125C107.405 244.676 108.023 245.214 108.655 245.731C112.983 249.296 117.985 252.04 123.149 254.818L132.064 258.417" stroke="black" stroke-width="8" stroke-linecap="round" stroke-linejoin="round"/>
<path d="M106.991 206.363C99.7812 203.405 91.4166 206.418 86.8164 212.768C82.2094 219.118 81.6318 227.936 84.3498 235.32C87.0678 242.711 96.9409 250.923 104.212 256.156" stroke="black" stroke-width="8" stroke-linecap="round" stroke-linejoin="round"/>
<path d="M136.032 155.701C136.508 154.949 136.984 154.198 137.48 153.467C141.536 147.427 146.395 141.988 152.191 137.678C165.393 127.847 182.904 124.627 198.927 128.019C208.997 130.156 218.686 134.879 225.787 142.422C235.919 153.184 239.921 168.704 239.71 183.576C239.635 188.547 239.241 193.573 238.603 198.606C236.184 217.532 239.302 237.14 248.911 253.549C257.703 268.566 265.64 282.81 280.541 295.786C285.203 299.847 290.136 304.08 292.276 309.926C293.404 313.015 293.56 316.4 292.881 319.613C291.869 324.46 288.987 328.928 284.775 331.458C284.564 331.582 284.353 331.706 284.136 331.824C281.248 333.368 277.055 332.948 273.128 331.92C270.437 331.21 267.332 335.023 268.514 337.581C268.82 338.249 269.078 338.884 269.268 339.47C269.669 340.697 269.995 341.945 270.24 343.214C271.001 346.957 271.103 350.832 270.505 354.61C268.969 364.146 262.922 372.826 254.571 377.48C240.92 385.091 223.491 381.389 213.536 372.75C211.973 371.399 210.533 369.951 209.18 368.462" stroke="black" stroke-width="8" stroke-linecap="round" stroke-linejoin="round"/>
<path d="M118.922 201.751C122.102 190.016 125.316 177.275 130.386 166.243C131.806 163.148 133.389 160.1 135.142 157.177C135.278 156.936 135.427 156.694 135.57 156.46" stroke="black" stroke-width="8" stroke-linecap="round" stroke-linejoin="round"/>
<path d="M255.821 325.612C246.723 317.704 238.677 308.555 231.978 298.475" stroke="black" stroke-width="6" stroke-linecap="round" stroke-linejoin="round"/>
<path d="M151.579 351.818C143.799 347.633 135.305 349.929 127.824 353.273C120.336 356.617 111.489 359.257 104.313 353.238C99.9714 349.591 97.199 343.489 93.9238 338.208C90.6486 332.927 86.0144 327.956 81.1628 328.569C78.7506 328.866 76.3112 330.521 73.9941 329.149C70.8276 327.259 70.5355 321.565 70.8344 317.193C72.1187 298.033 96.3768 276.405 105.258 256.631C106.861 253.073 107.962 249.571 108.343 246.158" stroke="black" stroke-width="8" stroke-linecap="round" stroke-linejoin="round"/>
<path d="M151.593 351.798C157.137 355.004 162.492 361.243 168.179 366.58C179.642 377.349 197.126 378.073 208.929 368.448" stroke="black" stroke-width="8" stroke-linecap="round" stroke-linejoin="round"/>
<path d="M97.6201 320.186C97.2396 312.919 97.7628 305.604 99.1965 298.468" stroke="black" stroke-width="6" stroke-linecap="round" stroke-linejoin="round"/>
<path d="M191.072 350.433C198.458 352.253 203.235 360.974 210.227 368.641" stroke="black" stroke-width="6" stroke-linecap="round" stroke-linejoin="round"/>
<path d="M126.526 256.976C125.181 261.099 124.216 265.45 124.725 269.766C125.235 274.075 127.416 278.363 131.133 280.507C135.557 283.058 141.224 282.141 145.763 279.804C150.295 277.467 154.08 273.895 158.585 271.082C159.855 279.584 163.858 287.698 170.089 293.524C176.326 299.337 184.793 302.742 193.253 302.405C201.713 302.067 210.036 297.882 215.398 291.063" stroke="black" stroke-width="8" stroke-linecap="round" stroke-linejoin="round"/>
<path d="M201.611 167.65C201.645 169.339 201.4 171.063 200.639 172.559C199.871 174.055 198.533 175.303 196.915 175.696C194.836 176.199 192.587 175.172 191.242 173.49C189.896 171.794 189.38 169.546 189.427 167.374C189.468 165.678 189.849 163.947 190.8 162.548C191.751 161.148 193.328 160.135 195.006 160.142C196.847 159.714 198.859 160.679 200.007 162.217C201.162 163.741 201.577 165.733 201.611 167.657V167.65Z" fill="#E3E3FC"/>
<path d="M41.5616 116.816C41.9557 115.843 43.3147 115.843 43.7088 116.816L45.2445 120.621C45.7133 121.787 46.6306 122.717 47.779 123.193L51.5298 124.751C52.4879 125.151 52.4879 126.53 51.5298 126.93L47.779 128.488C46.6306 128.964 45.7133 129.895 45.2445 131.06L43.7088 134.866C43.3147 135.838 41.9557 135.838 41.5616 134.866L40.0259 131.06C39.5571 129.895 38.6397 128.964 37.4914 128.488L33.7405 126.93C32.7824 126.53 32.7824 125.151 33.7405 124.751L37.4914 123.193C38.6397 122.717 39.5571 121.787 40.0259 120.621L41.5616 116.816Z" fill="#D6D6D6"/>
<path d="M84.696 141.747C85.0221 140.933 86.1569 140.933 86.483 141.747L87.7605 144.912C88.1546 145.884 88.9156 146.656 89.8669 147.049L92.9858 148.345C93.7876 148.676 93.7876 149.827 92.9858 150.158L89.8669 151.455C88.9088 151.854 88.1478 152.627 87.7605 153.599L86.483 156.763C86.1569 157.577 85.0221 157.577 84.696 156.763L83.4185 153.599C83.0244 152.627 82.2634 151.854 81.3121 151.455L78.1932 150.158C77.3913 149.827 77.3913 148.676 78.1932 148.345L81.3121 147.049C82.2701 146.649 83.0312 145.877 83.4185 144.912L84.696 141.747Z" fill="#D6D6D6"/>
<path d="M124.596 126.371C124.882 125.661 125.867 125.661 126.152 126.371L127.267 129.129C127.606 129.977 128.272 130.646 129.108 130.998L131.826 132.128C132.526 132.418 132.526 133.418 131.826 133.707L129.108 134.838C128.272 135.183 127.613 135.858 127.267 136.706L126.152 139.464C125.867 140.168 124.882 140.168 124.596 139.464L123.482 136.706C123.142 135.858 122.476 135.19 121.64 134.838L118.922 133.707C118.222 133.418 118.222 132.418 118.922 132.128L121.64 130.998C122.476 130.653 123.135 129.977 123.482 129.129L124.596 126.371Z" fill="#D6D6D6"/>
<path d="M84.7099 177.599C84.9342 177.04 85.7156 177.04 85.9398 177.599L86.8232 179.784C87.095 180.453 87.6182 180.991 88.2773 181.26L90.4313 182.156C90.9817 182.383 90.9817 183.176 90.4313 183.404L88.2773 184.3C87.6182 184.576 87.095 185.107 86.8232 185.776L85.9398 187.961C85.7156 188.52 84.9342 188.52 84.7099 187.961L83.8266 185.776C83.5548 185.107 83.0316 184.576 82.3725 184.3L80.2185 183.404C79.6681 183.176 79.6681 182.383 80.2185 182.156L82.3725 181.26C83.0316 180.984 83.5548 180.453 83.8266 179.784L84.7099 177.599Z" fill="#D6D6D6"/>
<path d="M53.8806 155.798C54.0641 155.343 54.7028 155.343 54.8863 155.798L55.6066 157.584C55.8308 158.128 56.2589 158.569 56.7957 158.79L58.5556 159.521C59.0041 159.707 59.0041 160.355 58.5556 160.541L56.7957 161.272C56.2589 161.5 55.824 161.934 55.6066 162.479L54.8863 164.264C54.7028 164.719 54.0641 164.719 53.8806 164.264L53.1604 162.479C52.9361 161.934 52.5081 161.493 51.9713 161.272L50.2114 160.541C49.7629 160.355 49.7629 159.707 50.2114 159.521L51.9713 158.79C52.5081 158.563 52.9429 158.128 53.1604 157.584L53.8806 155.798Z" fill="#D6D6D6"/>
<path d="M106.637 99.7656V206.501" stroke="black" stroke-width="8" stroke-linecap="round" stroke-linejoin="round"/>
<path d="M107 7L107 26" stroke="black" stroke-width="8" stroke-linecap="round" stroke-linejoin="round"/>
<path d="M73.5522 119.38C60.5262 93.2016 18.7506 93.2292 5.71777 119.38C5.71777 67.7536 51.2714 25.9033 107.466 25.9033C163.661 25.9033 209.214 67.7536 209.214 119.374C196.188 93.1947 154.413 93.2223 141.38 119.374C128.354 93.1947 86.5782 93.2223 73.5454 119.374L73.5522 119.38Z" stroke="black" stroke-width="8" stroke-linecap="round" stroke-linejoin="round"/>
<path d="M141.359 119.38C141.359 119.38 155.452 56.4257 107.466 25.9102" stroke="black" stroke-width="8" stroke-linecap="round" stroke-linejoin="round"/>
<path d="M73.8034 119.38C73.8034 119.38 59.4796 56.4257 107.466 25.9102" stroke="black" stroke-width="8" stroke-linecap="round" stroke-linejoin="round"/>
</svg>
