<svg width="15" height="14" viewBox="0 0 15 14" fill="none" xmlns="http://www.w3.org/2000/svg">
<path fill-rule="evenodd" clip-rule="evenodd" d="M7.0346 0C3.16058 0 0.0288086 3.20832 0.0288086 7.17745C0.0288086 10.3502 2.03544 13.0358 4.81917 13.9864C5.16721 14.0578 5.2947 13.8319 5.2947 13.6419C5.2947 13.4755 5.28322 12.9052 5.28322 12.3109C3.33438 12.7388 2.92855 11.4553 2.92855 11.4553C2.61536 10.6235 2.15131 10.4097 2.15131 10.4097C1.51346 9.97 2.19777 9.97 2.19777 9.97C2.90532 10.0175 3.27659 10.7067 3.27659 10.7067C3.90283 11.7999 4.91195 11.491 5.31793 11.3009C5.37586 10.8374 5.56157 10.5166 5.75875 10.3384C4.20441 10.172 2.56904 9.55409 2.56904 6.79712C2.56904 6.01283 2.84724 5.37117 3.28806 4.87213C3.21851 4.69392 2.97487 3.95703 3.35776 2.97076C3.35776 2.97076 3.94929 2.78059 5.28308 3.70751C5.85412 3.55039 6.44303 3.47047 7.0346 3.4698C7.62614 3.4698 8.22914 3.55307 8.78598 3.70751C10.1199 2.78059 10.7114 2.97076 10.7114 2.97076C11.0943 3.95703 10.8505 4.69392 10.781 4.87213C11.2334 5.37117 11.5002 6.01283 11.5002 6.79712C11.5002 9.55409 9.8648 10.16 8.29884 10.3384C8.5541 10.5641 8.77436 10.9918 8.77436 11.6692C8.77436 12.6317 8.76289 13.4042 8.76289 13.6418C8.76289 13.8319 8.89052 14.0578 9.23841 13.9865C12.0221 13.0357 14.0288 10.3502 14.0288 7.17745C14.0402 3.20832 10.897 0 7.0346 0Z" fill="currentColor"/>
</svg>
