<svg width="197" height="194" viewBox="0 0 197 194" fill="none" xmlns="http://www.w3.org/2000/svg">
<g clip-path="url(#clip0_2846_973)">
<path d="M51.1675 100.688C41.6298 81.8417 11.0447 81.8641 1.49951 100.688C1.49951 63.5259 34.8552 33.3987 76.0015 33.3987C117.148 33.3987 150.504 63.5259 150.504 100.688C140.966 81.8417 110.381 81.8641 100.836 100.688C91.2979 81.8417 60.7127 81.8641 51.1675 100.688Z" fill="#FFF7AE"/>
<path d="M100.817 100.688C100.817 100.688 111.138 55.3648 76.0015 33.3987Z" fill="#FFF7AE"/>
<path d="M51.3549 100.688C51.3549 100.688 40.8687 55.3648 76.0015 33.3987Z" fill="#FFF7AE"/>
<path d="M145.12 76.1528C131.544 79.4816 117.433 80.1212 103.505 79.9678C90.5143 79.8257 77.4974 79.2609 64.623 77.4469C52.8359 75.7863 41.06 73.0223 30.3038 67.8122C25.58 65.5232 21.1485 62.7517 17.0845 59.5352C7.31436 70.9091 1.49951 85.1966 1.49951 100.711C11.0447 81.8865 41.6336 81.8641 51.1675 100.711C60.7127 81.8865 91.3016 81.8641 100.836 100.711C110.381 81.8865 140.97 81.8641 150.504 100.711C150.504 92.0187 148.678 83.7155 145.36 76.0892C145.281 76.1079 145.199 76.1304 145.12 76.1528Z" fill="#FFD631"/>
<path d="M76.0016 34.1842C75.173 34.1842 74.502 33.5147 74.502 32.6881V22.4961C74.502 21.6695 75.173 21 76.0016 21C76.8301 21 77.5012 21.6695 77.5012 22.4961V32.6881C77.5012 33.5147 76.8301 34.1842 76.0016 34.1842Z" fill="black"/>
<path d="M1.49964 102.185C1.38342 102.185 1.26719 102.17 1.15097 102.144C0.476135 101.983 0 101.381 0 100.689C0 62.7595 34.0943 31.903 76.0017 31.903C117.909 31.903 152.003 62.7595 152.003 100.689C152.003 101.381 151.527 101.983 150.852 102.144C150.178 102.305 149.48 101.979 149.165 101.362C145.015 93.1598 136.021 88.0619 125.696 88.0582H125.681C115.341 88.0582 106.336 93.1561 102.174 101.366C101.919 101.871 101.402 102.185 100.836 102.185C100.27 102.185 99.7522 101.867 99.4973 101.362C95.347 93.1598 86.3529 88.0619 76.0279 88.0582H76.0129C65.6729 88.0582 56.6676 93.1561 52.5061 101.366C52.2511 101.871 51.7338 102.185 51.1677 102.185C50.6015 102.185 50.0842 101.867 49.8292 101.362C45.679 93.1598 36.6849 88.0619 26.3599 88.0582H26.3449C16.0049 88.0582 6.99956 93.1561 2.83807 101.366C2.57938 101.878 2.0545 102.185 1.49964 102.185ZM26.3449 85.066H26.3599C36.8274 85.0698 46.0876 89.846 51.1677 97.6892C56.2589 89.8423 65.5342 85.066 76.0129 85.066H76.0279C86.4954 85.0698 95.7556 89.846 100.836 97.6892C105.927 89.8423 115.202 85.066 125.681 85.066H125.696C135.057 85.066 143.459 88.8923 148.76 95.3142C145.716 61.5365 114.246 34.8951 75.9979 34.8951C37.7496 34.8951 6.27973 61.5402 3.23922 95.3217C8.55169 88.8923 16.9684 85.0698 26.3449 85.0698V85.066Z" fill="black"/>
<path d="M100.821 102.185C100.712 102.185 100.6 102.173 100.487 102.147C99.6811 101.964 99.175 101.164 99.3549 100.359C99.3812 100.247 101.863 89.0453 100.086 75.3787C97.7241 57.2088 89.3523 43.5122 75.207 34.6667C74.5059 34.2291 74.2922 33.3052 74.7308 32.6058C75.1695 31.9064 76.0955 31.6932 76.7966 32.1308C91.5568 41.3579 100.641 56.2139 103.07 75.0907C104.896 89.2697 102.384 100.546 102.275 101.021C102.118 101.717 101.499 102.185 100.813 102.185H100.821Z" fill="black"/>
<path d="M51.3515 102.185C50.6692 102.185 50.0506 101.717 49.8931 101.025C49.7844 100.554 47.2312 89.2735 49.0158 75.0944C51.389 56.214 60.4468 41.3579 75.207 32.1309C75.9081 31.6933 76.8341 31.9027 77.2727 32.6059C77.7114 33.309 77.5014 34.2291 76.7966 34.6667C62.6513 43.5123 54.3095 57.2089 52.0001 75.375C50.2642 89.0416 52.7874 100.243 52.8136 100.356C53.0011 101.16 52.495 101.964 51.6889 102.147C51.5764 102.173 51.464 102.185 51.3515 102.185Z" fill="black"/>
<path d="M75.173 199.512C74.3444 199.512 73.6733 198.842 73.6733 198.016V86.5618C73.6733 85.7352 74.3444 85.0657 75.173 85.0657C76.0015 85.0657 76.6726 85.7352 76.6726 86.5618V198.012C76.6726 198.839 76.0015 199.508 75.173 199.508V199.512Z" fill="black"/>
<g opacity="0.3">
<path d="M62.2124 136.648C61.8787 136.648 61.5451 136.54 61.2676 136.311L54.1219 130.518C53.4808 129.998 53.3833 129.055 53.9044 128.412C54.4255 127.772 55.3703 127.675 56.0152 128.195L63.1609 133.989C63.802 134.509 63.8995 135.451 63.3784 136.094C63.0822 136.457 62.6511 136.648 62.2124 136.648Z" fill="white"/>
</g>
<g opacity="0.3">
<path d="M65.7027 132.365C65.0991 132.365 64.5292 131.999 64.3006 131.4L62.1036 125.652C61.8074 124.881 62.1973 124.013 62.9696 123.722C63.7419 123.426 64.6117 123.815 64.9042 124.586L67.1011 130.334C67.3973 131.105 67.0074 131.973 66.2351 132.264C66.0589 132.332 65.8789 132.362 65.7027 132.362V132.365Z" fill="white"/>
</g>
<g opacity="0.3">
<path d="M58.7261 140.93C58.6473 140.93 58.5686 140.923 58.4861 140.912L52.3976 139.935C51.5803 139.805 51.0217 139.038 51.1529 138.222C51.2841 137.407 52.0527 136.846 52.87 136.981L58.9585 137.957C59.7758 138.088 60.3344 138.854 60.2032 139.67C60.0832 140.407 59.4496 140.93 58.7261 140.93Z" fill="white"/>
</g>
<path opacity="0.75" d="M83.3084 184.444C81.79 181.459 80.3916 178.429 79.1693 175.347C76.7549 169.266 75.0266 162.979 74.423 156.396C73.5157 146.481 75.1878 136.184 80.1741 127.559C85.1567 118.934 93.6371 112.149 103.422 110.19C113.207 108.23 124.121 111.529 130.431 119.245C134.577 124.32 136.508 130.723 138.004 137.16C140.081 134.284 142.188 131.195 145.09 129.141C147.988 127.092 151.756 125.966 155.16 126.987C158.564 128.008 161.256 131.595 160.513 135.062C165.841 131.703 173.204 131.726 178.34 135.298C183.48 138.869 186.049 145.751 184.504 151.807C183.574 155.446 181.321 159.216 182.757 162.687C184.721 167.422 192.167 167.927 194.012 172.711C195.2 175.796 193.468 179.136 192.561 182.315C191.657 185.498 192.381 190.338 195.646 190.907L85.749 192.504C84.928 191.741 84.2794 190.836 83.8295 189.859C83.0197 188.128 82.8172 186.179 83.3084 184.444Z" fill="white"/>
<path opacity="0.4" d="M79.1059 147.042C73.501 157.903 82.5063 170.115 87.4776 178.336L100.933 170.119L108.416 168.166L115.622 168.806C115.622 168.806 124.819 164.871 123.139 159.792C121.456 154.713 115.622 158.176 113.56 155.719C111.498 153.258 113.466 142.011 107.554 137.235C97.7689 129.332 84.4821 136.618 79.1022 147.046L79.1059 147.042Z" fill="white"/>
<path opacity="0.4" d="M87.4248 180.636L91.6913 192.437H108.465C108.465 192.437 117.466 193.151 116.289 189.598C115.112 186.045 111.033 188.468 109.589 186.748C108.146 185.027 109.526 177.158 105.39 173.818C98.5484 168.29 87.4323 180.636 87.4323 180.636H87.4248Z" fill="white"/>
<path opacity="0.75" d="M83.8295 189.86L70.0928 189.8C66.3213 180.662 74.2843 178.097 79.1694 175.348C80.3916 178.43 81.79 181.459 83.3084 184.444C82.8173 186.179 83.0197 188.128 83.8295 189.86Z" fill="white"/>
<path d="M195.5 194H89.0407C85.9365 194 83.4808 192.687 82.4648 190.484C81.4901 188.401 81.2764 186.108 81.8612 184.036C82.5998 181.433 84.2306 179.024 86.9937 176.451C94.4432 169.517 104.944 165.922 115.093 166.824C115.918 166.898 116.525 167.624 116.454 168.447C116.379 169.27 115.656 169.876 114.827 169.805C105.514 168.97 95.8791 172.273 89.0445 178.639C86.6975 180.823 85.3329 182.798 84.7518 184.848C84.3656 186.209 84.5268 187.806 85.1904 189.224C85.9515 190.877 88.3321 191.004 89.0445 191.004H191.721C190.514 188.217 190.491 184.122 191.121 181.904C191.324 181.19 191.567 180.472 191.8 179.78C192.598 177.408 193.356 175.168 192.613 173.246C191.878 171.338 189.816 170.179 187.638 168.952C185.134 167.542 182.543 166.083 181.373 163.259C180.099 160.174 181.201 157.002 182.172 154.204C182.506 153.239 182.824 152.33 183.053 151.436C184.44 146.002 182.097 139.73 177.486 136.524C172.871 133.315 166.223 133.233 161.316 136.326C160.806 136.648 160.154 136.633 159.659 136.289C159.164 135.945 158.924 135.339 159.051 134.748C159.591 132.227 157.574 129.268 154.732 128.419C152.086 127.626 148.805 128.352 145.963 130.36C143.481 132.115 141.554 134.796 139.691 137.388L139.226 138.035C138.945 138.424 138.491 138.656 138.008 138.656C137.179 138.656 136.508 137.987 136.508 137.16C136.508 136.805 136.632 136.479 136.838 136.225L137.254 135.645C139.26 132.855 141.337 129.968 144.227 127.922C147.819 125.382 152.071 124.496 155.598 125.554C158.935 126.557 161.44 129.463 162.013 132.586C167.573 130.166 174.321 130.675 179.206 134.071C184.898 138.024 187.676 145.471 185.966 152.177C185.707 153.194 185.355 154.208 185.014 155.188C184.137 157.705 183.312 160.084 184.152 162.118C184.928 163.989 186.963 165.137 189.119 166.349C191.545 167.714 194.297 169.262 195.418 172.176C196.546 175.104 195.538 178.097 194.645 180.737C194.413 181.429 194.192 182.08 194.008 182.727C193.401 184.866 193.704 189.003 194.911 190.593C195.226 191.008 195.436 191.008 195.504 191.008C196.332 191.008 197.003 191.677 197.003 192.504C197.003 193.33 196.332 194 195.504 194H195.5Z" fill="black"/>
<path d="M143.718 148.751C143.26 148.751 142.833 148.471 142.664 148.018C142.447 147.438 142.747 146.791 143.328 146.574C148.228 144.76 152.873 141.966 156.761 138.488C157.222 138.073 157.934 138.114 158.35 138.574C158.767 139.034 158.725 139.745 158.264 140.16C154.11 143.878 149.349 146.743 144.111 148.68C143.984 148.729 143.849 148.751 143.721 148.751H143.718Z" fill="black"/>
<path d="M188.032 169.03C187.897 169.03 187.758 169.004 187.627 168.956C182.982 167.16 178.768 166.36 173.969 166.36C173.347 166.36 172.844 165.859 172.844 165.238C172.844 164.617 173.347 164.116 173.969 164.116C179.056 164.116 183.522 164.961 188.437 166.861C189.014 167.085 189.303 167.736 189.078 168.312C188.905 168.757 188.478 169.03 188.028 169.03H188.032Z" fill="black"/>
<path d="M168.938 186.677C168.315 186.677 167.813 186.176 167.813 185.555C167.813 184.934 168.315 184.433 168.938 184.433H186.172C186.795 184.433 187.297 184.934 187.297 185.555C187.297 186.176 186.795 186.677 186.172 186.677H168.938Z" fill="black"/>
<path d="M83.3084 185.94C82.7611 185.94 82.2362 185.641 81.97 185.121C80.3242 181.885 78.952 178.871 77.7748 175.897C75.0904 169.131 73.5046 162.796 72.9309 156.531C71.9412 145.71 74.0519 135.155 78.877 126.811C84.287 117.442 93.356 110.68 103.13 108.724C113.736 106.599 125.175 110.448 131.597 118.298C135.98 123.662 137.97 130.372 139.47 136.824C139.732 137.961 139.98 139.101 140.227 140.231L140.291 140.526C140.467 141.334 139.954 142.131 139.144 142.307C138.334 142.479 137.535 141.97 137.359 141.162L137.295 140.867C137.052 139.748 136.808 138.623 136.546 137.497C135.128 131.397 133.265 125.079 129.272 120.191C123.536 113.174 113.267 109.745 103.722 111.656C94.7807 113.447 86.4652 119.671 81.4789 128.307C76.9612 136.12 74.9854 146.051 75.9227 156.261C76.4701 162.238 77.9922 168.301 80.5716 174.798C81.7151 177.685 83.0498 180.618 84.6544 183.767C85.0293 184.504 84.7331 185.405 83.9945 185.779C83.7771 185.887 83.5446 185.94 83.3159 185.94H83.3084Z" fill="black"/>
<path d="M83.8298 191.356H74.1084C71.1166 191.356 67.8286 189.504 67.6262 186.075C67.2588 179.881 72.6612 177.068 76.6053 175.019C77.2539 174.682 77.865 174.364 78.4311 174.042C79.1509 173.638 80.0657 173.889 80.4743 174.611C80.8792 175.329 80.628 176.242 79.9045 176.649C79.2971 176.993 78.6635 177.322 77.9924 177.67C73.5273 179.993 70.3855 181.942 70.6217 185.899C70.7154 187.5 72.4888 188.364 74.1084 188.364H83.8298C84.6583 188.364 85.3294 189.033 85.3294 189.86C85.3294 190.686 84.6583 191.356 83.8298 191.356Z" fill="black"/>
<path d="M86.9489 159.325C86.1766 159.325 85.5205 158.734 85.4568 157.948C85.4343 157.649 85.3593 157.357 85.2431 157.088C84.9132 156.329 85.2618 155.45 86.0229 155.121C86.784 154.792 87.665 155.139 87.9949 155.899C88.2461 156.471 88.3961 157.081 88.4486 157.709C88.516 158.532 87.9012 159.254 87.0764 159.321C87.0351 159.321 86.9939 159.325 86.9527 159.325H86.9489Z" fill="black"/>
<path d="M86.9489 159.328C86.1203 159.328 85.4492 158.659 85.4492 157.832C85.4492 157.002 86.1203 156.333 86.9489 156.333C87.7774 156.333 88.4485 157.002 88.4485 157.829C88.4485 158.655 87.7774 159.325 86.9489 159.325V159.328Z" fill="black"/>
<path d="M100.337 154.062C100.835 153.329 101.585 152.798 102.485 152.776C103.389 152.753 104.165 153.247 104.697 153.958C105.229 154.668 105.556 155.629 105.582 156.673C105.608 157.72 105.327 158.696 104.828 159.433C104.33 160.166 103.58 160.697 102.68 160.724C101.776 160.746 101 160.252 100.468 159.542C99.9357 158.831 99.6095 157.87 99.5832 156.823C99.557 155.775 99.8382 154.799 100.337 154.062Z" fill="black"/>
<path d="M85.1119 154.238C85.6406 153.598 86.3791 153.183 87.2002 153.288C88.0212 153.393 88.6586 153.984 89.0522 154.739C89.4459 155.495 89.6183 156.463 89.5171 157.466C89.4196 158.472 89.0597 159.369 88.5274 160.013C87.9987 160.652 87.2602 161.067 86.4391 160.963C85.6181 160.858 84.977 160.267 84.5871 159.512C84.1934 158.756 84.0209 157.787 84.1222 156.781C84.2196 155.779 84.5833 154.877 85.1119 154.238Z" fill="black"/>
<path d="M88.5797 184.298L91.3278 192.122C91.3278 192.122 89.9856 192.504 88.8721 192.504H21.5384L3.61768 147.562H74.1232L85.5242 176.537L88.5797 184.298Z" fill="white"/>
<path d="M73.8644 147.337L21.5083 192.197H91.8338L89.5394 185.304L73.8682 147.337H73.8644Z" fill="#F1F1FF"/>
<path d="M91.7102 194H21.5384C20.9235 194 20.3724 193.626 20.1437 193.057L2.22304 148.115C2.03934 147.655 2.09557 147.132 2.37676 146.724C2.65794 146.312 3.11908 146.069 3.61771 146.069H74.1232C74.7418 146.069 75.2967 146.447 75.5216 147.019L93.1086 191.961C93.2886 192.422 93.2286 192.941 92.9512 193.349C92.67 193.757 92.2088 194 91.714 194H91.7102ZM22.5544 191.008H89.5132L73.096 149.058H5.82592L22.5544 191.008Z" fill="black"/>
</g>
<defs>
<clipPath id="clip0_2846_973">
<rect width="197" height="194" fill="white"/>
</clipPath>
</defs>
</svg>
