<svg width="891" height="439" viewBox="0 0 891 439" fill="none" xmlns="http://www.w3.org/2000/svg">
<g clip-path="url(#clip0_2245_1452)">
<path d="M639.75 307.27V261.31H531.06C526.35 261.31 522.53 257.49 522.53 252.78V189.6L625.52 41.6699H725.57C730.09 41.6699 733.75 45.3299 733.75 49.8499V189.6H754.8C759.51 189.6 763.33 193.42 763.33 198.13V252.78C763.33 257.49 759.51 261.31 754.8 261.31H733.75C733.75 261.31 767.62 276.89 766.13 278.43C764.64 279.97 727.62 315.81 725.22 315.81H648.28C643.57 315.81 639.75 311.99 639.75 307.28V307.27ZM607.92 189.6H647.06V152.52C647.06 145.28 647.22 139.29 647.53 134.54C647.84 129.8 648.31 125.55 648.93 121.81C647.06 126.68 644.78 131.58 642.09 136.51C639.4 141.44 635.44 147.9 630.2 155.89L607.92 189.6Z" fill="#FFD400" stroke="black" stroke-width="8" stroke-linecap="round" stroke-linejoin="round"/>
<path d="M674.61 272.41V226.45H565.92C561.21 226.45 557.39 222.63 557.39 217.92V154.74L660.38 6.81006H760.43C764.95 6.81006 768.61 10.4701 768.61 14.9901V154.74H789.66C794.37 154.74 798.19 158.56 798.19 163.27V217.92C798.19 222.63 794.37 226.45 789.66 226.45H768.61V272.41C768.61 277.12 764.79 280.94 760.08 280.94H683.14C678.43 280.94 674.61 277.12 674.61 272.41ZM642.77 154.74H681.91V117.66C681.91 110.42 682.07 104.43 682.38 99.6801C682.69 94.9401 683.16 90.6901 683.78 86.9501C681.91 91.8201 679.63 96.7201 676.94 101.65C674.25 106.58 670.29 113.04 665.05 121.03L642.77 154.74Z" fill="#FFF7AE" stroke="black" stroke-width="8" stroke-linecap="round" stroke-linejoin="round"/>
<path d="M660.38 6.81006L627.54 38.7601L524.55 186.69L557.39 154.74L660.38 6.81006Z" stroke="black" stroke-width="8" stroke-linecap="round" stroke-linejoin="round"/>
<path d="M674.61 226.45L639.75 261.31" stroke="black" stroke-width="8" stroke-linecap="round" stroke-linejoin="round"/>
<path d="M270.02 180.8C270.02 136.74 280.53 102.06 301.57 76.7802C322.6 51.5002 339.67 28.2002 378.1 13.0302C412.35 -0.489758 453.65 51.4102 474.5 76.5002C495.35 101.59 505.77 136.36 505.77 180.8C505.77 225.24 527.47 234.32 503.68 256.78C478.07 280.95 424.82 323.12 387.99 323.12C351.16 323.12 322.76 310.39 301.67 284.92C280.57 259.45 270.02 224.75 270.02 180.81V180.8ZM365.89 180.8C365.89 200.53 367.67 214.97 371.23 224.15C374.79 233.33 380.37 237.91 387.99 237.91C395.61 237.91 401.16 233.39 404.66 224.33C408.15 215.28 409.9 200.77 409.9 180.79C409.9 160.81 408.15 146.46 404.66 137.35C401.16 128.24 395.61 123.68 387.99 123.68C380.37 123.68 374.63 128.17 371.14 137.16C367.64 146.15 365.9 160.69 365.9 180.79L365.89 180.8Z" fill="#FFD400" stroke="black" stroke-width="8" stroke-linecap="round" stroke-linejoin="round"/>
<path d="M121.22 307.27V261.31H12.53C7.82 261.31 4 257.49 4 252.78V189.6L106.99 41.6699H207.04C211.56 41.6699 215.22 45.3299 215.22 49.8499V189.6H236.27C240.98 189.6 244.8 193.42 244.8 198.13V252.78C244.8 257.49 240.98 261.31 236.27 261.31H215.22C215.22 261.31 249.09 276.89 247.6 278.43C246.11 279.97 209.09 315.81 206.69 315.81H129.75C125.04 315.81 121.22 311.99 121.22 307.28V307.27ZM89.39 189.6H128.53V152.52C128.53 145.28 128.69 139.29 129 134.54C129.31 129.8 129.78 125.55 130.4 121.81C128.53 126.68 126.25 131.58 123.56 136.51C120.87 141.44 116.91 147.9 111.67 155.89L89.39 189.6Z" fill="#FFD400" stroke="black" stroke-width="8" stroke-linecap="round" stroke-linejoin="round"/>
<path d="M304.88 145.94C304.88 101.88 315.39 67.2 336.43 41.92C357.46 16.64 386.27 4 422.85 4C459.43 4 488.51 16.55 509.36 41.64C530.21 66.73 540.63 101.5 540.63 145.94C540.63 190.38 530.21 225.21 509.36 250.43C488.51 275.65 459.67 288.25 422.85 288.25C386.03 288.25 357.62 275.52 336.53 250.05C315.43 224.58 304.88 189.88 304.88 145.94ZM400.75 145.94C400.75 165.67 402.53 180.11 406.09 189.29C409.65 198.47 415.23 203.05 422.85 203.05C430.47 203.05 436.02 198.53 439.52 189.47C443.01 180.42 444.76 165.91 444.76 145.93C444.76 125.95 443.01 111.6 439.52 102.49C436.02 93.38 430.47 88.82 422.85 88.82C415.23 88.82 409.49 93.31 406 102.3C402.5 111.29 400.76 125.83 400.76 145.93L400.75 145.94Z" fill="#FFF7AE" stroke="black" stroke-width="8" stroke-linecap="round" stroke-linejoin="round"/>
<path d="M156.08 272.41V226.45H47.3899C42.6799 226.45 38.8599 222.63 38.8599 217.92V154.74L141.85 6.81006H241.9C246.42 6.81006 250.08 10.4701 250.08 14.9901V154.74H271.13C275.84 154.74 279.66 158.56 279.66 163.27V217.92C279.66 222.63 275.84 226.45 271.13 226.45H250.08V272.41C250.08 277.12 246.26 280.94 241.55 280.94H164.61C159.9 280.94 156.08 277.12 156.08 272.41ZM124.25 154.74H163.39V117.66C163.39 110.42 163.55 104.43 163.86 99.6801C164.17 94.9401 164.64 90.6901 165.26 86.9501C163.39 91.8201 161.11 96.7201 158.42 101.65C155.73 106.58 151.77 113.04 146.53 121.03L124.25 154.74Z" fill="#FFF7AE" stroke="black" stroke-width="8" stroke-linecap="round" stroke-linejoin="round"/>
<path d="M141.85 6.81006L109.01 38.7601L6.02979 186.69L38.8598 154.74L141.85 6.81006Z" stroke="black" stroke-width="8" stroke-linecap="round" stroke-linejoin="round"/>
<path d="M156.08 226.45L121.22 261.31" stroke="black" stroke-width="8" stroke-linecap="round" stroke-linejoin="round"/>
<path d="M274.87 226.45L251.03 250.3" stroke="black" stroke-width="8" stroke-linecap="round" stroke-linejoin="round"/>
<path d="M587.57 413.28C583.52 405.3 579.79 397.2 576.53 388.96C570.09 372.7 565.48 355.89 563.87 338.29C561.45 311.78 565.91 284.25 579.21 261.19C592.5 238.13 615.12 219.99 641.22 214.75C667.32 209.51 696.43 218.33 713.26 238.96C724.32 252.53 729.47 269.65 733.46 286.86C739 279.17 744.62 270.91 752.36 265.42C760.09 259.94 770.14 256.93 779.22 259.66C788.3 262.39 795.48 271.98 793.5 281.25C807.71 272.27 827.35 272.33 841.05 281.88C854.76 291.43 861.61 309.83 857.49 326.02C855.01 335.75 849 345.83 852.83 355.11C858.07 367.77 877.93 369.12 882.85 381.91C886.02 390.16 881.4 399.09 878.98 407.59C876.57 416.1 878.5 429.04 887.21 430.56L594.08 434.83C591.89 432.79 590.16 430.37 588.96 427.76C586.8 423.13 586.26 417.92 587.57 413.28Z" fill="white" fill-opacity="0.75"/>
<path d="M588.96 427.76L552.32 427.6C542.26 403.17 563.5 396.31 576.53 388.96C579.79 397.2 583.52 405.3 587.57 413.28C586.26 417.92 586.8 423.13 588.96 427.76Z" fill="white" fill-opacity="0.75"/>
<g clip-path="url(#clip1_2245_1452)">
<path d="M564 424.88C569.36 423.48 574.1 419.86 576.86 415.06C579.62 410.26 580.36 404.33 578.86 399C583.81 406.1 586.64 414.65 586.92 423.3C586.95 424.16 586.92 425.1 586.39 425.76C585.7 426.61 584.44 426.7 583.34 426.71C576.66 426.8 569.99 426.88 564.01 424.88H564Z" fill="#E3E3FC"/>
</g>
<path d="M622.26 379.67C611.59 385.01 601.24 391.94 594.95 402.07C588.66 412.21 587.35 426.14 594.23 436.84C690.18 431.49 786.33 429.63 882.42 431.25C875.5 425.9 876.36 415.26 878.87 406.89C881.38 398.52 884.83 389.28 881.03 381.4C875.59 370.13 858.77 368.82 852.42 358.05C847.57 349.82 850.65 339.41 853.66 330.35C856.68 321.29 859.33 310.62 853.89 302.78C860.41 311.32 855.83 323.61 850.43 332.9C845.03 342.19 838.73 352.94 842.58 362.97C845.77 371.31 854.9 375.76 859.84 383.19C866.44 393.12 863.58 408.11 854.08 416.08C770.35 419.97 686.48 420.55 602.7 417.81C600.32 417.73 597.71 417.56 595.98 415.93C593.03 413.15 594.47 408.22 596.46 404.68C602.33 394.27 611.32 385.65 622.24 379.67H622.26Z" fill="#E3E3FC"/>
<path d="M672 370.16C646.02 367.83 619.21 377.04 600.14 394.84C594.63 399.98 589.62 406.03 587.57 413.28C586.26 417.92 586.8 423.13 588.96 427.76C591.32 432.89 597.22 434.83 602.86 434.83H740.44H886.81C878.58 434.83 876.57 416.1 878.97 407.59C881.39 399.09 886.01 390.16 882.84 381.91C877.92 369.12 858.06 367.77 852.82 355.11C848.99 345.83 855 335.75 857.48 326.02C861.6 309.83 854.75 291.43 841.04 281.88C827.34 272.33 807.7 272.27 793.49 281.25C795.47 271.98 788.29 262.39 779.21 259.66C770.13 256.93 760.08 259.94 752.35 265.42C744.61 270.91 738.99 279.17 733.45 286.86H733.44" stroke="black" stroke-width="8" stroke-linecap="round" stroke-linejoin="round"/>
<path d="M785.49 292.65C774.76 302.27 762.21 309.84 748.7 314.85" stroke="black" stroke-width="6" stroke-linecap="round" stroke-linejoin="round"/>
<path d="M866.9 369.06C854.41 364.23 842.74 361.92 829.39 361.92" stroke="black" stroke-width="6" stroke-linecap="round" stroke-linejoin="round"/>
<path d="M861.94 416.25H815.97" stroke="black" stroke-width="6" stroke-linecap="round" stroke-linejoin="round"/>
<path d="M735.64 296.71C734.93 293.44 734.22 290.15 733.46 286.86C729.47 269.65 724.32 252.53 713.26 238.96C696.43 218.33 667.32 209.51 641.22 214.75C615.12 219.99 592.5 238.13 579.21 261.19C565.91 284.25 561.45 311.78 563.87 338.29C565.48 355.89 570.09 372.7 576.53 388.96C579.79 397.2 583.52 405.3 587.57 413.28" stroke="black" stroke-width="8" stroke-linecap="round" stroke-linejoin="round"/>
<path d="M576.53 388.96C565.56 395.15 548.77 401.1 549.74 417.41C550.12 423.88 556.55 427.76 563.04 427.76H588.96" stroke="black" stroke-width="8" stroke-linecap="round" stroke-linejoin="round"/>
<path d="M597.28 342.12C597.18 340.89 596.88 339.68 596.39 338.55" stroke="black" stroke-width="8" stroke-linecap="round" stroke-linejoin="round"/>
<path d="M581.357 356.506C584.859 356.308 587.549 353.545 587.367 350.336C587.185 347.127 584.199 344.686 580.697 344.885C577.196 345.084 574.505 347.847 574.687 351.056C574.87 354.265 577.856 356.705 581.357 356.506Z" fill="#E3E3FC"/>
<path d="M670.123 347.622C670.269 343.411 666.275 339.855 661.202 339.679C656.13 339.504 651.9 342.776 651.754 346.987C651.609 351.199 655.603 354.755 660.675 354.93C665.748 355.106 669.978 351.834 670.123 347.622Z" fill="#E3E3FC"/>
<path d="M632.98 332.04C634.31 330.08 636.31 328.66 638.71 328.6C641.12 328.54 643.19 329.86 644.61 331.76C646.03 333.66 646.9 336.23 646.97 339.02C647.04 341.82 646.29 344.43 644.96 346.4C643.63 348.36 641.63 349.78 639.23 349.85C636.82 349.91 634.75 348.58 633.33 346.69C631.91 344.79 631.04 342.22 630.97 339.42C630.9 336.62 631.65 334.01 632.98 332.04Z" fill="black"/>
<path d="M592.37 332.52C593.78 330.81 595.75 329.7 597.94 329.98C600.13 330.26 601.83 331.84 602.88 333.86C603.93 335.88 604.39 338.47 604.12 341.15C603.86 343.84 602.89 346.25 601.48 347.96C600.07 349.67 598.1 350.78 595.91 350.5C593.72 350.22 592.02 348.64 590.97 346.62C589.92 344.6 589.46 342.01 589.73 339.32C589.99 336.64 590.96 334.23 592.37 332.52Z" fill="black"/>
</g>
<defs>
<clipPath id="clip0_2245_1452">
<rect width="890.81" height="438.83" fill="white"/>
</clipPath>
<clipPath id="clip1_2245_1452">
<rect width="22.92" height="27.75" fill="white" transform="translate(564 399)"/>
</clipPath>
</defs>
</svg>
