<svg viewBox="0 0 158 205" fill="none" xmlns="http://www.w3.org/2000/svg">
<g clip-path="url(#clip0_2271_791)">
<g opacity="0.75">
<path d="M23.9738 62.7271C23.4566 64.8211 22.9933 66.9259 22.573 69.0361C20.1163 81.3088 19.0927 93.9431 19.626 106.48H19.486C18.4569 102.06 15.7793 97.802 13.1932 94.0673C10.6126 90.3326 7.77871 86.7436 5.66677 82.7228C3.55483 78.6967 2.18638 74.1201 2.81134 69.6136C3.44169 65.1125 6.37254 60.768 10.6934 59.3755C14.9065 58.0209 20.2779 60.2876 23.9738 62.7271Z" fill="white"/>
</g>
<g opacity="0.75">
<path d="M145.055 115.86C145.297 117.771 147.28 120.593 148.944 121.559C150.615 122.525 152.473 123.281 153.729 124.743C155.846 127.205 155.636 130.95 154.515 133.999C152.996 138.128 150.017 141.695 146.234 143.924C143.805 145.36 141.03 146.277 138.967 148.199C136.235 150.746 135.222 154.583 133.633 157.967C130.314 165.048 123.817 170.688 116.204 172.437C108.225 174.266 99.718 171.794 92.8326 167.353C92.3531 167.045 91.879 166.727 91.4157 166.397C88.8943 164.67 84.9074 165.976 82.3483 167.649C79.7838 169.317 77.7689 171.724 75.2313 173.435C69.4989 177.305 61.2397 176.905 55.906 172.501C54.3328 171.206 52.9913 169.609 51.2026 168.632C49.4193 167.66 46.9357 167.514 45.5618 169.015C44.883 169.754 44.5597 170.796 43.8001 171.449C41.575 173.349 38.434 170.558 36.9632 168.027C26.118 149.386 20.558 128.084 19.6313 106.48C19.0979 93.943 20.1216 81.3087 22.5783 69.036C22.9986 66.9258 23.4619 64.821 23.9791 62.7269C27.0824 50.0495 31.942 37.7444 39.6624 27.2796C48.6597 15.0825 61.8862 5.56225 76.8422 3.19298C91.7982 0.82371 108.29 6.48513 116.985 18.8982C123.278 27.8895 125.072 39.4282 124.124 50.3625C123.391 58.8519 121.144 67.0985 118.569 75.2425C120.336 80.4668 125.007 84.5631 129.581 87.6393C134.155 90.7156 139.123 93.3655 142.878 97.4025C146.633 101.439 148.998 107.387 147.048 112.546C146.585 113.771 145.9 114.883 145.055 115.86Z" fill="white"/>
</g>
<path d="M151.461 123.108C149.284 121.117 146.078 119.687 145.216 117.01C145.195 117.021 145.179 117.037 145.162 117.053C143.401 118.283 142.522 118.775 140.594 119.692C138.482 120.696 136.348 121.43 133.989 121.527C133.692 121.538 133.38 121.549 133.062 121.565C135.287 122.445 137.345 123.616 138.988 125.348C142.226 128.764 142.786 135.127 138.886 137.756C136.171 139.585 132.421 138.997 129.538 140.551C126.101 142.408 124.867 146.688 124.307 150.563C123.747 154.432 123.407 158.647 120.816 161.573C117.632 165.167 112.045 165.534 107.433 164.195C102.821 162.857 98.7321 160.159 94.2658 158.41C89.7941 156.667 84.4388 155.992 80.4143 158.61C76.1096 161.411 74.1485 167.428 69.2404 168.934C65.3721 170.121 61.3368 167.952 57.9426 165.734C54.5538 163.521 50.804 161.065 46.801 161.664C43.6547 162.134 40.7939 164.476 37.6421 164.039C35.4601 163.737 33.6391 162.101 32.5562 160.18C31.705 158.674 30.4066 157.163 29.6631 155.539C31.3817 160.164 34.4365 164.109 36.8124 168.017C37.8684 169.754 39.2207 171.589 41.2195 171.951C43.4284 172.356 45.7558 170.391 45.7343 168.141C50.1198 168.972 53.4655 171.346 57.0267 173.257C60.5879 175.167 64.6232 176.652 68.61 175.977C76.449 174.649 81.7881 165.469 89.7294 165.755C95.8605 171.158 104.287 173.937 112.33 172.939C120.374 171.94 127.874 167.191 132.221 160.342C134.7 156.435 136.219 151.88 139.355 148.479C143.805 143.655 151.164 141.523 153.939 135.575C155.857 131.474 154.801 126.174 151.455 123.119V123.108H151.461Z" fill="#E3E3FC"/>
<path d="M45.8265 48.1327C46.2075 46.212 44.6451 44.2824 42.3366 43.8228C40.0281 43.3632 37.8478 44.5478 37.4668 46.4685C37.0858 48.3892 38.6482 50.3188 40.9567 50.7784C43.2652 51.238 45.4455 50.0534 45.8265 48.1327Z" fill="#E3E3FC"/>
<path d="M90.7534 49.8926C90.797 47.6188 88.616 45.7329 85.882 45.6803C83.1481 45.6277 80.8964 47.4284 80.8528 49.7022C80.8093 51.976 82.9902 53.862 85.7242 53.9146C88.4582 53.9671 90.7098 52.1665 90.7534 49.8926Z" fill="#E3E3FC"/>
<path d="M72.8178 40.049C73.7121 39.137 74.9136 38.5811 76.1904 38.7862C77.4727 38.9912 78.4371 39.8925 79.0081 41.0421C79.5738 42.1916 79.784 43.638 79.5469 45.1276C79.3098 46.6172 78.6579 47.934 77.7636 48.8461C76.8693 49.7582 75.6678 50.3141 74.391 50.1144C73.1087 49.9093 72.1443 49.0026 71.5786 47.8585C71.0129 46.7089 70.8028 45.2625 71.0399 43.773C71.2769 42.2834 71.9288 40.9665 72.8286 40.0544L72.8178 40.049Z" fill="black"/>
<path d="M49.1446 38.7161C50.0173 37.9227 51.1595 37.4586 52.334 37.723C53.5139 37.9875 54.349 38.8942 54.8015 39.9843C55.2541 41.0799 55.3565 42.4292 55.0494 43.7892C54.7477 45.1492 54.0742 46.3312 53.2014 47.1299C52.3286 47.9233 51.1865 48.3874 50.012 48.123C48.8321 47.8585 47.997 46.9518 47.5444 45.8562C47.0919 44.7607 46.9895 43.406 47.2966 42.046C47.5983 40.6859 48.2718 39.5094 49.1446 38.7107V38.7161Z" fill="black"/>
<path d="M66.2342 178.276C62.0319 178.276 57.8296 176.894 54.5323 174.169C53.9559 173.694 53.4279 173.203 52.9107 172.723C51.9894 171.864 51.122 171.049 50.1684 170.531C49.0424 169.916 47.6847 169.895 47.1459 170.477C46.9897 170.645 46.8227 170.931 46.6449 171.233C46.3109 171.8 45.8906 172.501 45.201 173.095C44.0858 174.045 42.7389 174.417 41.295 174.169C38.6174 173.71 36.2845 171.163 35.0993 169.123C24.5504 150.989 18.4516 129.358 17.4764 106.583C16.9377 93.9754 17.9452 81.2008 20.4612 68.6204C20.903 66.4023 21.3824 64.2489 21.8835 62.2196C25.4501 47.6532 30.6976 35.8069 37.9278 26.006C47.9218 12.4488 61.9834 3.36029 76.503 1.06118C92.989 -1.54555 109.965 5.1197 118.747 17.6569C124.7 26.1625 127.367 37.8415 126.268 50.546C125.487 59.6183 122.976 68.4477 120.622 75.8901C119.884 78.2162 119.113 80.5639 118.365 82.8307L118.327 82.944C117.955 84.0773 116.732 84.6926 115.606 84.3148C114.475 83.9424 113.861 82.7227 114.238 81.5893L114.275 81.476C115.019 79.2201 115.789 76.8886 116.517 74.5841C118.801 67.3683 121.231 58.8195 121.98 50.1682C122.993 38.473 120.595 27.8032 115.224 20.1287C107.363 8.90837 92.0785 2.96092 77.1818 5.31939C63.7721 7.4458 50.7233 15.9136 41.392 28.5587C34.512 37.8901 29.4962 49.2291 26.0697 63.2343C25.5848 65.2041 25.1214 67.2928 24.6904 69.4516C22.2391 81.6919 21.2585 94.1211 21.7811 106.383C22.7293 128.462 28.6234 149.402 38.8221 166.937C39.6841 168.416 41.1172 169.749 42.0223 169.9C42.2109 169.932 42.2809 169.9 42.3995 169.803C42.5503 169.673 42.7497 169.339 42.9436 169.009C43.213 168.556 43.5201 168.043 43.9726 167.547C46.2031 165.113 49.8182 165.415 52.2264 166.732C53.6595 167.514 54.7694 168.551 55.8469 169.555C56.3318 170.008 56.7951 170.44 57.2692 170.828C61.8756 174.633 69.0735 174.978 74.0247 171.638C75.1345 170.888 76.1582 169.97 77.2465 168.999C78.4587 167.908 79.714 166.78 81.174 165.836C84.2988 163.791 89.18 162.247 92.6334 164.622C93.614 165.296 93.8672 166.64 93.1937 167.622C92.5203 168.605 91.1788 168.858 90.1982 168.184C88.7059 167.158 85.6457 168.076 83.5284 169.457C82.3485 170.224 81.2656 171.195 80.1234 172.221C78.9759 173.251 77.7906 174.315 76.4383 175.227C73.4105 177.267 69.8277 178.276 66.245 178.276H66.2342Z" fill="black"/>
<path d="M110.784 175.189C104.492 175.189 97.7787 173.111 91.6638 169.166C91.1465 168.831 90.6401 168.491 90.166 168.157C89.1962 167.466 88.9646 166.122 89.6542 165.145C90.3438 164.174 91.6907 163.942 92.6605 164.632C93.0807 164.929 93.5279 165.232 93.9966 165.534C101.103 170.121 109.028 171.87 115.725 170.332C122.454 168.788 128.569 163.699 131.683 157.05C132.065 156.24 132.41 155.398 132.777 154.513C133.924 151.723 135.115 148.841 137.501 146.617C139.102 145.128 140.955 144.21 142.749 143.32C143.595 142.899 144.392 142.505 145.141 142.062C148.476 140.098 151.159 136.887 152.495 133.249C153.319 130.999 153.653 127.955 152.096 126.147C151.396 125.326 150.286 124.738 149.112 124.107C148.691 123.88 148.271 123.659 147.867 123.421C145.551 122.077 143.239 118.667 142.916 116.125C142.765 114.943 143.6 113.863 144.78 113.712C145.96 113.556 147.037 114.398 147.188 115.579C147.339 116.772 148.902 119.033 150.022 119.681C150.389 119.892 150.766 120.091 151.143 120.296C152.544 121.047 154.133 121.899 155.361 123.324C157.716 126.06 158.157 130.329 156.536 134.733C154.833 139.353 151.563 143.277 147.323 145.775C146.439 146.299 145.529 146.747 144.651 147.184C143.061 147.972 141.564 148.711 140.427 149.769C138.735 151.351 137.771 153.682 136.753 156.148C136.381 157.044 136.004 157.967 135.578 158.874C131.855 166.813 124.792 172.663 116.678 174.525C114.777 174.962 112.799 175.178 110.774 175.178L110.784 175.189Z" fill="black"/>
<path d="M93.1289 168.497C92.811 168.497 92.4931 168.405 92.213 168.211C85.527 163.596 80.0424 157.358 75.1073 151.313C74.5416 150.622 74.644 149.602 75.3336 149.035C76.0232 148.469 77.0415 148.571 77.6072 149.262C82.3914 155.129 87.6928 161.157 94.0448 165.545C94.7775 166.052 94.966 167.061 94.4596 167.795C94.1471 168.249 93.6407 168.497 93.1289 168.497Z" fill="black"/>
<path d="M44.4037 162.652C43.865 162.652 43.3424 162.382 43.0353 161.896C40.4546 157.784 38.2888 153.396 36.6079 148.857C36.2954 148.021 36.721 147.087 37.5615 146.774C38.3966 146.461 39.3286 146.887 39.6411 147.729C41.2466 152.063 43.3101 156.251 45.7776 160.175C46.2517 160.93 46.0254 161.929 45.2711 162.409C45.0018 162.576 44.7055 162.657 44.4145 162.657L44.4037 162.652Z" fill="black"/>
<path d="M130.271 144.351C130.088 144.351 129.899 144.318 129.716 144.254C120.433 140.864 111.975 135.818 104.572 129.25C103.904 128.656 103.84 127.636 104.432 126.962C105.025 126.292 106.043 126.228 106.717 126.821C113.715 133.028 122.05 138.004 130.826 141.21C131.667 141.517 132.098 142.446 131.79 143.287C131.553 143.946 130.934 144.351 130.271 144.351Z" fill="black"/>
<path d="M19.4804 108.645C18.4998 108.645 17.6163 107.97 17.3846 106.977C16.4418 102.913 13.8396 98.7951 11.4205 95.2979C10.7633 94.3426 10.0844 93.4035 9.41097 92.4591C7.43372 89.7012 5.39182 86.8462 3.75938 83.7322C1.09252 78.6482 0.0527136 73.8017 0.677675 69.3223C1.46426 63.6932 5.22481 58.8737 10.0359 57.3248C15.903 55.4413 22.5675 59.2191 25.1643 60.93C26.1556 61.583 26.4304 62.9269 25.7785 63.9199C25.1266 64.9129 23.7905 65.1936 22.7938 64.5351C19.4588 62.3332 14.6962 60.3633 11.3559 61.4373C8.08562 62.4897 5.51035 65.9006 4.95004 69.9213C4.45438 73.4833 5.33795 77.4555 7.57919 81.7245C9.07694 84.5741 10.9464 87.1862 12.9237 89.9495C13.6133 90.9101 14.3029 91.8762 14.971 92.8476C17.7564 96.8684 20.4825 101.245 21.5923 106.005C21.8617 107.166 21.1398 108.326 19.9814 108.596C19.8198 108.634 19.6528 108.655 19.4912 108.655L19.4804 108.645Z" fill="black"/>
<path d="M133.746 122.79C131.015 122.79 128.111 122.277 125.158 121.257C121.091 119.849 117.373 117.701 113.785 115.617C112.756 115.018 112.401 113.701 112.999 112.665C113.597 111.634 114.911 111.278 115.94 111.877C119.356 113.858 122.885 115.903 126.565 117.172C130.503 118.532 134.263 118.829 137.431 118.035C139.802 117.442 141.93 116.162 143.422 114.441C144.128 113.626 144.667 112.73 145.028 111.78C146.795 107.112 144.123 101.909 141.3 98.8706C138.627 95.9994 135.282 93.8676 131.742 91.6116C130.638 90.9046 129.49 90.176 128.375 89.4313C122.028 85.1623 118.149 80.7475 116.522 75.9334C116.14 74.8055 116.743 73.5804 117.869 73.1972C118.995 72.814 120.218 73.4185 120.6 74.5464C121.915 78.4268 125.239 82.1238 130.772 85.8423C131.844 86.5601 132.965 87.2779 134.048 87.9687C137.663 90.2732 141.397 92.6532 144.446 95.9292C149.273 101.121 151.084 107.943 149.052 113.307C148.514 114.738 147.711 116.071 146.671 117.269C144.602 119.654 141.688 121.414 138.471 122.223C136.973 122.601 135.384 122.785 133.735 122.785L133.746 122.79Z" fill="black"/>
<path d="M100.1 204.5C130.861 204.5 155.797 202.279 155.797 199.54C155.797 196.801 130.861 194.58 100.1 194.58C69.3397 194.58 44.4033 196.801 44.4033 199.54C44.4033 202.279 69.3397 204.5 100.1 204.5Z" fill="#D6D6D6"/>
</g>
<defs>
<clipPath id="clip0_2271_791">
<rect width="157" height="204" fill="white" transform="translate(0.5 0.5)"/>
</clipPath>
</defs>
</svg>
