<svg width="272" height="240" viewBox="0 0 272 240" fill="none" xmlns="http://www.w3.org/2000/svg">
<g clip-path="url(#clip0_2240_936)">
<path d="M74.2201 197.839C73.9012 197.933 73.5876 198.036 73.2739 198.155C66.4362 201.982 58.2915 202.913 50.7689 201.062C46.4352 199.996 42.3106 198.005 38.7611 195.114C38.2801 194.721 37.8044 194.312 37.3496 193.888C33.0734 189.926 29.8218 184.811 25.5979 180.776C21.3844 176.737 15.6079 173.768 10.1973 175.439C8.9374 175.826 7.69322 176.463 6.38631 176.354C5.0794 176.245 3.72545 174.973 4.06524 173.602C4.20639 173.044 4.59323 172.599 4.96962 172.18C11.3735 165.011 38.7611 139.461 38.7611 139.461L22.3567 119.842C22.3567 119.842 18.8124 106.162 24.0139 98.8897C29.3827 91.3796 35.6193 93.8933 44.271 95.4295C49.2006 96.3036 53.7591 99.8466 58.2654 102.231C64.1569 89.6625 61.6372 79.5663 67.2464 66.8426C71.9252 56.2241 80.8122 47.8761 91.1786 44.3642C101.545 40.8471 116.454 42.2177 125.89 48.0468C134.573 53.4155 141.155 62.2652 145.3 72.1183C148.228 79.0594 149.503 83.1558 150.544 90.7124C153.403 88.7625 153.999 89.9366 157.256 88.9435C160.507 87.9556 164.109 87.8884 167.178 89.4142C171.637 91.6331 174.303 96.9398 174.768 102.231C175.234 107.522 173.822 112.803 171.946 117.717C170.069 122.625 167.403 128.17 165.84 133.213C168.72 137.024 171.81 140.676 174.502 144.643C178.956 151.222 182.39 159.363 180.953 167.38C179.928 173.127 176.3 178.263 171.454 180.849C167.408 183.006 162.593 183.352 158.301 181.888C156.331 181.216 154.172 181.661 152.509 183C148.541 186.212 145.64 190.666 142.749 195.114C140.559 198.491 138.368 201.863 135.734 204.693C133.664 206.911 131.285 208.742 128.708 210.17C119.528 215.259 107.86 215.239 98.9834 209.425C97.8804 208.701 96.8244 207.905 95.7893 207.072C93.0605 204.884 90.4833 202.458 87.5976 200.524C83.8912 198.041 78.4911 196.639 74.2149 197.839H74.2201Z" fill="white"/>
<path d="M193.53 116.972C193.833 116.242 194.879 116.242 195.182 116.972L196.363 119.827C196.724 120.701 197.43 121.399 198.313 121.756L201.199 122.925C201.936 123.225 201.936 124.259 201.199 124.559L198.313 125.728C197.43 126.085 196.724 126.783 196.363 127.658L195.182 130.513C194.879 131.242 193.833 131.242 193.53 130.513L192.348 127.658C191.988 126.783 191.282 126.085 190.398 125.728L187.513 124.559C186.776 124.259 186.776 123.225 187.513 122.925L190.398 121.756C191.282 121.399 191.988 120.701 192.348 119.827L193.53 116.972Z" fill="#D6D6D6"/>
<path d="M148.572 14.872C148.823 14.2617 149.696 14.2617 149.947 14.872L150.93 17.2461C151.233 17.9754 151.819 18.5547 152.551 18.8495L154.95 19.8219C155.567 20.0701 155.567 20.9339 154.95 21.1822L152.551 22.1545C151.814 22.4545 151.228 23.0338 150.93 23.7631L149.947 26.1371C149.696 26.7475 148.823 26.7475 148.572 26.1371L147.59 23.7631C147.286 23.0338 146.701 22.4545 145.969 22.1545L143.57 21.1822C142.953 20.9339 142.953 20.0701 143.57 19.8219L145.969 18.8495C146.706 18.5495 147.292 17.9702 147.59 17.2461L148.572 14.872Z" fill="#D6D6D6"/>
<path d="M156.717 42.7607C156.889 42.3418 157.491 42.3418 157.663 42.7607L158.343 44.4003C158.552 44.902 158.954 45.3055 159.461 45.5072L161.119 46.1796C161.542 46.3503 161.542 46.9451 161.119 47.1158L159.461 47.7881C158.954 47.995 158.552 48.3933 158.343 48.895L157.663 50.5346C157.491 50.9535 156.889 50.9535 156.717 50.5346L156.037 48.895C155.828 48.3933 155.426 47.995 154.919 47.7881L153.261 47.1158C152.838 46.9451 152.838 46.3503 153.261 46.1796L154.919 45.5072C155.426 45.3003 155.828 44.902 156.037 44.4003L156.717 42.7607Z" fill="#D6D6D6"/>
<path d="M267.245 24.1974C267.386 23.8561 267.877 23.8561 268.018 24.1974L268.573 25.537C268.745 25.9456 269.074 26.2767 269.487 26.4422L270.841 26.9904C271.186 27.1301 271.186 27.6163 270.841 27.7559L269.487 28.3042C269.074 28.4749 268.74 28.8007 268.573 29.2093L268.018 30.5489C267.877 30.8903 267.386 30.8903 267.245 30.5489L266.691 29.2093C266.518 28.8007 266.189 28.4697 265.776 28.3042L264.422 27.7559C264.077 27.6163 264.077 27.1301 264.422 26.9904L265.776 26.4422C266.189 26.2715 266.523 25.9456 266.691 25.537L267.245 24.1974Z" fill="#D6D6D6"/>
<path d="M101.607 240.257C147.198 240.257 184.157 238.129 184.157 235.504C184.157 232.878 147.198 230.75 101.607 230.75C56.0163 230.75 19.0576 232.878 19.0576 235.504C19.0576 238.129 56.0163 240.257 101.607 240.257Z" fill="#D6D6D6"/>
<path d="M172.04 143.738C179.959 149.753 182.767 162.461 178.213 171.704C173.665 180.952 162.358 185.504 153.319 181.707C144.004 188.126 139.618 200.555 130.882 207.868C122.931 214.53 111.592 216.092 102.355 211.804C92.8827 207.408 85.3131 197.379 74.8683 197.115C68.9245 199.386 62.8813 201.62 56.5977 202.132C50.3141 202.649 43.6645 201.268 38.761 196.976C34.9187 193.608 32.6813 188.519 29.0794 184.852C17.8871 173.478 5.93145 176.24 3.55811 173.271C9.76331 165.347 24.0713 152.763 24.0713 152.763C24.0713 152.763 18.2896 164.603 31.1757 172.392C34.2809 175.904 39.0956 176.944 43.5913 176.928C54.9614 176.892 66.4727 171.368 77.3932 174.792C83.1907 176.607 88.0942 180.776 92.5795 185.147C97.0701 189.517 101.362 194.229 106.579 197.519C111.791 200.808 118.221 202.536 123.919 200.389C130.245 198.005 134.327 191.545 138.311 185.71C142.294 179.876 147.318 173.866 153.983 173.188C159.038 172.676 164.135 175.407 169.107 174.306C174.58 173.09 178.501 167.163 178.856 161.122C179.212 155.081 176.52 149.179 172.034 143.728L172.045 143.738H172.04Z" fill="#E3E3FC"/>
<path d="M38.3161 141.141C37.9449 141.141 37.5633 141.043 37.2235 140.836C32.8166 138.152 26.3971 130.973 24.3322 128.03C21.6399 124.192 19.8155 120.603 18.7543 117.039C16.3287 108.913 18.3308 100.555 23.8565 95.7501C29.5494 90.7951 37.0719 89.9003 44.5004 93.2984C49.0223 95.3673 53.1574 97.5965 57.1304 100.121C60.0003 101.941 62.7239 103.917 65.3587 105.831C66.2892 106.508 66.4931 107.801 65.8082 108.722C65.1234 109.643 63.8165 109.839 62.886 109.167C60.3035 107.294 57.6322 105.355 54.872 103.601C51.0611 101.186 47.0933 99.0396 42.7439 97.0535C39.3041 95.4811 32.6337 93.6191 26.6167 98.8586C22.3091 102.608 20.7983 109.286 22.7639 115.87C23.6996 118.999 25.3359 122.206 27.7667 125.671C29.68 128.402 35.7075 135.059 39.4139 137.314C40.3967 137.914 40.7051 139.186 40.0987 140.159C39.7066 140.795 39.0166 141.141 38.3161 141.141Z" fill="black"/>
<path d="M57.2872 203.901C54.5897 203.901 51.8818 203.581 49.2366 202.929C44.5265 201.77 40.0882 199.572 36.4028 196.572C35.8748 196.143 35.3677 195.698 34.892 195.259C32.5866 193.122 30.5739 190.681 28.6293 188.317C26.7996 186.093 25.0745 183.993 23.1141 182.126C18.6811 177.88 13.6991 176.07 9.78887 177.275C9.50135 177.363 9.21906 177.466 8.93677 177.564C7.84942 177.952 6.6157 178.392 5.1781 178.278C3.83459 178.164 2.50155 177.409 1.69649 176.297C0.964622 175.294 0.718923 174.115 1.00122 172.971C1.27828 171.896 1.93173 171.161 2.36563 170.675C4.39395 168.404 7.91738 165.482 12.3818 161.774C22.4136 153.452 36.1518 142.052 42.4877 129.928C43.0157 128.915 44.2808 128.516 45.3054 129.039C46.33 129.561 46.7326 130.813 46.2046 131.826C39.4871 144.685 25.3725 156.395 15.0688 164.939C10.9076 168.389 7.3162 171.368 5.50221 173.406C5.39766 173.525 5.19378 173.752 5.09968 173.892C5.18855 174.001 5.3872 174.135 5.52835 174.146C6.06157 174.192 6.76207 173.934 7.50962 173.665C7.85465 173.54 8.19444 173.421 8.53947 173.313C14.018 171.622 20.3905 173.747 26.0155 179.142C28.1483 181.18 30.0355 183.476 31.8652 185.695C33.8046 188.054 35.6395 190.283 37.741 192.228C38.154 192.61 38.5931 192.993 39.0532 193.366C42.2577 195.978 46.1262 197.891 50.2351 198.905C57.3656 200.658 65.0084 199.676 71.2084 196.205C72.2173 195.641 73.2105 195 74.1463 194.302C75.0716 193.614 76.3785 193.8 77.0738 194.715C77.769 195.631 77.5808 196.924 76.6556 197.612C75.5682 198.419 74.4286 199.158 73.2628 199.805C68.4534 202.5 62.8912 203.891 57.2767 203.891L57.2872 203.901Z" fill="black"/>
<path d="M74.4238 197.602C73.9481 197.602 73.4776 197.389 73.1692 196.981C72.6464 196.298 72.7875 195.326 73.4776 194.808C74.544 194.017 75.5948 193.122 76.6142 192.253C78.1459 190.955 79.7298 189.61 81.4706 188.488C85.1561 186.119 88.9409 185.349 92.1298 186.316C92.9558 186.564 93.4262 187.433 93.1701 188.255C92.9139 189.078 92.0357 189.533 91.2097 189.285C88.1202 188.354 84.8477 190.019 83.1748 191.095C81.6066 192.103 80.169 193.324 78.6529 194.612C77.597 195.512 76.5044 196.438 75.3595 197.291C75.0772 197.503 74.7479 197.602 74.4186 197.602H74.4238Z" fill="black"/>
<path d="M113.286 215.813C107.452 215.813 101.686 214.204 96.8083 211.008C95.7576 210.32 94.6911 209.534 93.4522 208.535C92.5478 207.806 91.6486 207.051 90.7861 206.322C88.9721 204.786 87.2574 203.337 85.4068 202.096C81.8939 199.743 77.1106 198.755 73.7649 199.691C72.6566 200.006 71.4961 199.365 71.1824 198.263C70.8688 197.162 71.5118 196.019 72.6253 195.708C77.2099 194.421 83.1433 195.584 87.7488 198.672C89.7981 200.043 91.68 201.636 93.4992 203.177C94.3461 203.891 95.2191 204.63 96.0817 205.324C97.2161 206.234 98.178 206.948 99.1137 207.558C107.117 212.797 117.928 213.061 126.658 208.22C129.094 206.87 131.29 205.163 133.172 203.141C135.676 200.451 137.751 197.255 139.947 193.867C142.885 189.347 145.906 184.692 150.151 181.252C152.404 179.437 155.316 178.888 157.946 179.783C161.741 181.076 165.923 180.745 169.425 178.878C173.712 176.592 176.943 171.989 177.852 166.868C179.279 158.913 175.306 150.932 171.726 145.641C170 143.097 168.051 140.614 166.163 138.209C165.165 136.936 164.13 135.618 163.131 134.299C162.441 133.383 162.629 132.085 163.555 131.402C164.48 130.719 165.792 130.906 166.482 131.821C167.455 133.114 168.479 134.412 169.467 135.669C171.396 138.126 173.393 140.671 175.202 143.334C179.212 149.257 183.645 158.272 181.977 167.582C180.843 173.918 176.796 179.638 171.412 182.509C166.885 184.924 161.479 185.354 156.586 183.683C155.332 183.259 153.915 183.538 152.796 184.443C149.064 187.464 146.225 191.84 143.475 196.07C141.264 199.474 138.995 202.975 136.24 205.934C134.055 208.277 131.515 210.253 128.697 211.815C123.903 214.473 118.561 215.792 113.275 215.792L113.286 215.813Z" fill="black"/>
<path d="M72.249 200.084C71.4126 200.084 70.6179 199.582 70.2991 198.76C69.8808 197.695 70.4193 196.495 71.4962 196.086C71.8674 195.941 72.2542 195.817 72.6358 195.714C73.7493 195.408 74.8994 196.05 75.2078 197.152C75.5162 198.253 74.868 199.391 73.7545 199.696C73.5036 199.764 73.2474 199.846 73.007 199.945C72.7613 200.038 72.5051 200.084 72.2542 200.084H72.249Z" fill="black"/>
<path d="M159.347 176.281C158.902 176.281 158.458 176.095 158.144 175.728C157.585 175.071 157.668 174.094 158.332 173.54C161.631 170.789 164.491 167.484 166.822 163.723C167.277 162.994 168.239 162.761 168.976 163.211C169.713 163.661 169.948 164.613 169.493 165.342C166.984 169.392 163.91 172.945 160.355 175.914C160.063 176.157 159.702 176.281 159.347 176.281Z" fill="black"/>
<path d="M164.82 135.142C164.616 135.142 164.412 135.111 164.208 135.049C163.105 134.712 162.483 133.559 162.823 132.463C163.837 129.183 165.29 125.739 166.691 122.413C167.512 120.463 168.291 118.622 168.971 116.842C171.177 111.065 172.034 106.436 171.668 102.267C171.224 97.219 168.688 92.8433 165.222 91.1158C162.901 89.9624 159.927 89.8434 156.853 90.7744C155.384 91.2244 153.879 91.9175 152.117 92.9674C151.129 93.5571 149.843 93.2416 149.247 92.2588C148.651 91.2813 148.97 90.0089 149.963 89.4193C152.023 88.1935 153.821 87.3659 155.625 86.8177C159.733 85.5712 163.806 85.7832 167.099 87.4177C171.909 89.8124 175.254 95.3622 175.835 101.905C176.394 108.22 174.418 114.287 172.886 118.301C172.18 120.147 171.355 122.108 170.555 124.001C169.19 127.239 167.779 130.585 166.822 133.668C166.545 134.557 165.719 135.131 164.825 135.131L164.82 135.142Z" fill="black"/>
<path d="M83.5513 172.63C83.1383 172.63 82.7305 172.47 82.4221 172.154C81.8209 171.539 81.8366 170.556 82.4587 169.961C85.8619 166.708 88.8364 162.937 91.2934 158.758C91.7273 158.019 92.6892 157.765 93.4367 158.194C94.1843 158.624 94.4404 159.575 94.0065 160.315C91.4032 164.742 88.2561 168.735 84.6386 172.19C84.3354 172.48 83.9433 172.625 83.5513 172.625V172.63Z" fill="black"/>
<path d="M30.104 175.733C29.5498 175.733 29.0114 175.438 28.7239 174.921C28.3109 174.166 28.5932 173.225 29.3512 172.816C39.4039 167.406 48.4791 160.242 56.3258 151.527C56.9008 150.886 57.8941 150.829 58.5423 151.398C59.1905 151.967 59.248 152.95 58.673 153.591C50.5858 162.575 41.2284 169.956 30.8567 175.542C30.6163 175.671 30.3601 175.733 30.1092 175.733H30.104Z" fill="black"/>
<path d="M58.7254 105.2C58.4745 105.2 58.2183 105.153 57.9726 105.06C56.8957 104.646 56.3625 103.446 56.7807 102.386C58.9188 96.9241 60.0323 90.6037 61.1092 84.4953C62.3586 77.4145 63.6498 70.0906 66.5564 63.7133C71.5436 52.7637 81.1258 44.064 92.1927 40.4331C103.281 36.7919 115.926 38.2194 126.021 44.2554C134.631 49.4069 141.955 58.1739 146.644 68.9476C149.498 75.4956 151.464 82.7419 152.65 91.1002C153.079 94.1415 153.408 97.3689 153.628 100.689C153.701 101.827 152.828 102.815 151.678 102.888C150.517 102.96 149.529 102.096 149.456 100.958C149.242 97.7362 148.923 94.6121 148.51 91.6743C147.376 83.6884 145.504 76.7887 142.801 70.5872C138.457 60.6048 131.729 52.5103 123.857 47.8036C114.797 42.3882 103.448 41.1004 93.5049 44.364C83.5253 47.638 74.8736 55.505 70.3621 65.415C67.6751 71.3165 66.4257 78.3765 65.2234 85.209C64.1099 91.514 62.9598 98.0361 60.6701 103.881C60.3512 104.698 59.5566 105.205 58.7202 105.205L58.7254 105.2Z" fill="black"/>
<path d="M164.569 135.126C164.093 135.126 163.623 134.909 163.315 134.506C160.988 131.433 159.341 128.951 157.967 126.458C157.554 125.702 157.831 124.761 158.594 124.352C159.357 123.944 160.309 124.223 160.722 124.973C162.023 127.332 163.597 129.701 165.829 132.649C166.347 133.337 166.205 134.309 165.515 134.821C165.233 135.028 164.904 135.131 164.574 135.131L164.569 135.126Z" fill="black"/>
<path d="M137.123 78.9557C139.397 78.7458 141.097 77.0608 140.921 75.1922C140.745 73.3236 138.759 71.9789 136.485 72.1888C134.211 72.3987 132.511 74.0837 132.687 75.9523C132.863 77.8209 134.849 79.1656 137.123 78.9557Z" fill="#E3E3FC"/>
<path d="M94.2272 81.9605C96.873 81.7636 98.884 79.8422 98.7188 77.6688C98.5536 75.4954 96.2749 73.8931 93.6291 74.0899C90.9832 74.2867 88.9723 76.2082 89.1374 78.3816C89.3026 80.555 91.5814 82.1573 94.2272 81.9605Z" fill="#E3E3FC"/>
<path d="M106.484 68.8959C105.711 67.9701 104.608 67.3391 103.353 67.4012C102.093 67.4581 101.074 68.1925 100.415 69.1856C99.7564 70.1838 99.4166 71.4924 99.5003 72.8786C99.5839 74.2699 100.086 75.5423 100.865 76.4681C101.638 77.3939 102.741 78.0249 103.996 77.968C105.251 77.906 106.275 77.1767 106.934 76.1784C107.593 75.1802 107.932 73.8716 107.854 72.4803C107.77 71.089 107.269 69.8166 106.49 68.8908L106.484 68.8959Z" fill="black"/>
<path d="M259.592 73.3182C254.317 95.5846 233.553 111.029 210.975 108.479C189.944 106.105 179.201 90.4486 179.201 90.4486C183.723 68.0218 210.086 14.2308 230.469 23.5459C244.092 29.7733 265.588 48.0157 259.592 73.3182Z" fill="#1F807B"/>
<path d="M215.857 110.822C214.164 110.822 212.454 110.729 210.739 110.532C189.003 108.076 177.931 92.2796 177.471 91.6072C177.157 91.1469 177.042 90.5831 177.152 90.04C179.154 80.1197 184.931 65.5289 191.868 52.8621C202.746 32.9956 211.926 25.3563 217.713 22.4443C222.559 20.003 227.149 19.7444 231.352 21.6633C239.936 25.5839 248.431 32.4577 254.077 40.0454C261.793 50.4157 264.406 62.079 261.631 73.7838C256.45 95.6467 237.28 110.817 215.857 110.817V110.822ZM181.439 89.9573C183.749 92.8899 193.886 104.465 211.21 106.42C232.528 108.831 252.451 94.3951 257.558 72.8424C260.078 62.2032 257.773 51.9984 250.71 42.5022C245.461 35.4473 237.568 29.0648 229.601 25.4235C226.574 24.0425 223.307 24.2701 219.611 26.1321C212.182 29.8716 203.635 40.0609 195.548 54.8328C189.003 66.7858 183.53 80.4352 181.444 89.9573H181.439Z" fill="black"/>
<path d="M129.622 67.2666C128.786 66.496 127.682 66.0408 126.538 66.2839C125.393 66.527 124.572 67.3856 124.122 68.4252C123.673 69.47 123.563 70.7631 123.845 72.0716C124.128 73.3802 124.765 74.5181 125.602 75.2887C126.438 76.0594 127.541 76.5146 128.686 76.2715C129.836 76.0284 130.657 75.1698 131.101 74.125C131.551 73.0802 131.661 71.782 131.378 70.4786C131.096 69.17 130.464 68.0373 129.622 67.2666Z" fill="black"/>
<path d="M251.432 65.2444C246.904 87.6712 225.121 104.088 202.778 101.915C180.435 99.7431 165.986 79.7991 170.513 57.3723C175.04 34.9456 196.824 18.529 219.167 20.7013C241.51 22.8736 255.959 42.8177 251.432 65.2444Z" fill="#9DEBE7"/>
<path d="M206.74 104.176C205.355 104.176 203.97 104.108 202.574 103.974C191.392 102.888 181.679 97.5397 175.228 88.928C168.516 79.9697 166.116 68.6167 168.464 56.9689C173.189 33.5646 196.029 16.3669 219.37 18.6479C230.552 19.7341 240.265 25.0821 246.716 33.6939C253.428 42.6522 255.828 54.0052 253.481 65.653C249.037 87.6608 228.576 104.176 206.735 104.176H206.74ZM215.178 22.5736C195.276 22.5736 176.624 37.6661 172.562 57.7706C170.445 68.2598 172.583 78.4491 178.584 86.4557C184.324 94.1209 192.992 98.8742 202.982 99.8517C204.247 99.9759 205.507 100.033 206.766 100.033C226.668 100.033 245.32 84.9402 249.382 64.8358C251.499 54.3466 249.361 44.1573 243.36 36.1507C237.62 28.4855 228.953 23.727 218.963 22.7546C217.697 22.6305 216.438 22.5736 215.178 22.5736Z" fill="black"/>
<path d="M244.28 64.5462C240.652 82.5352 223.176 95.7088 205.25 93.9658C187.325 92.2227 175.735 76.2199 179.368 58.2309C182.996 40.2419 200.472 27.0683 218.398 28.8113C236.324 30.5544 247.913 46.5572 244.28 64.5462Z" fill="#63BBB6"/>
<path d="M207.571 96.1069C206.447 96.1069 205.323 96.0552 204.194 95.9414C195.109 95.057 187.21 90.7123 181.961 83.704C176.504 76.4215 174.554 67.1994 176.462 57.7394C180.288 38.7626 198.805 24.8183 217.75 26.6699C226.835 27.5544 234.734 31.899 239.983 38.9074C245.44 46.1899 247.39 55.4119 245.482 64.8719C241.88 82.7161 225.288 96.1069 207.571 96.1069ZM214.346 30.6422C198.569 30.6422 183.786 42.6055 180.565 58.5515C178.893 66.8529 180.581 74.9112 185.323 81.242C189.86 87.2987 196.708 91.0537 204.602 91.8244C221.456 93.464 237.954 81.0093 241.378 64.0599C243.051 55.7585 241.363 47.7002 236.621 41.3694C232.084 35.3127 225.241 31.5577 217.342 30.787C216.338 30.6887 215.34 30.6422 214.346 30.6422Z" fill="black"/>
<path d="M203.181 76.8819C202.961 76.8819 202.742 76.8664 202.522 76.8354C201.335 76.6595 200.269 76.013 199.568 75.0458L190.985 63.1911C189.557 61.2153 190.012 58.4689 192.009 57.0568C194.001 55.6448 196.777 56.0948 198.209 58.0706L204.132 66.2427L225.179 50.3795C227.128 48.9106 229.92 49.283 231.405 51.2122C232.889 53.1415 232.513 55.9034 230.563 57.3723L205.878 75.9768C205.099 76.5613 204.153 76.8768 203.186 76.8768L203.181 76.8819Z" fill="#63BBB6"/>
<path d="M203.181 78.9508C202.856 78.9508 202.532 78.9249 202.213 78.8783C200.473 78.6197 198.894 77.6629 197.869 76.2509L189.285 64.3961C188.266 62.9945 187.864 61.2825 188.151 59.5756C188.433 57.874 189.374 56.3792 190.791 55.3758C192.208 54.3672 193.938 53.9689 195.663 54.2534C197.383 54.5327 198.894 55.4637 199.913 56.8654L204.582 63.31L223.913 48.7398C225.299 47.695 227.019 47.2399 228.749 47.4778C230.479 47.7106 232.016 48.595 233.072 49.9656C235.257 52.8 234.698 56.8654 231.833 59.0274L207.148 77.6318C206.019 78.4853 204.613 78.9559 203.191 78.9559L203.181 78.9508ZM194.592 58.3084C194.105 58.3084 193.63 58.4584 193.227 58.7429C192.171 59.4929 191.931 60.9463 192.683 61.9911L201.267 73.8458C201.638 74.3527 202.203 74.6992 202.83 74.7923C203.447 74.8802 204.106 74.7199 204.602 74.3423L229.287 55.7378C229.789 55.3603 230.108 54.812 230.192 54.1965C230.275 53.581 230.113 52.9707 229.732 52.4742C229.35 51.9776 228.796 51.6621 228.174 51.5794C227.552 51.4966 226.935 51.657 226.433 52.0345L205.387 67.8977C204.937 68.2339 204.367 68.3787 203.808 68.296C203.248 68.2132 202.747 67.9081 202.417 67.4529L196.494 59.2808C196.128 58.7739 195.585 58.4429 194.963 58.3395C194.832 58.3188 194.701 58.3084 194.576 58.3084H194.592Z" fill="black"/>
</g>
<defs>
<clipPath id="clip0_2240_936">
<rect width="270.857" height="240" fill="white" transform="translate(0.571289)"/>
</clipPath>
</defs>
</svg>
