<svg viewBox="0 0 24 24" fill="none" xmlns="http://www.w3.org/2000/svg">
<path d="M11.7441 18.7746C15.6101 18.7746 18.7441 15.6406 18.7441 11.7746C18.7441 7.9086 15.6101 4.7746 11.7441 4.7746C7.87815 4.7746 4.74414 7.9086 4.74414 11.7746C4.74414 15.6406 7.87815 18.7746 11.7441 18.7746Z" fill="currentColor"/>
<path d="M5.63995 3.32958C5.27607 2.72096 5.43468 2.0478 6.01316 1.7066C6.59164 1.36541 7.25409 1.55906 7.61797 2.16768C7.97252 2.75785 7.86056 3.43102 7.24476 3.79065C6.66628 4.13185 5.9945 3.92897 5.63995 3.32958Z" fill="currentColor"/>
<path d="M11.8348 1.31036C11.9001 0.609527 12.4319 0.157676 13.1037 0.213005C13.7755 0.277555 14.1954 0.812399 14.13 1.51323C14.0647 2.19562 13.5702 2.67513 12.8611 2.61058C12.1893 2.54603 11.7695 1.99274 11.8348 1.31036Z" fill="currentColor"/>
<path d="M18.012 3.28356C18.4878 2.74872 19.1783 2.69339 19.6914 3.13602C20.2046 3.57865 20.2139 4.26104 19.7474 4.78666C19.2902 5.30306 18.6091 5.4045 18.068 4.9342C17.5548 4.49157 17.5548 3.79996 18.012 3.28356Z" fill="currentColor"/>
<path d="M21.8362 8.47565C22.536 8.31889 23.1331 8.67853 23.2824 9.33325C23.4317 9.98797 23.0398 10.5413 22.3401 10.698C21.6403 10.8548 21.0525 10.532 20.8939 9.84043C20.7446 9.18571 21.1551 8.6232 21.8362 8.47565Z" fill="currentColor"/>
<path d="M21.8267 14.9121C22.4798 15.1979 22.7504 15.8342 22.4798 16.4428C22.2093 17.0607 21.5655 17.282 20.903 16.9961C20.2686 16.7195 19.9607 16.1108 20.2499 15.4653C20.5205 14.8475 21.1829 14.6354 21.8267 14.9121Z" fill="currentColor"/>
<path d="M17.9942 20.0854C18.3581 20.694 18.1901 21.3672 17.6023 21.7084C17.0145 22.0496 16.3614 21.8467 15.9975 21.2381C15.6429 20.6387 15.7642 19.9748 16.3894 19.6151C16.9772 19.2739 17.6396 19.4953 17.9942 20.0854Z" fill="currentColor"/>
<path d="M11.7966 22.0494C11.7219 22.7502 11.1901 23.202 10.5183 23.1283C9.84656 23.0545 9.43603 22.5197 9.51067 21.8096C9.58531 21.1272 10.0798 20.6569 10.7889 20.7307C11.4607 20.7952 11.8712 21.3578 11.7966 22.0494Z" fill="currentColor"/>
<path d="M5.63211 20.0208C5.15626 20.5465 4.45649 20.6018 3.95266 20.1499C3.44882 19.6981 3.43949 19.0249 3.91533 18.4993C4.38185 17.9829 5.06296 17.8999 5.59479 18.3702C6.09862 18.8221 6.09862 19.5137 5.63211 20.0208Z" fill="currentColor"/>
<path d="M1.85172 14.783C1.15194 14.9306 0.554805 14.5617 0.414851 13.907C0.274896 13.2523 0.666769 12.699 1.37587 12.5514C2.05698 12.4039 2.66345 12.7359 2.81274 13.4275C2.95269 14.0822 2.54216 14.6355 1.85172 14.783Z" fill="currentColor"/>
<path d="M1.91765 8.36494C1.26453 8.07907 1.00328 7.43357 1.28319 6.82496C1.5631 6.21634 2.20689 5.99503 2.86001 6.29011C3.49447 6.57598 3.79304 7.18459 3.49447 7.83009C3.21456 8.43871 2.55211 8.6508 1.90832 8.36494H1.91765Z" fill="currentColor"/>
</svg>
