<svg width="270" height="234" viewBox="0 0 270 234" fill="none" xmlns="http://www.w3.org/2000/svg">
<g clip-path="url(#clip0_2934_974)">
<path d="M264.716 49.085H168.58C166.557 49.085 164.917 50.7244 164.917 52.7469V147.056C164.917 149.078 166.557 150.718 168.58 150.718H264.716C266.738 150.718 268.378 149.078 268.378 147.056V52.7469C268.378 50.7244 266.738 49.085 264.716 49.085Z" fill="white"/>
<path d="M164.244 70.5695V52.7467L166.746 48.5981H265.527L268.378 50.5244L269.189 54.7662V70.5695H164.244Z" fill="#FFB800"/>
<path d="M265.738 152.708H167.562C165.132 152.708 163.299 149.829 163.299 146.009V54.1578C163.299 50.3377 165.132 47.4585 167.562 47.4585H265.738C268.167 47.4585 270 50.3377 270 54.1578V146.009C270 149.829 268.167 152.708 265.738 152.708ZM167.598 149.464H265.693C266.013 149.294 266.751 148.081 266.751 146.009V71.571H166.536V146.009C166.536 148.081 167.278 149.29 167.594 149.464H167.598ZM166.54 68.3309H266.756V54.1618C266.756 52.0896 266.013 50.8811 265.697 50.7068H167.602C167.282 50.8771 166.544 52.0896 166.544 54.1618V68.3309H166.54ZM254.642 138.949H233.168C232.271 138.949 231.546 138.223 231.546 137.327C231.546 136.431 232.271 135.705 233.168 135.705H254.642C255.538 135.705 256.264 136.431 256.264 137.327C256.264 138.223 255.538 138.949 254.642 138.949ZM254.642 122.704H180.454C179.558 122.704 178.832 121.978 178.832 121.082C178.832 120.185 179.558 119.459 180.454 119.459H254.642C255.538 119.459 256.264 120.185 256.264 121.082C256.264 121.978 255.538 122.704 254.642 122.704ZM254.642 104.99H180.454C179.558 104.99 178.832 104.264 178.832 103.368C178.832 102.472 179.558 101.746 180.454 101.746H254.642C255.538 101.746 256.264 102.472 256.264 103.368C256.264 104.264 255.538 104.99 254.642 104.99Z" fill="black"/>
<path d="M176.322 64.2515C178.568 64.2515 180.389 62.4305 180.389 60.1841C180.389 57.9377 178.568 56.1167 176.322 56.1167C174.075 56.1167 172.254 57.9377 172.254 60.1841C172.254 62.4305 174.075 64.2515 176.322 64.2515Z" fill="black"/>
<path d="M187.693 64.2515C189.94 64.2515 191.761 62.4305 191.761 60.1841C191.761 57.9377 189.94 56.1167 187.693 56.1167C185.447 56.1167 183.625 57.9377 183.625 60.1841C183.625 62.4305 185.447 64.2515 187.693 64.2515Z" fill="black"/>
<path d="M199.069 64.2515C201.316 64.2515 203.137 62.4305 203.137 60.1841C203.137 57.9377 201.316 56.1167 199.069 56.1167C196.823 56.1167 195.001 57.9377 195.001 60.1841C195.001 62.4305 196.823 64.2515 199.069 64.2515Z" fill="black"/>
<g opacity="0.15">
<path d="M99.502 234C127.029 234 149.344 232.332 149.344 230.274C149.344 228.215 127.029 226.547 99.502 226.547C71.9748 226.547 49.6597 228.215 49.6597 230.274C49.6597 232.332 71.9748 234 99.502 234Z" fill="black"/>
</g>
<path d="M168.917 109.678C171.549 111.39 173.215 114.699 172.518 117.76C171.759 121.098 168.653 123.276 165.879 125.287C158.238 130.818 149.787 138.803 144.068 146.301C147.434 136.784 150.622 127.144 151.441 117.083C151.551 115.773 151.608 114.455 151.616 113.137H151.62C154.069 111.171 156.795 109.265 159.836 108.49C162.882 107.72 166.28 107.971 168.917 109.678Z" fill="white"/>
<path d="M143.861 146.885C143.853 146.913 143.841 146.938 143.833 146.966C146.193 150.247 149.345 155.794 149.345 155.794C149.345 155.794 159.678 172.628 164.512 180.223C164.865 180.771 165.011 181.44 164.857 182.072C164.411 183.889 162.221 183.682 160.708 183.086C159.341 182.551 157.468 181.273 156.539 182.867C152.986 189.06 145.918 193.545 138.747 193.366C135.544 193.289 132.425 192.369 129.249 191.898C126.078 191.432 122.1 191.914 119.354 193.573C117.209 196.74 115.096 199.96 112.468 202.673C106.81 208.504 98.6425 211.818 90.5233 211.574C82.4001 211.331 74.4473 207.531 69.1508 201.367C66.7783 198.606 62.5159 191.144 59.4256 189.218C55.6702 186.878 50.3778 181.383 46.0384 180.515C40.8311 178.22 40.1984 177.827 35.3683 174.266C31.836 169.359 27.8616 165.474 29.9096 159.789C32.3835 152.919 40.1214 152.473 46.0384 148.203C57.6047 139.857 68.3153 130.327 77.9593 119.816C79.5816 118.048 80.5995 115.822 80.9604 113.449C82.2582 104.856 85.677 96.4296 91.375 89.8276C97.8476 82.3335 107.301 77.3456 117.184 76.7981C127.072 76.2547 137.231 80.3343 143.578 87.9338C149.357 94.8561 151.681 104.07 151.616 113.145C151.608 114.463 151.551 115.781 151.441 117.091C150.622 127.152 147.434 136.791 144.068 146.309L143.861 146.893V146.885Z" fill="white"/>
<path d="M45.5555 70.8454C37.1971 54.0972 10.1427 53.9918 1.62207 70.6426C1.77212 37.6937 31.4017 11.1197 67.7959 11.2859C104.19 11.4522 133.572 38.2979 133.422 71.2468C125.064 54.4987 98.0095 54.3932 89.4889 71.0441C81.1305 54.2959 54.0761 54.1905 45.5555 70.8413V70.8454Z" fill="#FFF7AE"/>
<path d="M89.4726 71.0483C89.4726 71.0483 98.7881 30.9054 67.7959 11.2861L89.4726 71.0483Z" fill="#FFF7AE"/>
<path d="M45.7216 70.8456C45.7216 70.8456 36.6292 30.6216 67.7999 11.2861L45.7216 70.8456Z" fill="#FFF7AE"/>
<path d="M128.758 49.4741C116.734 52.3696 104.251 52.8765 91.9303 52.6859C80.441 52.5074 68.9274 51.9519 57.5476 50.2933C47.129 48.7725 36.7226 46.2745 27.2327 41.611C23.0636 39.5631 19.1581 37.0853 15.573 34.2183C6.89019 44.2672 1.68696 56.9074 1.62207 70.6628C10.1427 54.0119 37.1971 54.1133 45.5555 70.8655C54.0761 54.2147 81.1305 54.3161 89.4889 71.0683C98.0095 54.4175 125.064 54.5188 133.422 71.2711C133.459 63.5661 131.877 56.1937 128.969 49.4214C128.896 49.4376 128.827 49.4579 128.758 49.4741Z" fill="#FFD631"/>
<path d="M67.8 12.2793H67.7919C66.8956 12.2793 66.1737 11.5453 66.1778 10.6491L66.2183 1.61399C66.2183 0.721834 66.9483 0 67.8405 0H67.8486C68.7449 0 69.4668 0.734 69.4627 1.63021L69.4222 10.6653C69.4222 11.5575 68.6922 12.2793 67.8 12.2793Z" fill="black"/>
<path d="M133.422 72.8727C132.818 72.8727 132.25 72.5361 131.971 71.9765C128.381 64.7866 120.55 60.2934 111.527 60.2487C111.482 60.2487 111.433 60.2487 111.389 60.2487C102.41 60.2487 94.5787 64.6609 90.9328 71.79C90.657 72.3334 90.0973 72.674 89.489 72.674H89.4809C88.8685 72.674 88.3129 72.3253 88.0371 71.7778C84.448 64.5879 76.6168 60.0946 67.5933 60.05C67.5487 60.05 67.5 60.05 67.4554 60.05C58.4765 60.05 50.6453 64.4621 46.9994 71.5913C46.7236 72.1347 46.1639 72.4753 45.5556 72.4753H45.5475C44.9351 72.4753 44.3795 72.1266 44.1037 71.5791C40.5146 64.3891 32.6834 59.8959 23.6599 59.8513H23.522C14.5431 59.8513 6.71188 64.2634 3.06597 71.3926C2.72531 72.0617 1.97098 72.4064 1.23693 72.232C0.506939 72.0414 0 71.3885 0 70.6383C0.0770548 54.2389 7.19043 38.8614 20.0342 27.3404C32.7483 15.937 49.5787 9.66357 67.4513 9.66357C67.5689 9.66357 67.6866 9.66357 67.8042 9.66357C85.8107 9.74468 102.714 16.1804 115.408 27.7743C128.146 39.4129 135.118 54.8553 135.045 71.2547C135.045 72.0049 134.521 72.6578 133.791 72.8281C133.67 72.8565 133.544 72.8687 133.422 72.8687V72.8727ZM67.4554 56.7977C67.5081 56.7977 67.5568 56.7977 67.6095 56.7977C76.8034 56.8423 84.9387 61.0111 89.5052 67.8483C94.1204 61.0841 102.248 57.0005 111.389 57.0005C111.442 57.0005 111.49 57.0005 111.543 57.0005C119.565 57.041 126.779 60.2204 131.524 65.5733C130.162 52.2315 123.787 39.8265 113.218 30.171C101.12 19.1164 84.9874 12.9848 67.7879 12.9078C67.6784 12.9078 67.5649 12.9078 67.4513 12.9078C50.3776 12.9078 34.3178 18.8812 22.1999 29.7533C11.542 39.3155 5.05317 51.6597 3.56885 64.9893C8.3422 59.7053 15.5448 56.595 23.522 56.595C23.5747 56.595 23.6234 56.595 23.6761 56.595C32.8659 56.6396 41.0013 60.8084 45.5678 67.6455C50.1829 60.8814 58.3102 56.7977 67.4513 56.7977H67.4554Z" fill="black"/>
<path d="M89.4727 72.6699C89.351 72.6699 89.2293 72.6577 89.1036 72.6293C88.2317 72.4266 87.6882 71.5547 87.891 70.6828C87.9194 70.5652 90.1418 60.6866 88.6332 48.6222C86.6257 32.604 79.3217 20.5032 66.9281 12.6563C66.1697 12.1777 65.9466 11.1761 66.4252 10.4178C66.9037 9.65943 67.9054 9.43639 68.6638 9.91491C81.7591 18.2038 89.7809 31.4848 91.8654 48.3222C93.4268 60.9502 91.1517 70.991 91.0543 71.4127C90.8799 72.163 90.2148 72.6699 89.4767 72.6699H89.4727Z" fill="black"/>
<path d="M45.718 72.4671C44.9758 72.4671 44.3066 71.9562 44.1363 71.2019C44.039 70.7802 41.8166 60.7191 43.459 48.1073C45.649 31.2861 53.7682 18.0782 66.9405 9.90683C67.7029 9.43237 68.7006 9.66757 69.1751 10.43C69.6455 11.1923 69.4143 12.1899 68.6519 12.6644C56.1893 20.3937 48.8001 32.4256 46.6913 48.4236C45.1015 60.4839 47.2793 70.3909 47.3037 70.4882C47.4983 71.3641 46.9508 72.2279 46.0789 72.4266C45.9572 72.455 45.8396 72.4671 45.722 72.4671H45.718Z" fill="black"/>
<path d="M66.3927 174.53H66.3846C65.4883 174.53 64.7665 173.796 64.7705 172.9L65.2247 58.4118C65.2247 57.5197 65.9547 56.7979 66.8469 56.7979H66.8551C67.7513 56.7979 68.4732 57.5319 68.4692 58.4281L68.0149 172.916C68.0149 173.808 67.2849 174.53 66.3927 174.53Z" fill="black"/>
<path d="M32.4076 155.636L44.8742 150.673C44.8742 150.673 35.5425 155.726 34.7801 161.444C34.0176 167.161 40.3564 172.304 45.4217 175.061C51.9389 178.609 57.2719 180.568 64.3326 182.859C71.9894 185.345 76.3085 193.512 83.2962 197.515C89.5498 201.096 97.8149 200.812 103.809 196.813C107.232 194.53 109.827 191.246 112.739 188.338C115.651 185.43 119.143 182.766 123.231 182.312C130.892 181.456 138.297 188.52 145.654 186.225C151.242 184.481 155.103 177.669 160.923 178.322C162.817 178.536 164.844 180.398 163.977 182.093C163.466 183.095 162.144 183.451 161.044 183.204C159.945 182.957 159.021 182.243 157.678 181.894C153.217 189.242 144.583 193.845 135.998 193.456C130.462 193.204 124.675 191.087 119.163 193.062C115.286 202.191 106.603 209.113 96.8375 210.861C87.0719 212.609 76.5275 209.125 69.7224 201.907C66.8916 198.906 63.3309 190.937 59.758 188.877C55.5281 186.44 45.4217 180.844 45.4217 180.844L30.9963 169.096L29.4795 160.478L32.4116 155.628L32.4076 155.636Z" fill="#E3E3FC"/>
<path d="M78.7621 136.406C74.6214 139.922 68.0758 142.169 64.5192 144.468C60.9706 146.767 58.1195 150.705 58.4197 155.048C58.7522 159.915 63.0713 163.949 67.7636 165.085C72.4517 166.229 77.3467 164.992 81.6537 163.001" fill="white"/>
<path d="M71.507 167.141C70.0794 167.141 68.7046 166.979 67.3784 166.658C60.841 165.073 57.1099 159.671 56.8017 155.154C56.4326 149.772 60.0907 145.401 63.6393 143.102C65.083 142.169 66.9323 141.273 68.8911 140.32C71.9003 138.86 75.311 137.205 77.716 135.165C78.4013 134.586 79.4233 134.671 80.0033 135.352C80.5832 136.033 80.498 137.059 79.8167 137.639C77.0995 139.947 73.4942 141.694 70.3106 143.239C68.445 144.144 66.6809 144.999 65.4075 145.827C62.6375 147.623 59.7703 150.957 60.0461 154.935C60.3462 159.298 64.4463 162.607 68.153 163.508C71.8638 164.412 76.1789 163.747 80.9806 161.529C81.7917 161.151 82.757 161.508 83.1341 162.319C83.5113 163.13 83.1544 164.096 82.3433 164.473C78.4946 166.249 74.869 167.145 71.5151 167.145L71.507 167.141Z" fill="black"/>
<path d="M144.064 147.923C143.719 147.923 143.375 147.814 143.083 147.591C142.369 147.047 142.235 146.03 142.778 145.316C148.355 138.004 156.843 129.825 164.93 123.973L165.141 123.819C167.691 121.97 170.332 120.056 170.936 117.399C171.451 115.141 170.23 112.464 168.032 111.037C165.952 109.69 163.109 109.334 160.233 110.059C157.403 110.781 154.803 112.659 152.633 114.399C151.936 114.958 150.914 114.849 150.354 114.147C149.794 113.45 149.904 112.428 150.606 111.868C153.047 109.909 156.003 107.789 159.439 106.913C163.186 105.964 166.966 106.475 169.8 108.312C173.154 110.493 174.918 114.524 174.103 118.117C173.227 121.966 169.946 124.342 167.047 126.443L166.836 126.597C158.988 132.278 150.76 140.202 145.362 147.283C145.041 147.7 144.559 147.919 144.072 147.919L144.064 147.923Z" fill="black"/>
<path d="M149.344 157.416C148.78 157.416 148.229 157.12 147.933 156.593C147.9 156.54 144.798 151.082 142.515 147.911C141.992 147.185 142.158 146.171 142.884 145.648C143.61 145.125 144.624 145.291 145.147 146.017C147.531 149.33 150.622 154.76 150.751 154.991C151.194 155.77 150.922 156.759 150.143 157.201C149.892 157.343 149.616 157.412 149.344 157.412V157.416Z" fill="black"/>
<path d="M119.354 195.195C118.806 195.195 118.267 194.916 117.963 194.413C117.501 193.646 117.744 192.649 118.514 192.186C121.349 190.475 125.652 189.733 129.485 190.297C130.632 190.467 131.772 190.694 132.875 190.913C134.915 191.319 136.841 191.7 138.784 191.748C138.91 191.748 139.035 191.752 139.161 191.752C145.407 191.752 151.786 187.896 155.132 182.064C156.644 179.469 159.439 180.742 160.635 181.29C160.866 181.395 161.089 181.497 161.3 181.582C162.359 182 163.125 181.91 163.239 181.805C163.243 181.801 163.263 181.764 163.283 181.691C163.324 181.521 163.275 181.302 163.149 181.107C158.36 173.581 148.067 156.816 147.962 156.65C147.491 155.888 147.73 154.886 148.497 154.42C149.259 153.953 150.261 154.189 150.727 154.955C150.829 155.125 161.11 171.866 165.883 179.36C166.483 180.292 166.686 181.428 166.434 182.462C166.187 183.472 165.591 184.242 164.711 184.7C163.016 185.58 160.931 184.923 160.116 184.603C159.856 184.502 159.577 184.376 159.289 184.242C158.911 184.072 158.246 183.768 157.922 183.727C154.012 190.516 146.518 195.001 139.157 195.001C139.007 195.001 138.857 195.001 138.707 194.997C136.484 194.944 134.327 194.514 132.242 194.1C131.18 193.89 130.081 193.671 129.01 193.512C125.932 193.058 122.383 193.646 120.189 194.972C119.926 195.13 119.638 195.208 119.354 195.208V195.195Z" fill="black"/>
<path d="M69.6371 184.716C69.2964 184.716 68.9558 184.696 68.607 184.647C67.9419 184.558 67.4714 183.95 67.5607 183.281C67.6499 182.616 68.2582 182.141 68.9274 182.234C71.2471 182.539 73.5223 181.318 76.0448 179.805L79.8124 177.547C84.0342 175.016 88.256 172.486 92.4737 169.955C93.0496 169.61 93.7958 169.797 94.1446 170.373C94.4933 170.949 94.3027 171.695 93.7269 172.044C89.5051 174.574 85.2833 177.105 81.0655 179.635L77.298 181.894C75.2783 183.102 72.5855 184.712 69.6371 184.712V184.716Z" fill="black"/>
<path d="M153.364 178.503C153.011 178.503 152.658 178.349 152.419 178.053L143.123 166.585C142.702 166.062 142.783 165.296 143.302 164.874C143.825 164.452 144.591 164.533 145.013 165.052L154.308 176.52C154.73 177.044 154.649 177.81 154.13 178.232C153.903 178.414 153.635 178.503 153.364 178.503Z" fill="black"/>
<path d="M34.1718 160.909C33.9042 160.909 33.6325 160.819 33.4053 160.637C32.8822 160.215 32.8011 159.449 33.2269 158.926C34.8532 156.918 37.4081 154.959 40.1132 152.887C42.8304 150.807 45.6368 148.654 47.8268 146.241C48.2769 145.742 49.0475 145.705 49.5463 146.156C50.0451 146.606 50.0816 147.376 49.6315 147.875C47.2955 150.45 44.3958 152.672 41.5934 154.818C39.006 156.801 36.5605 158.674 35.1168 160.454C34.8775 160.75 34.5247 160.904 34.1718 160.904V160.909Z" fill="black"/>
<path d="M142.097 153.791C141.927 153.791 141.757 153.763 141.586 153.71C140.735 153.426 140.276 152.51 140.556 151.658C140.994 150.34 141.432 149.026 141.874 147.708L142.288 146.472C142.3 146.435 142.312 146.399 142.324 146.362L142.973 144.416C143.257 143.568 144.178 143.11 145.025 143.394C145.873 143.678 146.331 144.598 146.047 145.446L145.403 147.384C145.39 147.416 145.378 147.453 145.37 147.485L144.948 148.738C144.51 150.052 144.068 151.366 143.634 152.68C143.407 153.361 142.775 153.791 142.093 153.791H142.097Z" fill="black"/>
<path d="M118.867 194.79C118.632 194.79 118.393 194.721 118.186 194.579C117.63 194.202 117.484 193.443 117.861 192.888C121.021 188.228 123.993 184.153 128.394 181.44C128.965 181.087 129.716 181.266 130.069 181.837C130.421 182.409 130.243 183.159 129.671 183.512C125.685 185.974 122.878 189.834 119.877 194.255C119.642 194.599 119.261 194.79 118.867 194.79Z" fill="black"/>
<path d="M145.869 105.393C147.344 105.095 148.303 103.683 148.011 102.241C147.719 100.799 146.286 99.8722 144.811 100.171C143.336 100.47 142.377 101.881 142.669 103.323C142.961 104.765 144.394 105.692 145.869 105.393Z" fill="#E3E3FC"/>
<path d="M118.596 107.198C118.797 105.3 117.107 103.566 114.821 103.325C112.536 103.084 110.521 104.426 110.32 106.324C110.12 108.221 111.81 109.955 114.095 110.197C116.381 110.438 118.396 109.096 118.596 107.198Z" fill="#E3E3FC"/>
<path d="M124.415 97.679C123.738 97.0221 122.837 96.6206 121.872 96.7707C120.907 96.9207 120.181 97.5777 119.755 98.4049C119.329 99.2363 119.175 100.287 119.358 101.361C119.54 102.44 120.031 103.389 120.708 104.046C121.386 104.703 122.286 105.104 123.251 104.954C124.216 104.804 124.942 104.147 125.364 103.316C125.79 102.485 125.944 101.434 125.761 100.36C125.579 99.2809 125.088 98.3319 124.411 97.675L124.415 97.679Z" fill="black"/>
<path d="M139.948 95.6272C139.287 95.0311 138.427 94.6904 137.555 94.9175C136.683 95.1406 136.075 95.8502 135.758 96.7019C135.442 97.5535 135.389 98.5956 135.641 99.6378C135.888 100.684 136.407 101.58 137.072 102.18C137.733 102.781 138.593 103.117 139.465 102.894C140.341 102.671 140.945 101.957 141.262 101.11C141.578 100.258 141.631 99.2161 141.379 98.1698C141.132 97.1277 140.613 96.2314 139.948 95.6313V95.6272Z" fill="black"/>
<path d="M91.3503 213.209C91.0583 213.209 90.7663 213.205 90.4743 213.197C82.0712 212.945 74.0048 209.02 68.3393 202.426C67.3659 201.29 66.5427 200.131 65.5896 198.784C64.1256 196.712 62.4628 194.364 59.5875 191.164C57.9653 189.356 53.6299 186.878 49.0391 184.254C40.4414 179.335 30.7 173.763 28.6479 167.498C26.6445 161.383 28.2992 157.664 30.0349 155.616C31.3246 154.095 33.1252 153.414 34.7109 152.814L34.8813 152.749C36.4629 152.149 38.8678 151.192 41.3579 150.04C46.9261 147.457 62.3128 133.02 68.8827 126.852C71.5512 124.245 74.2076 121.499 76.7626 118.717C78.1374 117.217 79.0337 115.311 79.354 113.202C80.7816 103.737 84.5127 95.2862 90.1458 88.7654C97.1213 80.6914 106.94 75.7399 117.095 75.1762C127.667 74.5923 138.301 79.0814 144.822 86.8919C151.871 95.3349 153.29 105.834 153.237 113.154C153.229 114.528 153.168 115.899 153.059 117.225C152.228 127.457 149.056 137.076 145.601 146.849L145.394 147.433C145.094 148.276 144.165 148.718 143.322 148.422C142.478 148.122 142.036 147.197 142.332 146.35L142.539 145.766C145.921 136.204 149.024 126.808 149.823 116.957C149.928 115.713 149.985 114.427 149.993 113.133C150.042 106.353 148.752 96.6609 142.332 88.9722C136.456 81.9363 126.848 77.8892 117.273 78.4164C108.132 78.9233 98.9097 83.5828 92.6034 90.8863C87.3759 96.9448 83.9043 104.828 82.566 113.689C82.1483 116.438 80.9681 118.932 79.1553 120.911C76.5638 123.738 73.8629 126.524 71.1295 129.196C60.0579 139.586 48.0495 150.515 42.7246 152.984C40.1494 154.177 37.6674 155.166 36.0371 155.786L35.8668 155.851C34.5284 156.358 33.2631 156.837 32.5128 157.721C31.3124 159.136 30.2012 161.804 31.7342 166.492C33.3969 171.569 42.968 177.044 50.6572 181.444C55.6901 184.323 60.0336 186.809 62.0086 189.003C65.0137 192.345 66.8063 194.883 68.246 196.919C69.1504 198.196 69.929 199.303 70.805 200.321C75.8785 206.226 83.0851 209.742 90.5797 209.965C98.2325 210.196 105.979 207.049 111.312 201.554C113.647 199.141 115.631 196.209 117.545 193.37L118.019 192.673C118.522 191.931 119.528 191.736 120.27 192.239C121.012 192.742 121.207 193.752 120.704 194.49L120.234 195.187C118.238 198.139 116.174 201.193 113.639 203.809C107.889 209.737 99.6154 213.217 91.3584 213.217L91.3503 213.209Z" fill="black"/>
<path d="M249.434 91.1813C246.61 91.1813 244.394 88.8773 244.394 86.0395C244.394 83.2018 246.691 80.8438 249.515 80.8438C252.34 80.8438 254.637 83.2626 254.637 86.0125V90.9245H252.651V89.2894L252.509 89.2489C252.157 90.1205 250.887 91.1813 249.434 91.1813ZM249.522 82.9991C247.927 82.9991 246.63 84.3572 246.63 86.026C246.63 87.6949 247.927 89.0327 249.522 89.0327C251.117 89.0327 252.414 87.6814 252.414 86.026C252.414 84.3707 251.117 82.9991 249.522 82.9991Z" fill="black"/>
<path d="M180 86.4662C180.047 89.2634 181.71 91.162 184.5 91.162C186.406 91.162 187.325 89.7364 187.541 89.2364L187.676 89.2634V90.912H189.784V81.0947H187.554V86.1081C187.507 87.7161 186.298 89.0134 184.737 89.0134C183.176 89.0134 182.23 87.8851 182.23 86.277V81.0947H180V86.4662Z" fill="black"/>
<path d="M203.514 80.8438C200.926 80.8438 199.818 83.0667 199.818 83.0734C199.109 81.7289 197.906 80.8438 196.257 80.8438C194.352 80.8438 193.399 82.2694 193.183 82.7694L193.048 82.7423V81.1073H190.939V90.9245H193.169V85.9044C193.217 84.2963 194.244 82.9991 195.804 82.9991C197.365 82.9991 198.257 84.2963 198.257 85.9044V90.9245H200.487V85.9044C200.541 84.2963 201.501 82.9991 203.062 82.9991C204.622 82.9991 205.575 84.2963 205.575 85.9044V90.9178H207.805V85.7287C207.758 82.9315 206.312 80.8438 203.514 80.8438Z" fill="black"/>
<path d="M226.353 80.9654C226.035 80.8843 225.697 80.8438 225.332 80.8438C223.427 80.8438 222.474 82.2694 222.258 82.7694L222.123 82.7423V81.1073H220.015V90.9245H222.244V85.9044C222.292 84.2963 223.319 82.9991 224.88 82.9991C225.184 82.9991 225.461 83.0464 225.711 83.141L226.346 80.9721L226.353 80.9654Z" fill="black"/>
<path d="M210.988 78V82.3985L211.075 82.4458C211.292 81.9458 212.413 80.8377 214.062 80.8377C216.886 80.8377 219.001 83.1417 219.001 86.0065C219.001 88.8713 216.785 91.1753 213.961 91.1753C212.508 91.1753 211.238 90.1145 210.886 89.2429L210.744 89.2834V90.9185H208.751V78.0068H210.981L210.988 78ZM213.88 89.0199C215.474 89.0199 216.772 87.6686 216.772 86.0133C216.772 84.3579 215.474 82.9863 213.88 82.9863C212.285 82.9863 210.988 84.3444 210.988 86.0133C210.988 87.6821 212.285 89.0199 213.88 89.0199Z" fill="black"/>
<path d="M231.191 89.0333C229.86 89.0333 228.678 88.0536 228.373 86.709H236.272C236.272 86.709 236.313 86.2225 236.313 86.0469C236.313 83.1821 234.016 80.8511 231.191 80.8511C228.367 80.8511 226.069 83.1821 226.069 86.0469C226.069 88.9116 228.353 91.1886 231.191 91.1886C234.029 91.1886 235.685 89.067 236.097 87.5333H233.691C233.691 87.5333 232.928 89.0333 231.191 89.0333ZM231.191 82.9997C232.468 82.9997 233.576 83.851 233.955 85.128H228.428C228.806 83.8577 229.914 82.9997 231.191 82.9997Z" fill="black"/>
<path d="M239.563 78.2095H237.272V90.9388H239.563V78.2095Z" fill="black"/>
<path d="M243.124 78.2095H240.833V90.9388H243.124V78.2095Z" fill="black"/>
</g>
<defs>
<clipPath id="clip0_2934_974">
<rect width="270" height="234" fill="white"/>
</clipPath>
</defs>
</svg>
