<svg width="15" height="14" viewBox="0 0 15 14" fill="none" xmlns="http://www.w3.org/2000/svg">
<g clip-path="url(#clip0_1655_1569)">
<path d="M3.87061 3.54733L9.03819 10.4544H10.2078L5.04195 3.54733H3.87061Z" fill="currentColor"/>
<path d="M7.02756 0.087738C3.21017 0.087738 0.115234 3.18268 0.115234 7.00006C0.115234 10.8174 3.21017 13.9124 7.02756 13.9124C10.8449 13.9124 13.9399 10.8174 13.9399 7.00006C13.9399 3.18268 10.8449 0.087738 7.02756 0.087738ZM8.76002 11.0051L6.40857 7.86104L3.49775 11.0051H2.749L6.07365 7.41389L2.77004 2.99505H5.31614L7.48172 5.89185L10.1628 2.99505H10.9116L7.81664 6.33899L11.3061 11.0051H8.76002Z" fill="currentColor"/>
</g>
<defs>
<clipPath id="clip0_1655_1569">
<rect width="14" height="14" fill="white" transform="translate(0.0288086)"/>
</clipPath>
</defs>
</svg>
