<svg viewBox="0 0 211 50" fill="none" xmlns="http://www.w3.org/2000/svg">
<g clip-path="url(#clip0_1976_565)">
<path d="M109.82 23.3155C108.062 23.3155 106.503 22.0268 106.099 20.2468H116.534C116.534 20.2468 116.588 19.6025 116.588 19.3731C116.588 15.5946 113.552 12.5204 109.82 12.5204C106.088 12.5204 103.052 15.5946 103.052 19.3731C103.052 23.1517 106.072 26.1548 109.82 26.1548C113.568 26.1548 115.758 23.3591 116.302 21.3334H113.12C113.12 21.3334 112.107 23.3155 109.814 23.3155H109.82ZM109.82 15.3598C111.503 15.3598 112.969 16.4846 113.471 18.1664H106.174C106.676 16.4846 108.137 15.3598 109.825 15.3598H109.82Z" fill="currentColor"/>
<path d="M69.9972 26.1548C66.2651 26.1548 63.3367 23.1134 63.3367 19.3731C63.3367 15.6328 66.373 12.5204 70.105 12.5204C73.8371 12.5204 76.8734 15.7147 76.8734 19.3349V25.8108H74.2469V23.6485L74.0582 23.5994C73.5944 24.7461 71.9171 26.1494 69.9972 26.1494V26.1548ZM70.105 15.3598C67.9963 15.3598 66.2813 17.1508 66.2813 19.3567C66.2813 21.5627 67.9963 23.3209 70.105 23.3209C72.2137 23.3209 73.9287 21.5409 73.9287 19.3567C73.9287 17.1726 72.2137 15.3598 70.105 15.3598Z" fill="currentColor"/>
<path d="M84.3751 26.1548C80.6431 26.1548 77.7146 23.1134 77.7146 19.3731C77.7146 15.6328 80.7509 12.5204 84.4829 12.5204C88.215 12.5204 91.2513 15.7147 91.2513 19.3349V25.8108H88.6249V23.6485L88.4361 23.5994C87.9723 24.7461 86.295 26.1494 84.3751 26.1494V26.1548ZM84.4829 15.3598C82.3742 15.3598 80.6592 17.1508 80.6592 19.3567C80.6592 21.5627 82.3742 23.3209 84.4829 23.3209C86.5917 23.3209 88.3067 21.5409 88.3067 19.3567C88.3067 17.1726 86.5917 15.3598 84.4829 15.3598Z" fill="currentColor"/>
<path d="M95.6629 25.8163L90.2698 12.8644H93.2198L97.1729 22.4036L101.126 12.8644H104.076L98.683 25.8163H95.6629Z" fill="currentColor"/>
<path d="M91.9634 29.9334V32.2212C93.1499 30.5722 95.0752 29.5566 97.4051 29.5566C99.9236 29.5566 101.995 30.7197 103.143 32.669C104.4 30.7579 106.59 29.5566 109.254 29.5566C113.552 29.5566 116.588 32.5543 116.588 36.7915V49.3502H111.848V37.3539C111.848 35.1425 110.327 33.5645 108.073 33.5645C105.818 33.5645 104.297 35.137 104.297 37.3867V49.3448H99.5569V37.3485C99.5569 35.137 98.0037 33.559 95.744 33.559C93.4843 33.559 91.9688 35.1316 91.9688 37.3812V49.3393H87.2283V29.917H91.9688L91.9634 29.9334Z" fill="currentColor"/>
<path d="M124.549 21.6064V32.8546C126.102 30.7906 128.475 29.5566 131.215 29.5566C136.327 29.5566 140.027 33.7938 140.027 39.6418C140.027 45.4898 136.322 49.727 131.026 49.727C128.286 49.727 126.064 48.5257 124.543 46.5382V49.3502H119.803V21.6064H124.543H124.549ZM129.807 45.7137C132.806 45.7137 135.065 43.1637 135.065 39.6418C135.065 36.1199 132.806 33.5699 129.807 33.5699C126.808 33.5699 124.549 36.0817 124.549 39.6418C124.549 43.2019 126.808 45.7137 129.807 45.7137Z" fill="currentColor"/>
<path d="M147.437 29.9334V32.5216C148.92 30.3101 151.476 29.1853 154.103 29.7095V34.2088C150.214 33.499 147.437 35.2954 147.437 38.5224V49.3557H142.696V29.9334H147.437Z" fill="currentColor"/>
<path d="M181.214 21.6064V49.3502H176.473V21.6064H181.214Z" fill="currentColor"/>
<path d="M188.915 21.6064V49.3502H184.175V21.6064H188.915Z" fill="currentColor"/>
<path d="M200.629 49.8144C194.999 49.8144 190.587 45.2277 190.587 39.5872C190.587 33.9467 195.166 29.2509 200.796 29.2509C206.427 29.2509 211.005 34.0668 211.005 39.5326V49.3011H207.042V46.0413L206.75 45.9648C206.055 47.6958 203.525 49.8144 200.629 49.8144ZM200.791 33.5317C197.614 33.5317 195.026 36.2346 195.026 39.5544C195.026 42.8743 197.614 45.5335 200.791 45.5335C203.967 45.5335 206.556 42.8525 206.556 39.5544C206.556 36.2564 203.967 33.5317 200.791 33.5317Z" fill="currentColor"/>
<path d="M164.328 45.6317C161.675 45.6317 159.323 43.6879 158.714 41.0014H174.451C174.451 41.0014 174.537 40.0295 174.537 39.6855C174.537 33.9849 169.958 29.3491 164.328 29.3491C158.698 29.3491 154.119 33.9849 154.119 39.6855C154.119 45.386 158.671 49.9126 164.328 49.9126C169.985 49.9126 173.281 45.6973 174.106 42.645H169.306C169.306 42.645 167.78 45.6317 164.323 45.6317H164.328ZM164.328 33.63C166.868 33.63 169.074 35.3282 169.834 37.8617H158.827C159.582 35.3282 161.788 33.63 164.333 33.63H164.328Z" fill="currentColor"/>
<path d="M79.6995 29.9334H84.1434V49.241H79.1763V47.5647C77.7148 49.1919 75.6924 50.0055 73.1091 50.0055C70.3748 50.0055 68.2768 49.1154 66.8207 47.3354C65.3592 45.5553 64.6311 43.0108 64.6311 39.7073V29.9388H69.1236V39.7073C69.2584 42.1535 69.7546 43.1692 70.5743 44.2121C71.3887 45.255 72.8448 45.7792 74.4034 45.7792C75.962 45.7792 77.4397 44.8673 78.2541 43.8244C79.0685 42.7815 79.7318 41.3181 79.7102 39.7073V29.9388L79.6995 29.9334Z" fill="currentColor"/>
<path d="M47.0009 41.9351C44.8868 42.2791 43.4522 44.3104 43.792 46.4508C44.1318 48.5912 46.138 50.0437 48.2521 49.6997C50.3662 49.3557 51.8008 47.3244 51.461 45.184C51.1158 43.0381 49.1204 41.5857 47.0009 41.9351Z" fill="currentColor"/>
<path d="M36.8456 41.9351C34.7315 42.2791 33.297 44.3104 33.6367 46.4508C33.9765 48.5912 35.9827 50.0437 38.0968 49.6997C40.2109 49.3557 41.6455 47.3244 41.3057 45.184C40.9606 43.0381 38.9651 41.5857 36.8456 41.9351Z" fill="currentColor"/>
<path d="M42.5408 29.5894C36.8727 29.5894 31.787 32.1448 28.2869 36.1909V24.1127C29.6999 24.6806 30.8324 25.7508 31.4904 27.2142C31.8841 28.0823 32.7416 28.6448 33.6854 28.6448C34.6292 28.6448 35.4867 28.0878 35.8804 27.2196C37.0668 24.5932 39.5639 23.6595 41.5054 23.6595C44.0186 23.6595 46.1165 24.9918 47.1196 27.2142C47.5942 28.2625 48.7214 28.8359 49.8323 28.5901C50.9433 28.3444 51.7361 27.3507 51.7361 26.1985C51.7469 11.7506 40.1409 0 25.8707 0C11.6006 0 0 11.7506 0 26.1931C0 27.3452 0.792787 28.339 1.89837 28.5847C2.07095 28.6229 2.24353 28.6393 2.41611 28.6393C3.34373 28.6393 4.21202 28.0933 4.61111 27.2087C5.79759 24.5877 8.2946 23.6486 10.2361 23.6486C12.7493 23.6486 14.8472 24.9809 15.8503 27.2032C16.244 28.0714 17.1015 28.6338 18.0453 28.6338C18.9891 28.6338 19.8466 28.0769 20.2403 27.2087C20.963 25.6088 22.1711 24.6423 23.4492 24.1291V48.9134C23.4492 49.039 23.4385 49.1646 23.4385 49.2956H23.4492H28.2815H28.3192C28.3192 41.1379 34.6345 34.5255 42.5355 34.5255C50.4364 34.5255 56.7517 41.1379 56.7517 49.2956H61.6271C61.6271 38.4187 53.0736 29.5894 42.5355 29.5894H42.5408ZM18.0561 21.9723C16.0445 19.941 13.2778 18.7671 10.2469 18.7671C8.69369 18.7671 7.20519 19.0728 5.85692 19.6462C8.59122 11.0953 16.5353 4.89243 25.8815 4.89243C35.2278 4.89243 43.1664 11.0899 45.9061 19.6407C44.5579 19.0674 43.0802 18.7616 41.5323 18.7616C38.496 18.7616 35.724 19.9356 33.7123 21.9668C31.7007 19.9356 28.934 18.7616 25.9031 18.7616C22.8668 18.7616 20.0947 19.9356 18.0831 21.9668L18.0561 21.9723Z" fill="currentColor"/>
</g>
<defs>
<clipPath id="clip0_1976_565">
<rect width="211" height="50" fill="white"/>
</clipPath>
</defs>
</svg>
