<svg viewBox="0 0 226 23" fill="none" xmlns="http://www.w3.org/2000/svg">
<g clip-path="url(#clip0_2868_882)">
<path d="M108.793 0.750427H105.909L97.7993 22.3245H100.683L108.793 0.750427Z" fill="#201E1E"/>
<path d="M164.614 4.8688C165.549 4.8688 166.434 5.06685 167.267 5.46566C168.1 5.86177 168.826 6.40437 169.444 7.08535C170.063 7.76903 170.55 8.56666 170.904 9.48367C171.259 10.398 171.437 11.3719 171.437 12.4083C171.437 13.4447 171.259 14.4404 170.904 15.3465C170.55 16.2527 170.063 17.0476 169.444 17.7286C168.826 18.4123 168.1 18.9467 167.267 19.3347C166.434 19.7227 165.549 19.9153 164.614 19.9153H163.913C162.902 19.9153 161.948 19.6928 161.049 19.2506C160.15 18.8084 159.402 18.1871 158.803 17.3949V19.9153H155.686V0.324463H158.803V7.47331C159.402 6.67839 160.15 6.04625 161.049 5.57419C161.948 5.10212 162.902 4.8688 163.913 4.8688H164.614ZM167.792 12.0855C167.792 11.513 167.674 10.9758 167.44 10.4794C167.207 9.98015 166.888 9.54336 166.486 9.16353C166.085 8.78642 165.621 8.48527 165.093 8.2628C164.565 8.04033 163.996 7.9291 163.388 7.9291C162.781 7.9291 162.214 8.04033 161.687 8.2628C161.159 8.48527 160.692 8.78371 160.293 9.16353C159.892 9.54336 159.573 9.98015 159.339 10.4794C159.105 10.9786 158.987 11.5157 158.987 12.0855V12.8885C158.987 13.461 159.105 14.0009 159.339 14.5109C159.573 15.0183 159.892 15.4632 160.293 15.8403C160.694 16.2201 161.159 16.5186 161.687 16.741C162.214 16.9635 162.784 17.0747 163.388 17.0747C163.993 17.0747 164.562 16.9635 165.093 16.741C165.621 16.5186 166.085 16.2201 166.486 15.8403C166.888 15.4632 167.207 15.0183 167.44 14.5109C167.674 14.0036 167.792 13.4637 167.792 12.8885V12.0855Z" fill="#201E1E"/>
<path d="M199.901 19.9153V0.324463H203.024V19.9153H199.901Z" fill="#201E1E"/>
<path d="M204.91 19.9153V0.324463H208.033V19.9153H204.91Z" fill="#201E1E"/>
<path d="M189.963 17.4898C187.874 17.4898 186.016 15.9949 185.537 13.933H197.946C197.946 13.933 198.012 13.1842 198.012 12.9211C198.012 8.54222 194.403 4.97729 189.963 4.97729C185.524 4.97729 181.914 8.53951 181.914 12.9211C181.914 17.3026 185.504 20.7807 189.963 20.7807C194.422 20.7807 197.025 17.5386 197.674 15.1919H193.892C193.892 15.1919 192.687 17.4898 189.96 17.4898H189.963ZM189.966 8.26549C191.97 8.26549 193.71 9.57046 194.307 11.5184H185.628C186.222 9.57046 187.962 8.26549 189.969 8.26549H189.966Z" fill="#201E1E"/>
<path d="M217.83 20.287C213.395 20.287 209.918 16.7654 209.918 12.4354C209.918 8.10544 213.525 4.49982 217.959 4.49982C222.393 4.49982 226 8.2004 226 12.392V19.8936H222.88V17.3894L222.651 17.3298C222.102 18.6591 220.111 20.2843 217.83 20.2843V20.287ZM217.959 7.7853C215.455 7.7853 213.417 9.86077 213.417 12.411C213.417 14.9613 215.455 17.0015 217.959 17.0015C220.463 17.0015 222.5 14.9423 222.5 12.411C222.5 9.87977 220.463 7.7853 217.959 7.7853Z" fill="#201E1E"/>
<path d="M88.5241 17.0069C86.432 17.0069 84.5737 15.512 84.0954 13.4447H96.5155C96.5155 13.4447 96.5814 12.6959 96.5814 12.4327C96.5814 8.04845 92.9692 4.48352 88.5268 4.48352C84.0844 4.48352 80.4722 8.04845 80.4722 12.4327C80.4722 16.817 84.0651 20.3005 88.5268 20.3005C92.9885 20.3005 95.5945 17.0557 96.2433 14.709H92.4579C92.4579 14.709 91.2538 17.0069 88.5241 17.0069ZM88.5268 7.77443C90.5336 7.77443 92.2737 9.08211 92.8703 11.0301H84.1834C84.7771 9.08211 86.52 7.77443 88.5268 7.77443Z" fill="#201E1E"/>
<path d="M41.131 20.3005C36.6886 20.3005 33.2056 16.7709 33.2056 12.4327C33.2056 8.09457 36.8178 4.48352 41.2602 4.48352C45.7026 4.48352 49.3148 8.18953 49.3148 12.392V19.9071H46.1865V17.4003L45.9583 17.3406C45.4085 18.6727 43.4127 20.3005 41.1283 20.3005H41.131ZM41.2602 7.77443C38.7531 7.77443 36.7106 9.85262 36.7106 12.4083C36.7106 14.964 38.7503 17.0069 41.2602 17.0069C43.7701 17.0069 45.8098 14.945 45.8098 12.4083C45.8098 9.87161 43.7701 7.77443 41.2602 7.77443Z" fill="#201E1E"/>
<path d="M58.2409 20.3005C53.7984 20.3005 50.3154 16.7709 50.3154 12.4327C50.3154 8.09457 53.9276 4.48352 58.3701 4.48352C62.8125 4.48352 66.4247 8.18953 66.4247 12.392V19.9071H63.2963V17.4003L63.0682 17.3406C62.5183 18.6727 60.5226 20.3005 58.2381 20.3005H58.2409ZM58.3701 7.77443C55.863 7.77443 53.8204 9.85262 53.8204 12.4083C53.8204 14.964 55.8602 17.0069 58.3701 17.0069C60.8799 17.0069 62.9197 14.945 62.9197 12.4083C62.9197 9.87161 60.8799 7.77443 58.3701 7.77443Z" fill="#201E1E"/>
<path d="M71.6724 19.9044L65.2534 4.87964H68.7639L73.4675 15.9488L78.1738 4.87964H81.6843L75.2654 19.9044H71.6696H71.6724Z" fill="#201E1E"/>
<path d="M15.5457 4.22852C6.96053 4.22852 0 11.2309 0 19.8637H3.97234C3.97234 13.3931 9.11301 8.14614 15.5457 8.14614C21.9784 8.14614 27.1191 13.3931 27.1191 19.8637H31.0915C31.0915 11.2309 24.1309 4.22852 15.5457 4.22852Z" fill="#201E1E"/>
<path d="M8.96186 19.9153C8.96186 19.8963 8.95087 19.8827 8.95087 19.8637C8.95087 18.849 9.78382 18.027 10.812 18.027C11.8401 18.027 12.673 18.849 12.673 19.8637C12.673 19.8827 12.662 19.899 12.662 19.9153H15.1334C15.1334 19.8963 15.1444 19.8827 15.1444 19.8637C15.1444 17.5007 13.2036 15.588 10.812 15.588C8.4203 15.588 6.47949 17.5034 6.47949 19.8637C6.47949 19.8827 6.49049 19.8963 6.49049 19.9153H8.96186Z" fill="#201E1E"/>
<path d="M18.1518 19.9153C18.1518 19.8963 18.1408 19.8827 18.1408 19.8637C18.1408 18.849 18.9738 18.027 20.0019 18.027C21.03 18.027 21.863 18.849 21.863 19.8637C21.863 19.8827 21.852 19.899 21.852 19.9153H24.3234C24.3234 19.8963 24.3344 19.8827 24.3344 19.8637C24.3344 17.5007 22.3935 15.588 20.0019 15.588C17.6102 15.588 15.6694 17.5034 15.6694 19.8637C15.6694 19.8827 15.6804 19.8963 15.6804 19.9153H18.1518Z" fill="#201E1E"/>
<path d="M173.054 5.08586H176.18V7.77448C176.787 6.6757 177.485 5.91605 178.156 5.50367C178.865 5.06959 179.253 4.7603 180.867 4.60294C181.581 4.53241 182.48 4.60294 182.48 4.60294L181.689 7.95897C180.977 7.82332 180.545 7.79619 179.924 7.85587C179.325 7.91556 178.887 8.12989 178.296 8.4446C177.705 8.75931 177.128 9.35076 176.782 9.94762C176.457 10.5038 176.232 11.0003 176.232 11.7762V16.5159C176.232 17.1534 176.226 17.7395 176.218 18.2766C176.21 18.8138 176.204 19.256 176.204 19.606C176.204 19.956 176.193 20.1324 176.177 20.1324H173.051V5.08586H173.054Z" fill="#201E1E"/>
<path d="M111.473 15.4659C111.792 16.3802 112.232 17.1751 112.792 17.8479C113.353 18.5235 114.005 19.0525 114.744 19.4405C115.484 19.8284 116.276 20.0211 117.117 20.0211H117.818C118.662 20.0211 119.846 19.8474 120.564 19.4405C121.446 18.9386 122.197 18.1328 122.587 17.1805V20.0211H125.661V4.97729H122.56C122.56 4.97729 122.532 9.71697 122.532 10.2704V12.9021C122.532 13.4745 122.433 14.0117 122.238 14.5082C122.04 15.0074 121.683 15.4415 121.336 15.8213C121.128 16.0492 120.825 16.2472 120.517 16.4209C119.874 16.836 119.121 17.0801 118.31 17.0801C117.848 17.0801 117.405 16.9988 116.987 16.855C116.856 16.817 116.729 16.7709 116.625 16.722C116.542 16.684 116.454 16.6325 116.366 16.5809C115.236 15.9651 114.409 14.8338 114.164 13.4827C114.118 13.2792 114.087 13.0838 114.087 12.9021V4.97729H110.995V12.544C110.995 13.5776 111.154 14.5516 111.473 15.4686V15.4659Z" fill="#201E1E"/>
<path d="M153.593 9.53523C153.274 8.62093 152.834 7.82602 152.274 7.15318C151.713 6.47764 151.061 5.94859 150.322 5.56063C149.582 5.17267 148.791 4.98004 147.949 4.98004H147.248C146.404 4.98004 145.231 5.17267 144.502 5.56063C143.771 5.94859 143.128 6.62143 142.479 7.38108C142.072 7.85857 141.173 9.18253 141.173 9.18253L140.615 9.405L140.054 20.0265H142.509C142.509 20.0265 142.537 15.2869 142.537 14.7334V12.1018C142.537 11.5293 142.636 10.9921 142.831 10.4956C143.029 9.99644 143.386 9.56236 143.732 9.18253C143.941 8.95464 144.244 8.75659 144.552 8.58295C145.195 8.16786 145.948 7.92368 146.759 7.92368C147.221 7.92368 147.663 8.00508 148.081 8.14887C148.213 8.18685 148.34 8.23297 148.444 8.28181C148.527 8.31979 148.615 8.37134 148.703 8.42288C149.832 9.03874 150.66 10.1701 150.905 11.5212C150.951 11.7246 150.982 11.92 150.982 12.1018V20.0265H154.074V12.4599C154.074 11.4262 153.915 10.4522 153.596 9.53523H153.593Z" fill="#201E1E"/>
<path d="M142.053 9.53523C141.734 8.62093 141.294 7.82602 140.733 7.15318C140.173 6.47764 139.521 5.94859 138.782 5.56063C138.042 5.17267 137.25 4.98004 136.409 4.98004H135.708C134.864 4.98004 133.679 5.15368 132.962 5.56063C132.079 6.06254 131.329 6.86831 130.939 7.82059V4.98004H127.865V20.0265H130.966C130.966 20.0265 130.994 15.2869 130.994 14.7334V12.1018C130.994 11.5293 131.093 10.9921 131.288 10.4956C131.486 9.99644 131.843 9.56236 132.189 9.18253C132.398 8.95464 132.701 8.75659 133.009 8.58295C133.652 8.16786 134.405 7.92368 135.216 7.92368C135.678 7.92368 136.121 8.00508 136.538 8.14887C136.67 8.18685 136.797 8.23297 136.901 8.28181C136.984 8.31979 137.072 8.37134 137.16 8.42288C138.29 9.03874 139.117 10.1701 139.362 11.5212C139.408 11.7246 139.439 11.92 139.439 12.1018V20.0265H142.531V12.4599C142.531 11.4262 142.372 10.4522 142.053 9.53523Z" fill="#201E1E"/>
</g>
<defs>
<clipPath id="clip0_2868_882">
<rect width="226" height="22" fill="white" transform="translate(0 0.324463)"/>
</clipPath>
</defs>
</svg>
