<svg viewBox="0 0 226 27" fill="none" xmlns="http://www.w3.org/2000/svg">
<g clip-path="url(#clip0_2815_725)">
<path d="M125.171 23.3147H121.606V21.0628C121.044 21.7461 120.388 22.2911 119.634 22.7006C118.881 23.11 118.069 23.3147 117.199 23.3147H116.475C115.605 23.3147 114.788 23.11 114.024 22.7006C113.259 22.2911 112.59 21.7301 112.008 21.0176C111.425 20.305 110.975 19.4675 110.645 18.5024C110.316 17.5372 110.152 16.5083 110.152 15.4182V7.43396H113.718V15.7984C113.718 16.402 113.821 16.9683 114.021 17.4947C114.224 18.0211 114.503 18.4838 114.862 18.8852C115.22 19.284 115.639 19.6031 116.124 19.8344C116.606 20.0684 117.12 20.1854 117.66 20.1854C118.201 20.1854 118.68 20.0684 119.155 19.8344C119.629 19.6004 120.043 19.284 120.401 18.8852C120.76 18.4864 121.039 18.0211 121.242 17.4947C121.445 16.9683 121.545 16.402 121.545 15.7984V11.1482C121.545 10.4862 121.55 9.88002 121.558 9.33497C121.569 8.78993 121.574 8.33528 121.574 7.97635C121.574 7.61741 121.585 7.43396 121.603 7.43396H125.169V23.3147H125.171Z" fill="currentColor"/>
<path d="M140.48 11.1456C140.578 10.9887 140.678 10.8186 140.783 10.6325C140.889 10.4464 140.992 10.2868 141.089 10.1512C141.687 9.31373 142.354 8.64904 143.089 8.16249C143.825 7.67594 144.655 7.43133 145.582 7.43133H146.307C147.177 7.43133 147.983 7.64137 148.729 8.06146C149.472 8.48154 150.11 9.05051 150.642 9.77104C151.175 10.4942 151.594 11.3424 151.902 12.3155C152.21 13.2912 152.366 14.3255 152.366 15.4156V23.3121H148.8V14.9476C148.8 14.3441 148.708 13.7778 148.523 13.2514C148.339 12.7249 148.089 12.2623 147.77 11.8608C147.451 11.462 147.063 11.1456 146.61 10.9116C146.157 10.6777 145.659 10.5607 145.116 10.5607C144.573 10.5607 144.112 10.6777 143.667 10.9116C143.221 11.1456 142.842 11.462 142.52 11.8608C142.201 12.2596 141.951 12.7249 141.766 13.2514C141.582 13.7778 141.49 14.3441 141.49 14.9476V23.3121H137.924V14.9476C137.924 13.9533 137.745 13.1397 137.386 12.5042C137.028 11.8715 136.58 11.4088 136.04 11.1137C135.5 10.8212 134.909 10.691 134.271 10.7202C133.634 10.7495 133.043 10.9356 132.503 11.2759C131.963 11.6162 131.512 12.0948 131.156 12.709C130.798 13.3231 130.619 14.0702 130.619 14.9476V23.3121H127.111L127.053 7.43133H130.619V9.6248C131.391 8.70753 132.253 8.07475 133.199 7.72379C134.145 7.37284 135.078 7.27978 135.998 7.44462C136.915 7.60947 137.776 8.00562 138.578 8.62777C139.379 9.25258 140.014 10.0901 140.478 11.143L140.48 11.1456Z" fill="currentColor"/>
<path d="M163.497 7.43132C164.465 7.43132 165.376 7.64137 166.238 8.06145C167.097 8.48153 167.846 9.05051 168.486 9.77103C169.124 10.4942 169.627 11.337 169.994 12.3022C170.36 13.2673 170.544 14.2962 170.544 15.3863C170.544 16.4764 170.36 17.5319 169.994 18.4864C169.627 19.4409 169.124 20.2811 168.486 21.0016C167.848 21.7222 167.1 22.2885 166.238 22.6979C165.379 23.1074 164.465 23.3121 163.497 23.3121H162.773C161.729 23.3121 160.744 23.0781 159.816 22.6102C158.888 22.1422 158.116 21.4882 157.497 20.6507V23.3121H153.931V0.324463H157.497V10.1805C158.116 9.34297 158.888 8.67297 159.816 8.17578C160.744 7.67859 161.729 7.43132 162.773 7.43132H163.497ZM166.599 14.9476C166.599 14.3441 166.483 13.7778 166.251 13.2513C166.02 12.7249 165.706 12.2623 165.308 11.8608C164.913 11.462 164.451 11.1456 163.93 10.9116C163.408 10.6777 162.847 10.5607 162.248 10.5607C161.65 10.5607 161.089 10.6777 160.567 10.9116C160.045 11.1456 159.587 11.462 159.189 11.8608C158.793 12.2596 158.477 12.7249 158.245 13.2513C158.013 13.7778 157.897 14.3441 157.897 14.9476V15.7958C157.897 16.3993 158.013 16.971 158.245 17.508C158.477 18.0451 158.791 18.513 159.189 18.9118C159.584 19.3107 160.043 19.6297 160.567 19.8637C161.089 20.0977 161.65 20.2146 162.248 20.2146C162.847 20.2146 163.408 20.0977 163.93 19.8637C164.451 19.6297 164.91 19.3133 165.308 18.9118C165.706 18.5104 166.02 18.0451 166.251 17.508C166.483 16.971 166.599 16.402 166.599 15.7958V14.9476Z" fill="currentColor"/>
<path d="M171.73 7.43134H175.296V9.6833C175.857 8.98139 176.513 8.43103 177.267 8.03221C178.021 7.6334 178.832 7.43134 179.702 7.43134H181.47V11.0871C180.851 10.893 180.184 10.8292 179.47 10.8957C178.753 10.9648 178.092 11.1642 177.483 11.4966C176.874 11.8289 176.366 12.2809 175.96 12.8552C175.554 13.4295 175.351 14.1287 175.351 14.9476V19.4968C175.351 20.1694 175.346 20.7889 175.335 21.3553C175.325 21.9216 175.322 22.3895 175.322 22.7591C175.322 23.1286 175.312 23.3148 175.293 23.3148H171.728V7.43134H171.73Z" fill="currentColor"/>
<path d="M199.059 23.3147V0.324463H202.624V23.3147H199.059Z" fill="currentColor"/>
<path d="M204.509 23.3147V0.324463H208.074V23.3147H204.509Z" fill="currentColor"/>
<path d="M107.517 3.16138H104.647L96.1748 26.3245H99.0447L107.517 3.16138Z" fill="currentColor"/>
<path d="M11.3532 23.1579C12.9924 22.892 14.1045 21.3233 13.8409 19.6696C13.5721 18.0132 12.0252 16.8912 10.3834 17.1597C8.74416 17.4256 7.63204 18.9943 7.89558 20.648C8.15911 22.3018 9.71397 23.4238 11.3532 23.1579ZM19.2223 23.1579C20.8615 22.892 21.9736 21.3233 21.7101 19.6696C21.4413 18.0132 19.8943 16.8912 18.2525 17.1597C16.6133 17.4256 15.5012 18.9943 15.7647 20.648C16.0283 22.3018 17.5831 23.4238 19.2223 23.1579Z" fill="currentColor"/>
<path d="M14.7975 7.62543C6.62791 7.62543 0 14.4451 0 22.8442H3.7791C3.7791 16.5456 8.67295 11.4407 14.7975 11.4407C20.9221 11.4407 25.8159 16.5456 25.8159 22.8442H29.595C29.595 14.4451 22.9671 7.62543 14.7975 7.62543Z" fill="currentColor"/>
<path d="M88.0922 20.2731C85.9365 20.2731 84.0206 18.6965 83.5278 16.5216H96.3277C96.3277 16.5216 96.3962 15.7346 96.3962 15.4555C96.3962 10.8372 92.6724 7.08038 88.0948 7.08038C83.5172 7.08038 79.7935 10.8372 79.7935 15.4555C79.7935 20.0737 83.4961 23.7428 88.0948 23.7428C92.6935 23.7428 95.3763 20.3263 96.0483 17.851H92.148C92.148 17.851 90.9067 20.2731 88.0948 20.2731H88.0922ZM88.0948 10.5474C90.1609 10.5474 91.9556 11.9246 92.5697 13.9772H83.6174C84.2288 11.9246 86.0261 10.5474 88.0922 10.5474H88.0948Z" fill="currentColor"/>
<path d="M189.427 20.1641C187.268 20.1641 185.35 18.5875 184.857 16.41H197.67C197.67 16.41 197.739 15.6203 197.739 15.3411C197.739 10.7176 194.01 6.95807 189.429 6.95807C184.849 6.95807 181.12 10.7202 181.12 15.3411C181.12 19.9621 184.828 23.6391 189.429 23.6391C194.031 23.6391 196.719 20.2173 197.391 17.742H193.485C193.485 17.742 192.244 20.1668 189.427 20.1668V20.1641ZM189.429 10.4277C191.498 10.4277 193.295 11.8076 193.909 13.8602H184.949C185.563 11.805 187.361 10.4277 189.429 10.4277Z" fill="currentColor"/>
<path d="M39.2534 23.7428C34.6758 23.7428 31.0864 20.0259 31.0864 15.4555C31.0864 10.8851 34.8102 7.08038 39.3878 7.08038C43.9654 7.08038 47.6892 10.9861 47.6892 15.4103V23.3281H44.4661V20.6853L44.2316 20.6241C43.665 22.0279 41.6068 23.7428 39.2534 23.7428ZM39.3852 10.5474C36.7999 10.5474 34.6969 12.7382 34.6969 15.4289C34.6969 18.1195 36.7999 20.2731 39.3852 20.2731C41.9704 20.2731 44.0734 18.1009 44.0734 15.4289C44.0734 12.7568 41.9704 10.5474 39.3852 10.5474Z" fill="currentColor"/>
<path d="M217.567 23.7428C212.989 23.7428 209.4 20.0259 209.4 15.4555C209.4 10.8851 213.124 7.08038 217.701 7.08038C222.279 7.08038 226.003 10.9861 226.003 15.4103V23.3281H222.78V20.6853L222.545 20.6241C221.978 22.0279 219.92 23.7428 217.567 23.7428ZM217.699 10.5474C215.113 10.5474 213.01 12.7382 213.01 15.4289C213.01 18.1195 215.113 20.2731 217.699 20.2731C220.284 20.2731 222.387 18.1009 222.387 15.4289C222.387 12.7568 220.284 10.5474 217.699 10.5474Z" fill="currentColor"/>
<path d="M56.8842 23.7428C52.3066 23.7428 48.7173 20.0259 48.7173 15.4555C48.7173 10.8851 52.441 7.08038 57.0186 7.08038C61.5963 7.08038 65.32 10.9861 65.32 15.4103V23.3281H62.097V20.6853L61.8624 20.6241C61.2958 22.0279 59.2376 23.7428 56.8842 23.7428ZM57.016 10.5474C54.4307 10.5474 52.3277 12.7382 52.3277 15.4289C52.3277 18.1195 54.4307 20.2731 57.016 20.2731C59.6013 20.2731 61.7043 18.1009 61.7043 15.4289C61.7043 12.7568 59.6013 10.5474 57.016 10.5474Z" fill="currentColor"/>
<path d="M70.7275 23.328L64.1128 7.4978H67.7311L72.5802 19.1591L77.4292 7.4978H81.0476L74.4328 23.328H70.7275Z" fill="currentColor"/>
</g>
<defs>
<clipPath id="clip0_2815_725">
<rect width="226" height="26" fill="white" transform="translate(0 0.324463)"/>
</clipPath>
</defs>
</svg>
