<svg width="15" height="14" viewBox="0 0 15 14" fill="none" xmlns="http://www.w3.org/2000/svg">
<g clip-path="url(#clip0_1655_1573)">
<path d="M7.02881 14C10.8888 14 14.0288 10.86 14.0288 7C14.0288 3.14 10.8888 -7.82311e-08 7.02881 -7.82311e-08C3.16881 -7.82311e-08 0.0288085 3.14 0.0288085 7C0.0288085 10.86 3.16881 14 7.02881 14ZM9.09452 11.7914C9.52024 11.1971 9.93167 10.4486 10.2145 9.52857H11.5917C11.0345 10.5314 10.1545 11.3314 9.09452 11.7914ZM12.0317 5.52C12.1717 5.98857 12.246 6.48571 12.246 7C12.246 7.51429 12.1688 8.01143 12.0317 8.48H10.4602C10.5374 8.02 10.5831 7.52857 10.5831 7C10.5831 6.47143 10.5374 5.98 10.4602 5.52H12.0317ZM11.5917 4.47143H10.2145C9.93167 3.55143 9.52024 2.80286 9.09452 2.20857C10.1545 2.66857 11.0345 3.46857 11.5917 4.47143ZM7.55167 2.01143C8.05738 2.52286 8.69167 3.33429 9.10309 4.47143H7.55167V2.01143ZM7.55167 5.52H9.39167C9.48024 5.97429 9.53452 6.46571 9.53452 7C9.53452 7.53429 9.48309 8.02571 9.39452 8.48H7.55167V5.52ZM7.55167 9.52857H9.10881C8.69738 10.6771 8.06024 11.4886 7.55167 11.9971V9.52857ZM2.46595 9.52857H3.84309C4.12595 10.4486 4.53738 11.1971 4.96309 11.7914C3.90309 11.3314 3.02309 10.5314 2.46595 9.52857ZM6.50595 11.9886C6.00024 11.4771 5.36595 10.6657 4.95452 9.52857H6.50595V11.9886ZM6.50595 8.48H4.66595C4.57738 8.02571 4.52309 7.53429 4.52309 7C4.52309 6.46571 4.57452 5.97429 4.66309 5.52H6.50595V8.48ZM6.50595 4.47143H4.94881C5.36024 3.32286 5.99738 2.51143 6.50595 2.00286V4.47143ZM4.96309 2.20857C4.53738 2.80286 4.12595 3.55143 3.84309 4.47143H2.46595C3.02309 3.46857 3.90309 2.66857 4.96309 2.20857ZM1.81167 7C1.81167 6.48571 1.88881 5.98857 2.02595 5.52H3.59738C3.52024 5.98 3.47452 6.47143 3.47452 7C3.47452 7.52857 3.52024 8.02 3.59738 8.48H2.02595C1.88595 8.01143 1.81167 7.51429 1.81167 7Z" fill="currentColor"/>
</g>
<defs>
<clipPath id="clip0_1655_1573">
<rect width="14" height="14" fill="white" transform="matrix(-1 0 0 -1 14.0288 14)"/>
</clipPath>
</defs>
</svg>
