<svg width="625" height="435" viewBox="0 0 625 435" fill="none" xmlns="http://www.w3.org/2000/svg">
<g clip-path="url(#clip0_2271_928)">
<path d="M369.941 264.35C369.941 264.35 368.651 249.06 368.541 239.27C368.391 226.87 369.941 207.6 369.941 207.6C364.571 212.54 358.891 217.14 354.111 222.74C349.331 228.36 345.451 235.19 344.581 242.78C343.731 250.36 346.391 258.68 352.311 262.82C358.091 266.85 369.941 264.35 369.941 264.35Z" fill="black"/>
<path d="M601.491 270C601.941 273.54 605.621 278.77 608.711 280.56C611.811 282.35 615.261 283.75 617.591 286.46C621.521 291.02 621.131 297.96 619.051 303.61C616.231 311.26 610.701 317.87 603.681 322C599.171 324.66 594.021 326.36 590.191 329.92C585.121 334.64 583.241 341.75 580.291 348.02C574.131 361.14 562.071 371.59 547.941 374.83C533.131 378.22 517.341 373.64 504.561 365.41C503.671 364.84 502.791 364.25 501.931 363.64C497.251 360.44 489.851 362.86 485.101 365.96C480.341 369.05 476.601 373.51 471.891 376.68C461.251 383.85 445.921 383.11 436.021 374.95C433.101 372.55 430.611 369.59 427.291 367.78C423.981 365.98 419.371 365.71 416.821 368.49C415.561 369.86 414.961 371.79 413.551 373C409.421 376.52 403.591 371.35 400.861 366.66C380.731 332.12 370.411 292.65 368.691 252.62C367.701 229.39 369.601 205.98 374.161 183.24C374.941 179.33 375.801 175.43 376.761 171.55C382.521 148.06 391.541 125.26 405.871 105.87C422.581 83.2699 447.131 65.6299 474.891 61.2399C502.651 56.8499 533.261 67.3399 549.401 90.3399C561.081 107 564.411 128.38 562.651 148.64C561.291 164.37 557.121 179.65 552.341 194.74C555.621 204.42 564.291 212.01 572.781 217.71C581.271 223.41 590.491 228.32 597.461 235.8C604.431 243.28 608.821 254.3 605.201 263.86C604.341 266.13 603.071 268.19 601.501 270H601.491Z" fill="white"/>
<path d="M613.381 283.43C609.341 279.74 603.391 277.09 601.791 272.13C601.751 272.15 601.721 272.18 601.691 272.21C598.421 274.49 596.791 275.4 593.211 277.1C589.291 278.96 585.331 280.32 580.951 280.5C580.401 280.52 579.821 280.54 579.231 280.57C583.361 282.2 587.181 284.37 590.231 287.58C596.241 293.91 597.281 305.7 590.041 310.57C585.001 313.96 578.041 312.87 572.691 315.75C566.311 319.19 564.021 327.12 562.981 334.3C561.941 341.47 561.311 349.28 556.501 354.7C550.591 361.36 540.221 362.04 531.661 359.56C523.101 357.08 515.511 352.08 507.221 348.84C498.921 345.61 488.981 344.36 481.511 349.21C473.521 354.4 469.881 365.55 460.771 368.34C453.591 370.54 446.101 366.52 439.801 362.41C433.511 358.31 426.551 353.76 419.121 354.87C413.281 355.74 407.971 360.08 402.121 359.27C398.071 358.71 394.691 355.68 392.681 352.12C391.101 349.33 388.691 346.53 387.311 343.52C390.501 352.09 396.171 359.4 400.581 366.64C402.541 369.86 405.051 373.26 408.761 373.93C412.861 374.68 417.181 371.04 417.141 366.87C425.281 368.41 431.491 372.81 438.101 376.35C444.711 379.89 452.201 382.64 459.601 381.39C474.151 378.93 484.061 361.92 498.801 362.45C510.181 372.46 525.821 377.61 540.751 375.76C555.681 373.91 569.601 365.11 577.671 352.42C582.271 345.18 585.091 336.74 590.911 330.44C599.171 321.5 612.831 317.55 617.981 306.53C621.541 298.93 619.581 289.11 613.371 283.45V283.43H613.381Z" fill="#E3E3FC"/>
<path d="M417.323 144.511C418.03 140.952 415.13 137.376 410.845 136.525C406.56 135.673 402.513 137.868 401.806 141.427C401.099 144.986 403.999 148.561 408.284 149.413C412.568 150.264 416.615 148.07 417.323 144.511Z" fill="#E3E3FC"/>
<path d="M500.713 147.78C500.794 143.567 496.746 140.073 491.671 139.975C486.597 139.878 482.417 143.214 482.336 147.428C482.256 151.641 486.304 155.135 491.378 155.233C496.453 155.33 500.632 151.994 500.713 147.78Z" fill="#E3E3FC"/>
<path d="M467.41 129.54C469.07 127.85 471.3 126.82 473.67 127.2C476.05 127.58 477.84 129.25 478.9 131.38C479.95 133.51 480.34 136.19 479.9 138.95C479.46 141.71 478.25 144.15 476.59 145.84C474.93 147.53 472.7 148.56 470.33 148.19C467.95 147.81 466.16 146.13 465.11 144.01C464.06 141.88 463.67 139.2 464.11 136.44C464.55 133.68 465.76 131.24 467.43 129.55L467.41 129.54Z" fill="black"/>
<path d="M423.471 127.07C425.091 125.6 427.211 124.74 429.391 125.23C431.581 125.72 433.131 127.4 433.971 129.42C434.811 131.45 435.001 133.95 434.431 136.47C433.871 138.99 432.631 141.18 431.001 142.66C429.381 144.13 427.261 144.99 425.081 144.5C422.891 144.01 421.341 142.33 420.501 140.3C419.661 138.27 419.471 135.76 420.041 133.24C420.601 130.72 421.851 128.54 423.471 127.06V127.07Z" fill="black"/>
<path d="M369.36 264.51C363.56 265.91 356.96 266.06 352.31 262.81C346.38 258.68 343.72 250.35 344.58 242.77C345.44 235.18 349.33 228.35 354.11 222.73C357.43 218.83 363.05 214.62 368.71 208.71" fill="white"/>
<path d="M369.36 264.51C363.56 265.91 356.96 266.06 352.31 262.81C346.38 258.68 343.72 250.35 344.58 242.77C345.44 235.18 349.33 228.35 354.11 222.73C357.43 218.83 363.05 214.62 368.71 208.71" stroke="black" stroke-width="8" stroke-linecap="round" stroke-linejoin="round"/>
<path d="M548.09 207.76C549.52 203.43 550.95 199.1 552.33 194.74C557.11 179.65 561.28 164.37 562.64 148.64C564.4 128.38 561.07 107 549.39 90.3399C533.25 67.3399 502.64 56.8499 474.88 61.2399C447.12 65.6299 422.57 83.2699 405.86 105.87C391.53 125.26 382.51 148.06 376.75 171.55C375.79 175.43 374.93 179.33 374.15 183.24C369.59 205.98 367.69 229.39 368.68 252.62C370.4 292.65 380.72 332.12 400.85 366.66C403.58 371.35 409.41 376.52 413.54 373C414.95 371.79 415.55 369.86 416.81 368.49C419.36 365.71 423.97 365.98 427.28 367.78C430.6 369.59 433.09 372.55 436.01 374.95C445.91 383.11 461.24 383.85 471.88 376.68C476.59 373.51 480.33 369.05 485.09 365.96C489.84 362.86 497.24 360.44 501.92 363.65" stroke="black" stroke-width="8" stroke-linecap="round" stroke-linejoin="round"/>
<path d="M501.931 363.64C502.791 364.25 503.671 364.84 504.561 365.41C517.341 373.64 533.131 378.22 547.941 374.83C562.071 371.59 574.131 361.14 580.291 348.02C583.241 341.75 585.121 334.64 590.191 329.92C594.021 326.36 599.171 324.66 603.681 322C610.701 317.87 616.231 311.26 619.051 303.61C621.131 297.96 621.521 291.02 617.591 286.46C615.261 283.75 611.811 282.35 608.711 280.56C605.621 278.77 601.941 273.54 601.491 270" stroke="black" stroke-width="8" stroke-linecap="round" stroke-linejoin="round"/>
<path d="M473.98 333.79C483.23 345.11 493.08 356.23 505.11 364.53" stroke="black" stroke-width="6" stroke-linecap="round" stroke-linejoin="round"/>
<path d="M414.67 353.7C409.99 346.26 406.07 338.33 403.01 330.09" stroke="black" stroke-width="6" stroke-linecap="round" stroke-linejoin="round"/>
<path d="M574.05 319.79C557.29 313.68 541.7 304.39 528.34 292.56" stroke="black" stroke-width="6" stroke-linecap="round" stroke-linejoin="round"/>
<path d="M545.45 266.09C552.04 269.9 558.68 273.74 565.87 276.22C573.06 278.7 580.94 279.77 588.32 277.92C593.35 276.66 598.11 273.89 601.49 270C603.06 268.19 604.33 266.13 605.19 263.86C608.81 254.3 604.42 243.28 597.45 235.8C590.48 228.32 581.26 223.41 572.77 217.71C564.28 212.01 555.61 204.42 552.33 194.74" stroke="black" stroke-width="8" stroke-linecap="round" stroke-linejoin="round"/>
<path d="M518.05 434.24C575.146 434.24 621.43 430.125 621.43 425.05C621.43 419.974 575.146 415.86 518.05 415.86C460.955 415.86 414.67 419.974 414.67 425.05C414.67 430.125 460.955 434.24 518.05 434.24Z" fill="#D6D6D6"/>
<path d="M123.79 279.761H105.81C51.32 279.761 7 235.431 7 180.951C7 126.471 42.79 93.1412 98.75 69.4712L141.08 100.791L123.79 118.081H105.81C71.15 118.081 42.95 146.281 42.95 180.941C42.95 215.601 71.15 243.801 105.81 243.801L141.07 262.461L123.78 279.751L123.79 279.761Z" fill="#FFD400" stroke="black" stroke-width="8" stroke-linecap="round" stroke-linejoin="round"/>
<path d="M218.7 279.761H200.72V243.811H218.7C253.36 243.811 281.56 215.611 281.56 180.951C281.56 146.291 253.36 118.091 218.7 118.091H200.72V82.1411H218.7C273.19 82.1411 317.51 126.471 317.51 180.951C317.51 235.431 273.18 279.761 218.7 279.761Z" fill="#FFD400" stroke="black" stroke-width="8" stroke-linecap="round" stroke-linejoin="round"/>
<path d="M236.07 198.771H87.23V162.821L253.36 181.481L236.07 198.771Z" fill="#FFD400" stroke="black" stroke-width="8" stroke-linecap="round" stroke-linejoin="round"/>
<path d="M141.08 262.471H123.1C68.61 262.471 24.29 218.141 24.29 163.661C24.29 109.181 68.61 64.8413 123.1 64.8413H141.08V100.791H123.1C88.44 100.791 60.24 128.991 60.24 163.651C60.24 198.311 88.44 226.511 123.1 226.511H141.08V262.461V262.471Z" fill="#FFF7AE" stroke="black" stroke-width="8" stroke-linecap="round" stroke-linejoin="round"/>
<path d="M235.99 262.471H218.01V226.521H235.99C270.65 226.521 298.85 198.321 298.85 163.661C298.85 129.001 270.65 100.801 235.99 100.801H218.01V64.8511H235.99C290.48 64.8511 334.8 109.181 334.8 163.661C334.8 218.141 290.47 262.471 235.99 262.471Z" fill="#FFF7AE" stroke="black" stroke-width="8" stroke-linecap="round" stroke-linejoin="round"/>
<path d="M253.36 145.531H104.52V181.481H253.36V145.531Z" fill="#FFF7AE" stroke="black" stroke-width="8" stroke-linecap="round" stroke-linejoin="round"/>
<path d="M218.01 262.471L200.72 279.761V243.811L218.01 226.521V262.471Z" fill="#FFD400" stroke="black" stroke-width="8" stroke-linecap="round" stroke-linejoin="round"/>
<path d="M218.01 64.8413L200.72 82.1313V118.091L218.01 100.801V64.8413Z" fill="#FFD400" stroke="black" stroke-width="8" stroke-linecap="round" stroke-linejoin="round"/>
<path d="M104.52 145.531L87.23 162.821V198.771L104.52 181.481V145.531Z" fill="#FFD400" stroke="black" stroke-width="8" stroke-linecap="round" stroke-linejoin="round"/>
<path d="M54.6241 27.5243L29.2036 52.9448L289.589 313.33L315.009 287.909L54.6241 27.5243Z" fill="#FFD400" stroke="black" stroke-width="8" stroke-linecap="round" stroke-linejoin="round"/>
<path d="M69.1441 12.9999L43.7236 38.4204L304.109 298.805L329.529 273.385L69.1441 12.9999Z" fill="#FFB400" stroke="black" stroke-width="8" stroke-linecap="round" stroke-linejoin="round"/>
</g>
<defs>
<clipPath id="clip0_2271_928">
<rect width="624.37" height="434.24" fill="white" transform="translate(0.220215)"/>
</clipPath>
</defs>
</svg>
