<svg width="256" height="256" viewBox="0 0 256 256" fill="none" xmlns="http://www.w3.org/2000/svg">
<path d="M185.787 189.882C178.24 191.12 173.119 198.428 174.332 206.129C175.545 213.83 182.707 219.056 190.254 217.819C197.801 216.581 202.922 209.273 201.709 201.571C200.477 193.85 193.353 188.625 185.787 189.882Z" fill="black"/>
<path d="M149.534 189.882C141.987 191.12 136.866 198.428 138.079 206.129C139.292 213.83 146.454 219.056 154.001 217.819C161.548 216.581 166.669 209.273 165.456 201.571C164.224 193.85 157.1 188.625 149.534 189.882Z" fill="black"/>
<path d="M169.865 145.462C149.63 145.462 131.475 154.656 118.98 169.214V125.757C124.024 127.8 128.067 131.651 130.416 136.916C131.822 140.04 134.883 142.063 138.252 142.063C141.621 142.063 144.682 140.059 146.088 136.936C150.323 127.486 159.237 124.126 166.168 124.126C175.14 124.126 182.629 128.92 186.21 136.916C187.905 140.688 191.928 142.751 195.894 141.867C199.861 140.983 202.691 137.407 202.691 133.262C202.729 81.2784 161.297 39 110.355 39C59.4125 39 18 81.2784 18 133.242C18 137.388 20.8301 140.963 24.7769 141.847C25.393 141.985 26.0091 142.044 26.6252 142.044C29.9366 142.044 33.0363 140.079 34.461 136.896C38.6966 127.466 47.6106 124.087 54.5415 124.087C63.5133 124.087 71.0025 128.881 74.5835 136.877C75.989 140.001 79.0501 142.024 82.4194 142.024C85.7886 142.024 88.8497 140.02 90.2552 136.896C92.835 131.14 97.1476 127.663 101.711 125.816V214.99C101.711 215.441 101.672 215.893 101.672 216.365H119.096C119.096 187.014 141.641 163.222 169.846 163.222C198.051 163.222 220.596 187.014 220.596 216.365H238C238 177.23 207.465 145.462 169.846 145.462H169.865ZM82.4579 118.056C75.2766 110.747 65.4 106.524 54.58 106.524C49.0353 106.524 43.7215 107.624 38.9084 109.687C48.6695 78.9208 77.0286 56.6029 110.393 56.6029C143.758 56.6029 172.098 78.9012 181.879 109.667C177.065 107.604 171.79 106.504 166.265 106.504C155.425 106.504 145.53 110.728 138.348 118.036C131.167 110.728 121.29 106.504 110.47 106.504C99.6312 106.504 89.7354 110.728 82.5541 118.036L82.4579 118.056Z" fill="black"/>
</svg>
